<svg xmlns="http://www.w3.org/2000/svg" width="39.223" height="45.39"><g fill="none" stroke="#6864d0" stroke-linecap="round" stroke-linejoin="round" stroke-miterlimit="10" stroke-width="1.6"><path data-name="Path 975" d="M.8 44.591v-.631a6.271 6.271 0 013.981-5.838l12.261-4.8a6.269 6.269 0 014.734.064L34.6 38.822a6.269 6.269 0 013.822 5.773h0"/><path data-name="Path 976" d="M8.35 17.033a11.073 11.073 0 0022.146 0V15.19"/><path data-name="Path 977" d="M4.701 34.147V15.335A14.576 14.576 0 0119.234.8h0a14.576 14.576 0 0114.533 14.535v18.812"/><path data-name="Path 978" d="M30.537 14.893h0c-6.469-.3-10.412-7.8-10.412-7.8s-1.61 10.192-11.774 7.046"/></g></svg>