<svg xmlns="http://www.w3.org/2000/svg" width="52.647" height="37.63"><path data-name="Path 122" d="M51.866 37.63a.784.784 0 01-.39-.1l.053.051c-.488-.379-6.486-3.379-15.2-3.379a40.025 40.025 0 00-9.824 1.242l-.187-.008h-.246a39.4 39.4 0 00-9.679-1.216 34.31 34.31 0 00-15.212 3.3.825.825 0 01-.4.111.781.781 0 01-.779-.78v-32.9a.781.781 0 01.78-.78h3.722V1.736a.78.78 0 01.561-.79A28.768 28.768 0 0112.35.008c4.09 0 9.727.88 13.78 5.075l.178.184.18-.183C30.611.889 36.219.008 40.196.008a28.909 28.909 0 017.365.94.773.773 0 01.554.777v1.456h3.743a.783.783 0 01.791.78v32.9a.785.785 0 01-.391.669.782.782 0 01-.392.1zM1.561 35.581l.344-.141a37.433 37.433 0 0114.241-2.8 37.886 37.886 0 014.517.272l.109-.485a26.933 26.933 0 00-8.414-1.346h-.466a45.594 45.594 0 00-6.473.518.8.8 0 01-.111.008.785.785 0 01-.564-.234.775.775 0 01-.221-.554V4.729H1.561zm34.918-2.945a37.451 37.451 0 0114.252 2.8l.343.14.042-30.847h-2.962v26.077a.75.75 0 01-.008.127.785.785 0 01-.77.665.807.807 0 01-.119-.009 45.43 45.43 0 00-6.516-.508h-.493a27 27 0 00-8.425 1.345l.109.486a37.742 37.742 0 014.547-.276zm-24.583-3.1c6.854 0 10.991 1.764 13.254 3.245l.388.253-.031-26.218-.063-.071C21.685 2.504 16.275 1.613 12.4 1.613a28.7 28.7 0 00-6.163.686l-.195.044V29.93l.281-.035a45.078 45.078 0 015.574-.359zM40.205 1.613c-3.854 0-9.247.89-13.044 5.132l-.063.071v26.2l.385-.249c2.3-1.481 6.462-3.247 13.257-3.247a45.091 45.091 0 015.541.37l.283.036V2.337l-.2-.043a28.854 28.854 0 00-6.162-.686z" fill="#ffbc27"/></svg>