<svg xmlns="http://www.w3.org/2000/svg" width="47.501" height="36.896"><g data-name="Group 560"><g data-name="Group 552"><path data-name="Path 105" d="M21.76 5.412a.906.906 0 00-.906-.9H7.336a.905.905 0 00-.905.9v11.587a.906.906 0 00.905.906h13.518a.906.906 0 00.906-.906zm-1.811 10.681H8.242V6.318h11.707zm0 0" fill="#ff8a5b"/></g><g data-name="Group 553"><path data-name="Path 106" d="M40.165 18.99H26.647a.905.905 0 00-.9.905v11.588a.905.905 0 00.9.905h13.518a.905.905 0 00.9-.905V19.895a.905.905 0 00-.9-.905zm-.9 11.587H27.558v-9.776h11.707zm0 0" fill="#ff8a5b"/></g><g data-name="Group 554"><path data-name="Path 107" d="M40.165 5.471H26.647a.9.9 0 00-.9.905.9.9 0 00.9.905h13.518a.9.9 0 00.9-.905.9.9 0 00-.9-.905zm0 0" fill="#ff8a5b"/></g><g data-name="Group 555"><path data-name="Path 108" d="M40.165 10.301H26.647a.9.9 0 00-.9.905.9.9 0 00.9.905h13.518a.9.9 0 00.9-.905.9.9 0 00-.9-.905zm0 0" fill="#ff8a5b"/></g><g data-name="Group 556"><path data-name="Path 109" d="M40.165 15.128H26.647a.906.906 0 00-.9.906.905.905 0 00.9.905h13.518a.905.905 0 00.9-.905.906.906 0 00-.9-.906zm0 0" fill="#ff8a5b"/></g><g data-name="Group 557"><path data-name="Path 110" d="M20.854 19.956H7.336a.9.9 0 00-.905.905.9.9 0 00.905.9h13.518a.906.906 0 00.906-.9.906.906 0 00-.906-.905zm0 0" fill="#ff8a5b"/></g><g data-name="Group 558"><path data-name="Path 111" d="M20.854 24.784H7.336a.9.9 0 00-.905.905.9.9 0 00.905.9h13.518a.906.906 0 00.906-.9.906.906 0 00-.906-.905zm0 0" fill="#ff8a5b"/></g><g data-name="Group 559"><path data-name="Path 112" d="M20.854 29.612H7.336a.9.9 0 00-.905.905.9.9 0 00.905.9h13.518a.906.906 0 00.906-.9.906.906 0 00-.906-.905zm0 0" fill="#ff8a5b"/></g></g><g data-name="Group 561"><path data-name="Path 113" d="M45.462 36.895H2.04A2.042 2.042 0 010 34.855V2.04A2.042 2.042 0 012.04 0h43.422a2.042 2.042 0 012.039 2.04v32.815a2.042 2.042 0 01-2.039 2.04zM2.04 1.612a.428.428 0 00-.428.428v32.815a.428.428 0 00.428.428h43.422a.428.428 0 00.428-.428V2.04a.428.428 0 00-.428-.428z" fill="#ff8a5b"/></g></svg>