<svg xmlns="http://www.w3.org/2000/svg" width="41.381" height="35.672"><g fill="#87de4d"><path data-name="Path 103" d="M20.975 26.397a1.092 1.092 0 00-1.091 1.091 1.091 1.091 0 001.091 1.091 1.09 1.09 0 001.091-1.091 1.091 1.091 0 00-1.091-1.091zm0 0"/><path data-name="Path 104" d="M37.364 0H4.017A4.021 4.021 0 000 4.016V26.66a4.023 4.023 0 004.018 4.018h12.159l-1.019 3.567h-7.31a.713.713 0 00-.713.714.713.713 0 00.713.713h26.4a.713.713 0 00.713-.713.713.713 0 00-.713-.714h-7.31l-1.019-3.567h11.447a4.022 4.022 0 004.017-4.017V4.016A4.021 4.021 0 0037.366 0zM4.017 1.427h15.96v18.714a.713.713 0 00.713.713.713.713 0 00.714-.713V1.427h15.96a2.591 2.591 0 012.589 2.589v8.112h-2.19a4.969 4.969 0 00-2.642-3.719 3.545 3.545 0 001.266-2.7 3.572 3.572 0 00-3.568-3.567 3.571 3.571 0 00-3.567 3.567 3.542 3.542 0 001.269 2.705 5 5 0 00-2.7 4.43.713.713 0 00.713.713h11.415v10.7h-3.624a5 5 0 00-2.639-3.716 3.542 3.542 0 001.269-2.705 3.571 3.571 0 00-3.567-3.567 3.571 3.571 0 00-3.567 3.567 3.546 3.546 0 001.269 2.705 5 5 0 00-2.639 3.716H21.4v-4.994a.714.714 0 00-.714-.714.714.714 0 00-.713.714v4.994h-4.338a5 5 0 00-2.639-3.716 3.543 3.543 0 001.27-2.705 3.572 3.572 0 00-3.568-3.567 3.572 3.572 0 00-3.567 3.567A3.542 3.542 0 008.4 20.541a5 5 0 00-2.639 3.716H1.424v-10.7h11.414a.713.713 0 00.714-.713 5 5 0 00-2.7-4.43 3.542 3.542 0 001.269-2.705 3.571 3.571 0 00-3.567-3.567 3.572 3.572 0 00-3.568 3.567 3.542 3.542 0 001.272 2.707A5.009 5.009 0 003.61 12.13H1.42V4.018a2.591 2.591 0 012.589-2.589zm26.662 4.28a2.142 2.142 0 012.14-2.14 2.142 2.142 0 012.14 2.14 2.143 2.143 0 01-2.14 2.141 2.143 2.143 0 01-2.14-2.141zm5.637 6.421h-6.992a3.574 3.574 0 013.5-2.854 3.557 3.557 0 013.5 2.854zm-7.064 5.708a2.142 2.142 0 012.14-2.14 2.143 2.143 0 012.141 2.14 2.143 2.143 0 01-2.141 2.14 2.142 2.142 0 01-2.14-2.14zm5.636 6.421h-6.991a3.574 3.574 0 013.5-2.854 3.574 3.574 0 013.5 2.854zM8.562 17.836a2.142 2.142 0 012.14-2.14 2.142 2.142 0 012.14 2.14 2.142 2.142 0 01-2.14 2.14 2.142 2.142 0 01-2.14-2.14zm5.636 6.421H7.206a3.575 3.575 0 013.5-2.854 3.574 3.574 0 013.5 2.854zM6.422 5.707a2.142 2.142 0 012.14-2.14 2.142 2.142 0 012.14 2.14 2.143 2.143 0 01-2.14 2.141 2.143 2.143 0 01-2.14-2.141zm-1.356 6.421a3.579 3.579 0 013.5-2.854 3.575 3.575 0 013.5 2.854zm20.386 22.117h-8.81l1.019-3.567h6.772zm11.912-4.994H4.018a2.593 2.593 0 01-2.59-2.591v-.976h38.525v.977a2.592 2.592 0 01-2.589 2.59zm0 0"/><path data-name="Rectangle 241" d="M3.572 12.126H37.33v1.407H3.572z"/></g></svg>