<svg xmlns="http://www.w3.org/2000/svg" width="39.541" height="39.542"><g data-name="Group 548"><path data-name="Path 97" d="M39.515 5.897a.656.656 0 00-.488-.457l-4.02-.908-.908-4.02a.656.656 0 00-1.1-.319l-4.623 4.624a18.708 18.708 0 00-24.4 4.486 18.708 18.708 0 001.5 24.759 18.708 18.708 0 0024.759 1.5 18.708 18.708 0 004.486-24.4l4.625-4.626a.656.656 0 00.166-.646zm-3.413 14.939a17.4 17.4 0 01-12.9 16.8 17.4 17.4 0 01-19.565-8.112 17.4 17.4 0 012.775-21 17.4 17.4 0 0121-2.751l-2.124 2.123a.644.644 0 00-.05.066 14.455 14.455 0 00-18.251 4.383 14.455 14.455 0 001.464 18.713 14.455 14.455 0 0018.711 1.49 14.455 14.455 0 004.408-18.245.742.742 0 00.069-.056l2.123-2.123a17.339 17.339 0 012.337 8.709zm-6.086-6.64a13.105 13.105 0 01-3.3 17 13.106 13.106 0 01-17.28-1.111 13.105 13.105 0 01-1.094-17.281 13.1 13.1 0 0117-3.283l.691 3.06-.662.663a10.131 10.131 0 00-14.077.684 10.131 10.131 0 00.228 14.092 10.131 10.131 0 0014.092.228 10.131 10.131 0 00.684-14.077l.663-.662zm-8.491 6.64a2.831 2.831 0 01-2.11 2.749 2.832 2.832 0 01-3.19-1.353 2.832 2.832 0 01.508-3.427 2.83 2.83 0 013.445-.369l-1.938 1.937a.656.656 0 00-.007.935.655.655 0 00.935-.008l1.937-1.937a2.792 2.792 0 01.42 1.473zm-.4-3.345a4.15 4.15 0 00-5.591.668 4.149 4.149 0 00.222 5.626 4.151 4.151 0 005.627.225 4.15 4.15 0 00.669-5.591l3.321-3.32a8.812 8.812 0 01-.686 12.209 8.811 8.811 0 01-12.226-.23 8.812 8.812 0 01-.225-12.227 8.812 8.812 0 0112.209-.68zm12.311-6.888l-2.462 2.462-.369-.083h-.015l-3.285-.739-.828-3.667 6.609-6.61.737 3.263a.658.658 0 00.5.5l3.263.737zm0 0" fill="#f95966"/></g></svg>