<svg xmlns="http://www.w3.org/2000/svg" width="41.498" height="43.974"><g fill="#ff67c2"><path data-name="Path 116" d="M20.749 43.974a.728.728 0 01-.615-.328l-3.832-5.748H3.389A3.393 3.393 0 010 34.51V3.389A3.393 3.393 0 013.389 0h34.719a3.393 3.393 0 013.389 3.389V34.51a3.393 3.393 0 01-3.389 3.388H25.195l-3.832 5.748a.729.729 0 01-.614.328zm-17.36-42.5a1.912 1.912 0 00-1.911 1.911v31.121a1.912 1.912 0 001.911 1.909h13.308a.741.741 0 01.616.329l3.436 5.156 3.437-5.156a.736.736 0 01.614-.329h13.309a1.912 1.912 0 001.911-1.909V3.385a1.913 1.913 0 00-1.911-1.911z"/><path data-name="Path 117" d="M22.511 31.898a.742.742 0 01-.743-.67l-.648-6.955a.753.753 0 01.054-.354l6.968-16.82a3.99 3.99 0 013.7-2.467 3.962 3.962 0 011.523.3 4 4 0 012.163 5.225L28.56 26.979a.733.733 0 01-.211.287l-5.373 4.458a.722.722 0 01-.465.174zm.1-7.579l.5 5.377 4.157-3.448 5.341-12.9-4.656-1.929zM31.842 6.11a2.515 2.515 0 00-2.332 1.557l-.991 2.389 4.658 1.931.99-2.391a2.5 2.5 0 000-1.929 2.5 2.5 0 00-1.366-1.365 2.51 2.51 0 00-.962-.193z"/><path data-name="Path 118" d="M6.401 15.329a.741.741 0 01-.739-.739.741.741 0 01.739-.739h13.286a.74.74 0 01.739.739.74.74 0 01-.739.739z"/><path data-name="Path 119" d="M6.401 9.161a.741.741 0 01-.739-.739.741.741 0 01.739-.739h16.5a.74.74 0 01.739.739.74.74 0 01-.739.739z"/><path data-name="Path 120" d="M6.401 21.905a.74.74 0 01-.739-.738.741.741 0 01.739-.74h10.462a.74.74 0 01.739.74.74.74 0 01-.739.738z"/><path data-name="Path 121" d="M6.401 28.478a.74.74 0 01-.739-.738.741.741 0 01.739-.739h11.215a.74.74 0 01.739.739.739.739 0 01-.739.738z"/></g></svg>