<svg xmlns="http://www.w3.org/2000/svg" width="46.674" height="37.155"><g fill="#9bd7ee"><path data-name="Path 98" d="M45.762 14.834a.912.912 0 00-.911.912v3.249a3.385 3.385 0 01-3.381 3.381h-5.2a.913.913 0 00-.644.266l-6.3 6.3v-5.655a.911.911 0 00-.912-.911H15.363a3.385 3.385 0 01-3.382-3.381V5.204a3.385 3.385 0 013.382-3.38h26.1a3.384 3.384 0 013.381 3.38v3.249a.911.911 0 00.911.912.912.912 0 00.912-.912V5.204a5.211 5.211 0 00-5.2-5.2h-26.1a5.211 5.211 0 00-5.2 5.2v11.712H3.532a3.531 3.531 0 00-3.526 3.527v8.4a3.531 3.531 0 003.526 3.527H6.32l4.518 4.518a.911.911 0 00.645.267.921.921 0 00.349-.069.911.911 0 00.563-.842V32.37h7.039a3.531 3.531 0 003.527-3.527v-4.644h4.551v6.944a.911.911 0 00.563.842.9.9 0 00.348.07.908.908 0 00.645-.268l7.589-7.588h4.819a5.21 5.21 0 005.2-5.2V15.75a.913.913 0 00-.912-.912zm-24.63 14.009a1.7 1.7 0 01-1.7 1.7h-7.951a.912.912 0 00-.911.912v2.588l-3.23-3.229a.912.912 0 00-.644-.268H3.53a1.7 1.7 0 01-1.7-1.7v-8.4a1.705 1.705 0 011.7-1.7h6.635v.256a5.21 5.21 0 005.2 5.2h5.766zm0 0"/><path data-name="Path 99" d="M37.306 5.974H19.532a.911.911 0 00-.911.912.911.911 0 00.911.911h17.777a.911.911 0 00.911-.911.911.911 0 00-.911-.912zm0 0"/><path data-name="Path 100" d="M38.217 11.809a.911.911 0 00-.911-.912H19.532a.911.911 0 00-.911.912.911.911 0 00.911.911h17.777a.911.911 0 00.911-.911zm0 0"/><path data-name="Path 101" d="M19.532 15.82a.911.911 0 00-.911.911.911.911 0 00.911.912h10.256a.912.912 0 00.912-.912.912.912 0 00-.912-.911zm0 0"/><path data-name="Path 102" d="M45.762 11.188a.913.913 0 00-.911.911.913.913 0 00.911.912.913.913 0 00.912-.912.913.913 0 00-.912-.911zm0 0"/></g></svg>