<svg xmlns="http://www.w3.org/2000/svg" height="216" width="295"><defs><filter filterUnits="userSpaceOnUse" height="239.783" width="269.216" y="-10.5" x="19.99" id="a"><feOffset dy="8"/><feGaussianBlur result="blur" stdDeviation="7.5"/><feFlood flood-opacity=".098" flood-color="#5d5d5d"/><feComposite result="result1" in2="blur" operator="in"/><feComposite in2="result1" in="SourceGraphic"/></filter><filter filterUnits="userSpaceOnUse" height="109" width="102.167" y="1.499" x="196.076" id="b"><feOffset dy="3"/><feGaussianBlur result="blur-2" stdDeviation="5"/><feFlood flood-opacity=".063" flood-color="#5d5d5d"/><feComposite result="result1" in2="blur-2" operator="in"/><feComposite in2="result1" in="SourceGraphic"/></filter><filter filterUnits="userSpaceOnUse" height="286.39" width="300.167" y="-97.501" x="97.077" id="c"><feOffset dy="3"/><feGaussianBlur result="blur-3" stdDeviation="38"/><feFlood flood-opacity=".11" flood-color="#5d5d5d"/><feComposite result="result1" in2="blur-3" operator="in"/><feComposite in2="result1" in="SourceGraphic"/></filter></defs><g data-name="Group 2465"><g filter="url(#a)"><path data-name="Union 4" d="M64.644 188.289H47.49a5 5 0 01-5-5V9a5 5 0 015-5h214.217a5 5 0 015 5v174.289a5 5 0 01-5 5H82.662l-9.008 10.494z" fill="#fff"/></g><path data-name="Path 2576" d="M68.326 128.813v-6.941a.146.146 0 00-.165-.165h-.44a.257.257 0 00-.171.044.611.611 0 00-.1.132l-1.83 3.74-.539 1.188h-.022l-.528-1.144-1.826-3.8a.416.416 0 00-.088-.126.236.236 0 00-.154-.038h-.484a.146.146 0 00-.165.165v6.945A.165.165 0 0062 129h.462q.176 0 .176-.187V123.6h.022l.34.725 1.672 3.41a.249.249 0 00.083.1.27.27 0 00.148.033h.319a.226.226 0 00.22-.143l1.608-3.279.385-.846h.033v5.213q0 .187.2.187h.473a.165.165 0 00.185-.187zm5.83 0v-4.983a.165.165 0 00-.187-.187h-.451a.165.165 0 00-.187.187v3.883l-.363.176q-.231.11-.495.209-.264.099-.528.176a1.681 1.681 0 01-.462.077 1.452 1.452 0 01-.429-.051.535.535 0 01-.281-.2.93.93 0 01-.148-.385 3.626 3.626 0 01-.044-.627v-3.258q0-.187-.176-.187h-.473a.165.165 0 00-.187.187v3.245a6.223 6.223 0 00.049.814 1.575 1.575 0 00.22.644 1.158 1.158 0 00.49.423 2 2 0 00.858.154 2.233 2.233 0 00.583-.077 3.88 3.88 0 00.539-.187 5.05 5.05 0 00.468-.231q.214-.121.347-.209l.022.022v.385q0 .187.2.187h.451a.165.165 0 00.184-.187zm2.992-.066l-.048-.352q-.011-.11-.187-.11a1.057 1.057 0 01-.429-.061q-.121-.06-.121-.346v-6.435q0-.121-.05-.154a.27.27 0 00-.148-.033h-.44a.165.165 0 00-.187.187v6.71a1.671 1.671 0 00.038.369.652.652 0 00.137.286.657.657 0 00.275.181 1.3 1.3 0 00.451.066 1.5 1.5 0 00.3-.033 1.6 1.6 0 00.292-.088.173.173 0 00.117-.187zm3.806-.088l-.044-.253a.182.182 0 00-.066-.115.323.323 0 00-.176-.017l-.335.026q-.214.017-.3.017a2.309 2.309 0 01-.4-.027.486.486 0 01-.236-.1.362.362 0 01-.115-.2 1.491 1.491 0 01-.028-.319v-3.335h1.216q.121 0 .154-.044a.242.242 0 00.033-.143v-.319a.246.246 0 00-.033-.137q-.033-.049-.154-.049h-1.221v-1.354q0-.22-.187-.165l-.44.121a.321.321 0 00-.137.066.183.183 0 00-.05.143v1.188h-.616q-.187 0-.187.2v.308a.165.165 0 00.187.187h.6v3.586a1.928 1.928 0 00.055.478.9.9 0 00.187.369.836.836 0 00.363.236 1.755 1.755 0 00.583.083q.121 0 .292-.017.171-.017.352-.044.186-.029.349-.067a1.042 1.042 0 00.258-.093.205.205 0 00.096-.21zm1.672-6.446a.6.6 0 00-.088-.347q-.088-.127-.385-.127a.442.442 0 00-.379.132.577.577 0 00-.094.341.743.743 0 00.077.346q.077.149.4.148.323-.001.39-.143a.694.694 0 00.079-.35zm-.066 6.6v-4.983q0-.187-.176-.187h-.451a.27.27 0 00-.148.033q-.05.033-.05.154v4.983q0 .187.2.187h.451q.174 0 .174-.187zm5.94-2.541a6.867 6.867 0 00-.088-1.166 2.533 2.533 0 00-.292-.852 1.36 1.36 0 00-.55-.528 1.847 1.847 0 00-.863-.181 1.961 1.961 0 00-.556.082 4.573 4.573 0 00-.534.193 4.067 4.067 0 00-.456.231l-.325.2-.036-.025v-.4a.165.165 0 00-.187-.187h-.451a.165.165 0 00-.187.187v6.9a.292.292 0 00.033.165q.033.044.154.044h.451a.2.2 0 00.16-.049.262.262 0 00.038-.16V128.8l.011-.011a4.1 4.1 0 00.825.242 4.141 4.141 0 00.697.069 2.554 2.554 0 001.051-.187 1.577 1.577 0 00.66-.544 2.274 2.274 0 00.347-.886 6.616 6.616 0 00.098-1.211zm-.869-.033a6.849 6.849 0 01-.061 1 1.854 1.854 0 01-.2.649.816.816 0 01-.379.352 1.458 1.458 0 01-.589.1 5.216 5.216 0 01-.737-.055 6.41 6.41 0 01-.85-.185v-3.17q.143-.077.368-.187t.479-.209a4.368 4.368 0 01.511-.165 1.874 1.874 0 01.457-.069 1.323 1.323 0 01.44.066.606.606 0 01.314.275 1.657 1.657 0 01.187.589 6.667 6.667 0 01.06 1.009zm3.608 2.508l-.044-.352q-.011-.11-.187-.11a1.057 1.057 0 01-.429-.061q-.121-.06-.121-.346v-6.435q0-.121-.05-.154a.27.27 0 00-.148-.033h-.44a.165.165 0 00-.187.187v6.71a1.671 1.671 0 00.038.369.652.652 0 00.138.286.657.657 0 00.275.181 1.3 1.3 0 00.451.066 1.5 1.5 0 00.3-.033 1.6 1.6 0 00.292-.088.173.173 0 00.112-.187zm2.618 2.035l2.519-6.974q.055-.165-.077-.165h-.594a.175.175 0 00-.176.143l-.836 2.453-.275.814-.215.6q-.1.281-.126.347l-.594-1.683-.9-2.519a.308.308 0 00-.055-.115.154.154 0 00-.121-.038h-.583q-.077 0-.094.055a.2.2 0 00.005.121L93.67 129l-.638 1.76q-.055.176.1.176h.506a.236.236 0 00.154-.038.235.235 0 00.065-.116zm4.433-8.569a.6.6 0 00-.088-.347q-.088-.127-.385-.127a.442.442 0 00-.379.132.577.577 0 00-.094.341.743.743 0 00.077.346q.077.149.4.148.323-.001.391-.143a.694.694 0 00.078-.35zm-.066 6.6v-4.983q0-.187-.176-.187H97.6a.27.27 0 00-.149.033q-.049.033-.049.154v4.983q0 .187.2.187h.451q.171 0 .171-.187zm5.786 0v-3.245a6.223 6.223 0 00-.049-.814 1.628 1.628 0 00-.215-.643 1.126 1.126 0 00-.479-.424 1.958 1.958 0 00-.853-.154 2.233 2.233 0 00-.583.077 4.133 4.133 0 00-.544.187 4.275 4.275 0 00-.467.231q-.209.121-.341.209l-.033-.011v-.4q0-.121-.049-.154a.27.27 0 00-.149-.033H99.8q-.176 0-.176.187v4.987q0 .187.176.187h.451q.2 0 .2-.187v-3.894q.121-.066.352-.171.231-.105.5-.2.264-.1.528-.176a1.681 1.681 0 01.462-.077 1.4 1.4 0 01.424.055.536.536 0 01.275.2.936.936 0 01.148.39 3.645 3.645 0 01.044.622l-.021 3.251a.165.165 0 00.187.187h.462q.198 0 .198-.187zm3.377-5.28a2.748 2.748 0 00-1.087.187 1.651 1.651 0 00-.7.55 2.286 2.286 0 00-.374.885 5.828 5.828 0 00-.11 1.194 6.263 6.263 0 00.094 1.133 2.3 2.3 0 00.335.869 1.563 1.563 0 00.654.555 2.49 2.49 0 001.056.194 3.7 3.7 0 00.677-.071 5.611 5.611 0 00.885-.258v.44a1.733 1.733 0 01-.06.49.708.708 0 01-.209.335.911.911 0 01-.4.193 2.733 2.733 0 01-.632.06q-.341 0-.77-.022a7.612 7.612 0 01-.781-.077.4.4 0 00-.187 0 .147.147 0 00-.088.121l-.044.242a.214.214 0 00-.006.127q.017.06.126.1a2.156 2.156 0 00.4.126 4.668 4.668 0 00.462.077q.236.027.479.038t.451.011a3.443 3.443 0 001.122-.149 1.408 1.408 0 00.638-.418 1.372 1.372 0 00.291-.635 4.6 4.6 0 00.066-.808v-4.785a.8.8 0 00-.044-.253.311.311 0 00-.231-.184q-.2-.055-.44-.1-.24-.045-.506-.083-.264-.033-.539-.055t-.528-.029zM106 126.25a3.971 3.971 0 01.1-1.017 1.361 1.361 0 01.3-.583.927.927 0 01.451-.269 2.24 2.24 0 01.556-.066 6.933 6.933 0 01.72.038q.368.039.688.082v3.665a6.715 6.715 0 01-.847.187 4.953 4.953 0 01-.737.066 1.326 1.326 0 01-.572-.11.879.879 0 01-.38-.363 1.9 1.9 0 01-.215-.649 6.1 6.1 0 01-.064-.981zm14.356 3.212l.176-.319q.044-.088.028-.121a.242.242 0 00-.083-.077 6.96 6.96 0 01-.764-.5q-.391-.292-.731-.6a3.75 3.75 0 00.467-.556 6.213 6.213 0 00.445-.743 5.457 5.457 0 00.352-.863 4.023 4.023 0 00.176-.918.358.358 0 00-.028-.149q-.027-.061-.138-.071l-.3-.011a.22.22 0 00-.132.028.224.224 0 00-.055.115 4.406 4.406 0 01-.462 1.49 4.8 4.8 0 01-.847 1.161 14.941 14.941 0 01-1.05-1.172q-.511-.632-.93-1.271a4.956 4.956 0 001.083-.836 1.473 1.473 0 00.406-1.049 1.346 1.346 0 00-.116-.555 1.4 1.4 0 00-.318-.445 1.394 1.394 0 00-.5-.3 1.861 1.861 0 00-.632-.1 1.657 1.657 0 00-.666.127 1.491 1.491 0 00-.495.341 1.491 1.491 0 00-.313.506 1.746 1.746 0 00-.11.622 1.934 1.934 0 00.148.666 3.7 3.7 0 00.413.775 4.338 4.338 0 00-1.314 1.089 2.186 2.186 0 00-.475 1.374 2.012 2.012 0 00.192.918 1.8 1.8 0 00.517.627 2.145 2.145 0 00.759.363 3.562 3.562 0 00.918.115 3.85 3.85 0 001.223-.211 4.742 4.742 0 001.188-.594q.187.176.418.357l.462.346q.231.165.451.3a4.314 4.314 0 00.381.207.171.171 0 00.149.016.283.283 0 00.107-.082zm-3.168-6.413a.9.9 0 01-.313.7 3.808 3.808 0 01-.775.523 3.545 3.545 0 01-.341-.6 1.348 1.348 0 01-.121-.534.989.989 0 01.044-.28.952.952 0 01.132-.275.691.691 0 01.236-.209.7.7 0 01.35-.084.8.8 0 01.561.214.711.711 0 01.227.545zm.671 4.751a4.26 4.26 0 01-.985.479 3.063 3.063 0 01-.951.16 2.318 2.318 0 01-.6-.077 1.469 1.469 0 01-.5-.236 1.081 1.081 0 01-.335-.418 1.486 1.486 0 01-.121-.632 1.574 1.574 0 01.385-1.034 3.53 3.53 0 011.023-.814l.418.605q.242.341.523.687l.577.682q.291.335.566.598zm11.968-2.463a7.233 7.233 0 00-.132-1.419 3.13 3.13 0 00-.462-1.149 2.264 2.264 0 00-.9-.77 3.3 3.3 0 00-1.452-.28h-2.09q-.2 0-.2.176v6.918a.183.183 0 00.05.143.279.279 0 00.181.044h2.057a3.269 3.269 0 001.463-.286 2.272 2.272 0 00.9-.786 3.168 3.168 0 00.458-1.167 7.626 7.626 0 00.127-1.424zm-.9.088a4.542 4.542 0 01-.193 1.463 2.086 2.086 0 01-.5.841 1.522 1.522 0 01-.682.385 3.074 3.074 0 01-.748.094h-1.355V122.5h1.43a2.658 2.658 0 01.765.11 1.418 1.418 0 01.655.429 2.308 2.308 0 01.456.891 5.379 5.379 0 01.17 1.495zm3.322-3.212a.6.6 0 00-.088-.347q-.088-.127-.385-.127a.442.442 0 00-.38.132.577.577 0 00-.093.341.743.743 0 00.077.346q.077.149.4.148.323-.001.39-.143a.694.694 0 00.077-.35zm-.066 6.6v-4.983q0-.187-.176-.187h-.451a.27.27 0 00-.148.033q-.05.033-.049.154v4.983q0 .187.2.187H132q.181 0 .181-.187zm3.817.044l1.9-5.049q.077-.165-.077-.165h-.605a.149.149 0 00-.1.028.353.353 0 00-.061.115l-1.081 3.058-.187.539q-.077.209-.137.4-.06.191-.072.236h-.022q-.022-.055-.083-.231l-.127-.385-.176-.528-1.1-3.08a.643.643 0 00-.061-.115.136.136 0 00-.116-.038h-.605q-.077 0-.093.055a.2.2 0 00.006.121l1.926 5.05a.251.251 0 00.055.1.171.171 0 00.121.032h.506a.192.192 0 00.189-.143zm3.795-6.644a.6.6 0 00-.088-.347q-.088-.127-.385-.127a.442.442 0 00-.38.132.577.577 0 00-.093.341.743.743 0 00.077.346q.077.149.4.148.323-.001.39-.143a.694.694 0 00.077-.35zm-.066 6.6v-4.983q0-.187-.176-.187h-.453a.27.27 0 00-.148.033q-.05.033-.049.154v4.983q0 .187.2.187h.451q.173 0 .173-.187zm5.808 0v-7.359a.292.292 0 00-.033-.165.175.175 0 00-.143-.044h-.461q-.121 0-.154.049a.3.3 0 00-.033.16v2.376l-.022.011a4.367 4.367 0 00-.831-.242 4 4 0 00-.676-.066 2.594 2.594 0 00-1.056.187 1.571 1.571 0 00-.665.544 2.274 2.274 0 00-.347.885 6.685 6.685 0 00-.1 1.221 7.237 7.237 0 00.084 1.156 2.382 2.382 0 00.292.852 1.4 1.4 0 00.555.528 1.847 1.847 0 00.864.182 2.152 2.152 0 00.561-.077 3.645 3.645 0 00.528-.187 4.3 4.3 0 00.451-.231l.325-.2.033.011v.407q0 .121.049.154a.246.246 0 00.142.035h.462q.173 0 .173-.187zm-.837-4.279v3.166q-.132.077-.363.181-.231.104-.484.2a5.226 5.226 0 01-.511.17 1.74 1.74 0 01-.456.072 1.323 1.323 0 01-.44-.066.606.606 0 01-.313-.275 1.657 1.657 0 01-.187-.589 6.668 6.668 0 01-.06-1.007 6.849 6.849 0 01.06-1 1.854 1.854 0 01.2-.649.816.816 0 01.379-.352 1.458 1.458 0 01.589-.1 5.332 5.332 0 01.743.055 5.985 5.985 0 01.843.194zm3.157-2.321a.6.6 0 00-.088-.347q-.088-.127-.385-.127a.442.442 0 00-.38.132.577.577 0 00-.093.341.743.743 0 00.077.346q.077.149.4.148.323-.001.39-.143a.694.694 0 00.078-.35zm-.066 6.6v-4.983q0-.187-.176-.187h-.451a.27.27 0 00-.148.033q-.05.033-.049.154v4.983q0 .187.2.187h.451q.172 0 .172-.187zm5.786 0v-3.245a6.223 6.223 0 00-.049-.814 1.627 1.627 0 00-.215-.643 1.126 1.126 0 00-.479-.424 1.958 1.958 0 00-.853-.154 2.233 2.233 0 00-.583.077 4.133 4.133 0 00-.545.187 4.275 4.275 0 00-.467.231q-.209.121-.341.209l-.033-.011v-.4q0-.121-.049-.154a.27.27 0 00-.148-.033h-.451q-.176 0-.176.187v4.987q0 .187.176.187h.451q.2 0 .2-.187v-3.894q.121-.066.352-.171.231-.105.495-.2.264-.1.528-.176a1.682 1.682 0 01.462-.077 1.4 1.4 0 01.424.055.536.536 0 01.275.2.936.936 0 01.149.39 3.646 3.646 0 01.044.622l-.015 3.251a.165.165 0 00.187.187h.462q.198 0 .198-.187zm3.377-5.28a2.748 2.748 0 00-1.083.187 1.651 1.651 0 00-.7.55 2.286 2.286 0 00-.374.885 5.828 5.828 0 00-.11 1.194 6.263 6.263 0 00.093 1.133 2.3 2.3 0 00.336.869 1.563 1.563 0 00.655.555 2.49 2.49 0 001.05.194 3.7 3.7 0 00.679-.073 5.611 5.611 0 00.885-.258v.44a1.732 1.732 0 01-.061.49.708.708 0 01-.209.335.911.911 0 01-.4.193 2.733 2.733 0 01-.632.06q-.341 0-.77-.022a7.612 7.612 0 01-.781-.077.394.394 0 00-.187 0 .147.147 0 00-.088.121l-.044.242a.214.214 0 00-.006.127q.017.06.127.1a2.156 2.156 0 00.4.126 4.669 4.669 0 00.462.077q.237.027.479.038t.451.011a3.443 3.443 0 001.122-.149 1.408 1.408 0 00.638-.418 1.372 1.372 0 00.289-.633 4.6 4.6 0 00.066-.808v-4.785a.8.8 0 00-.044-.253.311.311 0 00-.231-.187q-.2-.055-.44-.1-.24-.045-.506-.087-.264-.033-.539-.055t-.528-.022zm-1.387 2.717a3.971 3.971 0 01.1-1.017 1.362 1.362 0 01.3-.583.927.927 0 01.451-.269 2.24 2.24 0 01.556-.066 6.933 6.933 0 01.72.038q.368.039.688.082v3.665a6.715 6.715 0 01-.847.187 4.953 4.953 0 01-.737.066 1.326 1.326 0 01-.572-.11.879.879 0 01-.38-.363 1.9 1.9 0 01-.215-.649 6.1 6.1 0 01-.064-.981zm-92.906 13l.639 1.042 2.937 4.532a.523.523 0 00.11.132.282.282 0 00.175.044h.418a.156.156 0 00.176-.176v-6.919a.212.212 0 00-.044-.16.2.2 0 00-.132-.038h-.462a.215.215 0 00-.143.038.212.212 0 00-.044.16v5.5h-.033l-.583-.924-2.981-4.6a1.01 1.01 0 00-.1-.126.237.237 0 00-.171-.049h-.455q-.176 0-.176.165v6.941q0 .187.2.187h.451a.165.165 0 00.187-.187v-5.565zm10.219 2.714a6.565 6.565 0 00-.1-.891 2 2 0 00-.319-.781 1.687 1.687 0 00-.665-.55 2.6 2.6 0 00-1.133-.209 2.181 2.181 0 00-1.2.286 1.966 1.966 0 00-.671.709 2.621 2.621 0 00-.3.913 6.684 6.684 0 00-.066.885 7.265 7.265 0 00.074 1.03 2.347 2.347 0 00.3.885 1.688 1.688 0 00.676.622 2.584 2.584 0 001.2.237q.2 0 .44-.022t.484-.06q.242-.039.462-.094a2.5 2.5 0 00.374-.121.179.179 0 00.121-.22l-.044-.242q-.022-.11-.083-.132a.4.4 0 00-.17-.011q-.143.022-.335.044-.192.022-.4.038l-.418.033q-.209.016-.374.017a2.258 2.258 0 01-.655-.083.939.939 0 01-.445-.286 1.23 1.23 0 01-.253-.539 4.206 4.206 0 01-.088-.831h3.1a.408.408 0 00.4-.181.882.882 0 00.088-.446zm-.891-.066h-2.695a3.5 3.5 0 01.1-.671 1.462 1.462 0 01.231-.506 1.03 1.03 0 01.4-.325 1.439 1.439 0 01.61-.115 1.481 1.481 0 01.7.143 1.059 1.059 0 01.407.374 1.44 1.44 0 01.193.522 3.445 3.445 0 01.054.58zm4.1-2.365a2.748 2.748 0 00-1.084.187 1.651 1.651 0 00-.7.55 2.286 2.286 0 00-.374.885 5.828 5.828 0 00-.11 1.193 6.263 6.263 0 00.094 1.133 2.3 2.3 0 00.335.869 1.563 1.563 0 00.655.556 2.49 2.49 0 001.05.193 3.7 3.7 0 00.677-.072 5.611 5.611 0 00.885-.259v.44a1.733 1.733 0 01-.06.49.708.708 0 01-.209.336.911.911 0 01-.4.192 2.733 2.733 0 01-.632.061q-.341 0-.77-.022a7.611 7.611 0 01-.781-.077.4.4 0 00-.187 0 .147.147 0 00-.088.121l-.044.242a.214.214 0 00-.005.126q.017.06.127.1a2.156 2.156 0 00.4.127 4.669 4.669 0 00.462.077q.237.028.479.038.242.01.451.011a3.443 3.443 0 001.122-.149 1.408 1.408 0 00.638-.418 1.372 1.372 0 00.286-.638 4.6 4.6 0 00.066-.809v-4.779a.8.8 0 00-.044-.253.311.311 0 00-.228-.184q-.2-.055-.44-.1-.24-.045-.506-.083-.264-.033-.539-.055t-.523-.029zm-1.383 2.717a3.971 3.971 0 01.1-1.017 1.361 1.361 0 01.3-.583.928.928 0 01.451-.269 2.24 2.24 0 01.556-.066 6.933 6.933 0 01.72.038q.368.038.687.082v3.665a6.715 6.715 0 01-.847.187 4.953 4.953 0 01-.737.066 1.326 1.326 0 01-.572-.11.879.879 0 01-.379-.363 1.9 1.9 0 01-.215-.649 6.1 6.1 0 01-.064-.981zm8.25 2.156h.022a.752.752 0 00.236.495.913.913 0 00.566.143 2.341 2.341 0 00.385-.033.3.3 0 00.176-.071.183.183 0 00.044-.127v-.275q0-.132-.187-.143a1.733 1.733 0 01-.209-.028.205.205 0 01-.116-.061.276.276 0 01-.055-.132 1.466 1.466 0 01-.016-.253v-2.43a5.383 5.383 0 00-.055-.8 1.264 1.264 0 00-.259-.616 1.324 1.324 0 00-.594-.4 3.136 3.136 0 00-1.05-.143q-.2 0-.446.011t-.5.038q-.253.028-.484.071a3.108 3.108 0 00-.4.1.4.4 0 00-.16.11.148.148 0 00-.017.132l.066.286q.033.132.22.1t.385-.039l.418-.033q.209-.017.4-.022.191-.005.347-.005a1.629 1.629 0 011.007.231 1.037 1.037 0 01.281.836v.374h-1.512a2.221 2.221 0 00-1.573.457 1.852 1.852 0 00-.476 1.391 1.661 1.661 0 00.341 1.133 1.464 1.464 0 001.144.385 2.861 2.861 0 001.16-.22 8.356 8.356 0 00.911-.462zm.011-1.991v1.285q-.187.11-.424.22t-.49.2a3.859 3.859 0 01-.5.149 2.115 2.115 0 01-.457.055 1.006 1.006 0 01-.665-.165.837.837 0 01-.182-.627 1.082 1.082 0 01.3-.891 1.275 1.275 0 01.8-.231zm5.192 2.244l-.044-.253a.182.182 0 00-.066-.116.323.323 0 00-.176-.016l-.336.028q-.214.016-.3.016a2.309 2.309 0 01-.4-.028.486.486 0 01-.236-.1.362.362 0 01-.115-.2 1.491 1.491 0 01-.028-.319v-3.335h1.221q.121 0 .154-.044a.242.242 0 00.033-.143v-.319a.246.246 0 00-.033-.137q-.033-.049-.154-.05h-1.225v-1.353q0-.22-.187-.165l-.44.121a.321.321 0 00-.137.066.183.183 0 00-.05.143v1.188h-.616q-.187 0-.187.2v.308a.165.165 0 00.187.187h.6v3.586a1.928 1.928 0 00.055.479.9.9 0 00.187.368.836.836 0 00.363.237 1.755 1.755 0 00.583.082q.121 0 .292-.016.171-.016.352-.044.182-.028.341-.066a1.042 1.042 0 00.258-.094.205.205 0 00.104-.211zm1.672-6.446a.6.6 0 00-.088-.347q-.088-.127-.385-.127a.442.442 0 00-.379.132.577.577 0 00-.094.341.743.743 0 00.077.346q.077.149.4.149t.39-.143a.694.694 0 00.079-.351zm-.066 6.6v-4.983q0-.187-.176-.187h-.451a.27.27 0 00-.148.033q-.05.033-.05.154v4.983q0 .187.2.187h.451q.174 0 .174-.187zm3.817.044l1.9-5.049q.077-.165-.077-.165h-.6a.149.149 0 00-.1.028.353.353 0 00-.061.115l-1.084 3.058-.187.539q-.077.209-.138.4-.061.191-.071.236h-.022q-.022-.055-.083-.231l-.127-.385-.176-.528-1.1-3.08a.643.643 0 00-.06-.116.136.136 0 00-.115-.038h-.6q-.077 0-.094.055a.2.2 0 00.005.121l1.925 5.049a.251.251 0 00.055.1.171.171 0 00.121.033h.507a.192.192 0 00.182-.142zm7.051-2.893a6.565 6.565 0 00-.1-.891 2 2 0 00-.319-.781 1.687 1.687 0 00-.665-.55 2.6 2.6 0 00-1.133-.209 2.181 2.181 0 00-1.2.286 1.966 1.966 0 00-.671.709 2.621 2.621 0 00-.3.913 6.684 6.684 0 00-.066.885 7.266 7.266 0 00.071 1.029 2.347 2.347 0 00.3.885 1.688 1.688 0 00.676.622 2.584 2.584 0 001.2.237q.2 0 .44-.022t.484-.06q.242-.039.462-.094a2.5 2.5 0 00.374-.121.179.179 0 00.121-.22l-.044-.242q-.022-.11-.083-.132a.4.4 0 00-.17-.011q-.143.022-.336.044-.193.022-.4.038l-.418.033q-.209.016-.374.017a2.258 2.258 0 01-.655-.083.939.939 0 01-.445-.286 1.23 1.23 0 01-.253-.539 4.206 4.206 0 01-.088-.831h3.1a.408.408 0 00.4-.181.882.882 0 00.092-.445zm-.891-.066h-2.695a3.5 3.5 0 01.1-.671 1.462 1.462 0 01.231-.506 1.03 1.03 0 01.4-.325 1.439 1.439 0 01.611-.115 1.481 1.481 0 01.7.143 1.059 1.059 0 01.407.374 1.44 1.44 0 01.193.522 3.444 3.444 0 01.053.58zm5.94-2.651l.638 1.045 2.937 4.532a.523.523 0 00.11.132.282.282 0 00.176.044h.418a.156.156 0 00.176-.176v-6.919a.212.212 0 00-.044-.16.2.2 0 00-.132-.038h-.461a.215.215 0 00-.143.038.212.212 0 00-.044.16v5.5h-.033l-.583-.924-2.981-4.6a1.01 1.01 0 00-.1-.126.237.237 0 00-.171-.049h-.451q-.176 0-.176.165v6.941q0 .187.2.187h.451a.165.165 0 00.187-.187v-5.565zm10.285 5.566v-4.983a.165.165 0 00-.187-.187h-.451a.165.165 0 00-.187.187v3.883l-.363.176q-.231.11-.5.209-.269.099-.528.176a1.682 1.682 0 01-.462.077 1.452 1.452 0 01-.429-.055.535.535 0 01-.28-.2.93.93 0 01-.149-.385 3.627 3.627 0 01-.044-.627v-3.254q0-.187-.176-.187h-.473a.165.165 0 00-.187.187v3.245a6.223 6.223 0 00.049.814 1.575 1.575 0 00.22.644 1.158 1.158 0 00.489.424 2 2 0 00.858.154 2.233 2.233 0 00.583-.077 3.88 3.88 0 00.539-.187 5.05 5.05 0 00.467-.231q.215-.121.347-.209l.022.022v.385q0 .187.2.187h.451a.165.165 0 00.191-.188zm8.877 0V141.5a5.383 5.383 0 00-.055-.8 1.582 1.582 0 00-.22-.621 1.083 1.083 0 00-.479-.4 2.024 2.024 0 00-.831-.143 2.363 2.363 0 00-1.062.248 7.366 7.366 0 00-.93.544 1.123 1.123 0 00-.479-.589 1.818 1.818 0 00-.94-.2 2.04 2.04 0 00-.517.066 3.22 3.22 0 00-.49.171 4.112 4.112 0 00-.44.225l-.368.22h-.011v-.391q0-.187-.2-.187h-.451q-.176 0-.176.187v4.983q0 .187.176.187h.462a.165.165 0 00.187-.187v-3.894q.187-.1.418-.209.231-.109.468-.2a4.465 4.465 0 01.456-.154 1.542 1.542 0 01.407-.061.7.7 0 01.671.3 1.741 1.741 0 01.165.836l-.005 3.382q0 .187.165.187h.484a.165.165 0 00.187-.187v-3.289q0-.22-.006-.374a1.94 1.94 0 00-.016-.22l.363-.187q.22-.11.462-.209.242-.099.479-.17a1.511 1.511 0 01.434-.072 1.229 1.229 0 01.418.061.539.539 0 01.264.2.917.917 0 01.137.374 3.563 3.563 0 01.039.572v3.311a.165.165 0 00.187.187h.462a.165.165 0 00.185-.184zm5.753-2.53a6.263 6.263 0 00-.097-1.133 2.361 2.361 0 00-.33-.869 1.52 1.52 0 00-.654-.556 2.528 2.528 0 00-1.056-.193 3.786 3.786 0 00-.682.071 5.25 5.25 0 00-.88.259l-.011-.022v-2.386a.236.236 0 00-.038-.154.212.212 0 00-.16-.044h-.459a.213.213 0 00-.148.038.234.234 0 00-.039.16v6.946a.847.847 0 00.039.247.322.322 0 00.225.193 3.259 3.259 0 00.429.115q.242.049.517.083t.555.049q.28.016.534.017a2.781 2.781 0 001.094-.187 1.629 1.629 0 00.693-.544 2.228 2.228 0 00.363-.88 6.19 6.19 0 00.108-1.21zm-.88.1a4.183 4.183 0 01-.1 1.017 1.4 1.4 0 01-.281.583.833.833 0 01-.445.264 2.612 2.612 0 01-.583.061q-.352 0-.721-.028t-.687-.08v-3.666a6.2 6.2 0 01.836-.182 5.4 5.4 0 01.77-.061 1.326 1.326 0 01.572.11.855.855 0 01.374.358 1.854 1.854 0 01.2.649 6.663 6.663 0 01.065.974zm6.325-.418a6.564 6.564 0 00-.1-.891 2 2 0 00-.319-.781 1.687 1.687 0 00-.665-.55 2.6 2.6 0 00-1.133-.209 2.181 2.181 0 00-1.2.286 1.966 1.966 0 00-.671.709 2.621 2.621 0 00-.3.913 6.684 6.684 0 00-.066.885 7.265 7.265 0 00.072 1.029 2.347 2.347 0 00.3.885 1.688 1.688 0 00.677.622 2.584 2.584 0 001.2.237q.2 0 .44-.022t.484-.06q.242-.039.462-.094a2.5 2.5 0 00.377-.124.179.179 0 00.121-.22l-.044-.242q-.022-.11-.082-.132a.4.4 0 00-.171-.011q-.143.022-.336.044-.193.022-.4.038l-.418.033q-.209.016-.374.017a2.258 2.258 0 01-.655-.083.939.939 0 01-.445-.286 1.23 1.23 0 01-.253-.539 4.206 4.206 0 01-.088-.831h3.1a.408.408 0 00.4-.181.882.882 0 00.087-.443zm-.891-.066h-2.695a3.5 3.5 0 01.1-.671 1.462 1.462 0 01.231-.506 1.03 1.03 0 01.4-.325 1.439 1.439 0 01.611-.115 1.481 1.481 0 01.7.143 1.059 1.059 0 01.407.374 1.44 1.44 0 01.192.522 3.445 3.445 0 01.054.579zm4.928-1.716l-.044-.462a.24.24 0 00-.055-.127q-.033-.028-.132-.006a3.892 3.892 0 00-.451.127q-.242.083-.473.187-.231.104-.424.209a2.1 2.1 0 00-.3.192l-.022-.022v-.451q0-.187-.2-.187h-.462q-.176 0-.176.187v4.983q0 .187.176.187h.473a.165.165 0 00.187-.187v-3.883a2.038 2.038 0 01.308-.127q.209-.071.456-.143l.511-.143q.264-.071.484-.115.177-.022.144-.22zm4.334 3.278a1.6 1.6 0 00-.154-.759 1.287 1.287 0 00-.412-.462 1.811 1.811 0 00-.6-.259q-.341-.082-.7-.137-.33-.055-.55-.1a1.169 1.169 0 01-.347-.127.447.447 0 01-.181-.2.812.812 0 01-.055-.33.768.768 0 01.22-.616 1.345 1.345 0 01.836-.187 7.091 7.091 0 01.726.038l.715.071a.516.516 0 00.193-.011.139.139 0 00.093-.11l.044-.264a.181.181 0 00-.11-.231 3.018 3.018 0 00-.4-.115q-.22-.049-.446-.077-.226-.028-.435-.038-.209-.011-.374-.011a2.239 2.239 0 00-1.408.4 1.393 1.393 0 00-.517 1.172 1.328 1.328 0 00.16.693 1.28 1.28 0 00.424.429 2.136 2.136 0 00.61.253 7.155 7.155 0 00.721.143q.33.055.539.11a.864.864 0 01.33.154.5.5 0 01.165.258 1.54 1.54 0 01.044.4.7.7 0 01-.27.61 1.561 1.561 0 01-.885.193q-.143 0-.336-.011-.193-.011-.407-.028-.214-.016-.429-.038t-.38-.044a.359.359 0 00-.16.011q-.06.022-.082.132l-.044.231a.2.2 0 00.121.231 2.279 2.279 0 00.357.115q.2.049.429.083.229.034.456.044.231.011.44.011a3.489 3.489 0 00.764-.082 1.965 1.965 0 00.66-.275 1.408 1.408 0 00.462-.5 1.574 1.574 0 00.173-.771z"/><path data-name="Path 2575" d="M63.013 90.791v-2.629h1.265a2.733 2.733 0 001.16-.215 2.034 2.034 0 00.727-.547 1.9 1.9 0 00.374-.731 3.115 3.115 0 00.1-.787 2.373 2.373 0 00-.182-.963 1.854 1.854 0 00-.5-.682 2.164 2.164 0 00-.753-.407 3.064 3.064 0 00-.926-.13H61.99q-.22 0-.22.209v6.882q0 .209.22.209h.825a.176.176 0 00.159-.06.271.271 0 00.039-.149zm2.365-4.873a1.346 1.346 0 01-.27.853 1.11 1.11 0 01-.929.346h-1.166v-2.343h1.122a1.394 1.394 0 01.9.275 1.051 1.051 0 01.343.869zm3.542 4.873v-3.542a3.032 3.032 0 01.352-.132l.451-.138q.242-.071.5-.132.258-.061.484-.1.176-.033.2-.088a.411.411 0 00.011-.176l-.077-.737q-.022-.143-.088-.176a.274.274 0 00-.176-.011 2.258 2.258 0 00-.429.121q-.231.088-.457.192a3.586 3.586 0 00-.424.231 2.4 2.4 0 00-.319.236l-.028-.025v-.484a.194.194 0 00-.22-.22h-.781q-.209 0-.209.22v4.961a.185.185 0 00.209.209h.792a.185.185 0 00.209-.209zm3.729-2.156h2.915a.468.468 0 00.436-.187.88.88 0 00.1-.484 4.9 4.9 0 00-.1-.885 2.034 2.034 0 00-.346-.792 1.85 1.85 0 00-.71-.566 2.764 2.764 0 00-1.194-.22 2.387 2.387 0 00-1.27.292 1.972 1.972 0 00-.7.72 2.612 2.612 0 00-.3.924 6.806 6.806 0 00-.066.891 6.384 6.384 0 00.082 1.04 2.261 2.261 0 00.336.885 1.775 1.775 0 00.726.616 2.909 2.909 0 001.257.231q.2 0 .44-.022t.484-.055q.242-.033.462-.083a2.551 2.551 0 00.385-.116q.154-.066.181-.143a.389.389 0 00.006-.2l-.066-.361q-.022-.154-.082-.182a.43.43 0 00-.215-.005l-.726.077a6.676 6.676 0 01-.7.044 2.24 2.24 0 01-.583-.066.923.923 0 01-.407-.225.983.983 0 01-.247-.434 2.7 2.7 0 01-.098-.694zm1.1-2.145a1.217 1.217 0 01.556.11.813.813 0 01.33.3 1.224 1.224 0 01.159.424 2.671 2.671 0 01.044.49H72.66a3.832 3.832 0 01.077-.556 1.089 1.089 0 01.182-.418.8.8 0 01.325-.258 1.253 1.253 0 01.505-.092zm5.544 3.157h-.033a1.4 1.4 0 01-.083-.237q-.06-.2-.137-.434l-.187-.594-.88-2.574a.361.361 0 00-.094-.16.285.285 0 00-.17-.039h-.869q-.11 0-.132.066a.229.229 0 00.011.154l1.87 4.95a.425.425 0 00.1.171.322.322 0 00.211.05h.737a.3.3 0 00.2-.055.4.4 0 00.11-.176l1.87-4.95q.088-.209-.132-.209h-.836a.257.257 0 00-.17.044.327.327 0 00-.083.132l-.88 2.552q-.121.341-.209.627l-.143.446a1.469 1.469 0 00-.071.236zm4.719-5.467a.774.774 0 00-.121-.456q-.121-.171-.528-.171a.6.6 0 00-.523.181.76.76 0 00-.126.445 1.261 1.261 0 00.022.237.485.485 0 00.088.2.466.466 0 00.192.143.888.888 0 00.347.055.939.939 0 00.335-.05.468.468 0 00.2-.137.451.451 0 00.094-.2 1.322 1.322 0 00.02-.247zm-.066 6.611v-4.972a.271.271 0 00-.038-.148.176.176 0 00-.16-.061h-.781q-.22 0-.22.209v4.972q0 .209.22.209h.781a.176.176 0 00.16-.06.271.271 0 00.038-.149zm6.039-2.574a5.751 5.751 0 00-.083-.968 2.3 2.3 0 00-.336-.875 1.83 1.83 0 00-.732-.632 2.86 2.86 0 00-1.28-.242 2.438 2.438 0 00-1.259.28 1.981 1.981 0 00-.71.693 2.461 2.461 0 00-.313.886 5.787 5.787 0 00-.072.858 9.063 9.063 0 00.055.979 2.422 2.422 0 00.292.93 1.818 1.818 0 00.71.693 2.631 2.631 0 001.3.27 2.78 2.78 0 001.343-.271 1.841 1.841 0 00.726-.693 2.436 2.436 0 00.3-.93 8.249 8.249 0 00.059-.978zm-1.232.077a5.9 5.9 0 01-.044.77 1.381 1.381 0 01-.176.544.8.8 0 01-.368.319 1.522 1.522 0 01-.611.1 1.282 1.282 0 01-.572-.11.788.788 0 01-.341-.324 1.581 1.581 0 01-.17-.539 5.141 5.141 0 01-.049-.765 5.054 5.054 0 01.049-.753 1.56 1.56 0 01.175-.536.812.812 0 01.347-.33 1.282 1.282 0 01.572-.11 1.416 1.416 0 01.605.11.842.842 0 01.363.325 1.373 1.373 0 01.176.539 5.774 5.774 0 01.044.76zm6.974 2.5V85.83q0-.22-.209-.22h-.781a.192.192 0 00-.165.061.265.265 0 00-.044.159v3.67l-.286.138q-.176.082-.385.165a3.562 3.562 0 01-.424.137 1.585 1.585 0 01-.39.055.915.915 0 01-.407-.077.6.6 0 01-.242-.215.887.887 0 01-.121-.336 2.764 2.764 0 01-.033-.451V85.83q0-.22-.2-.22h-.8q-.209 0-.209.22v3.234a6.887 6.887 0 00.044.8 1.613 1.613 0 00.209.649 1.1 1.1 0 00.49.429 2.1 2.1 0 00.884.158 2.239 2.239 0 00.511-.06 3.314 3.314 0 00.5-.159 4.778 4.778 0 00.457-.215q.215-.116.38-.225l.022.011v.341a.241.241 0 00.044.154.2.2 0 00.165.053h.781a.185.185 0 00.209-.209zm5.2-1.408a1.631 1.631 0 00-.165-.792 1.3 1.3 0 00-.44-.473 2.091 2.091 0 00-.632-.264 7.429 7.429 0 00-.753-.143 2.943 2.943 0 01-.721-.176.412.412 0 01-.216-.421.588.588 0 01.17-.468 1.134 1.134 0 01.7-.148q.308 0 .726.039t.77.082a.43.43 0 00.214-.005q.06-.027.083-.148l.088-.4q.044-.22-.231-.33a2.56 2.56 0 00-.4-.11q-.22-.044-.446-.077t-.445-.044q-.22-.011-.385-.011a2.452 2.452 0 00-1.5.424 1.444 1.444 0 00-.572 1.237 1.431 1.431 0 00.165.731 1.28 1.28 0 00.445.451 2.252 2.252 0 00.644.259 7.577 7.577 0 00.77.143 2.881 2.881 0 01.434.082.8.8 0 01.27.127.4.4 0 01.138.2 1.034 1.034 0 01.038.308.526.526 0 01-.231.478 1.459 1.459 0 01-.759.149q-.143 0-.336-.011-.193-.011-.407-.027-.215-.017-.429-.039t-.39-.055a.379.379 0 00-.2.005q-.066.027-.088.16l-.077.363a.335.335 0 00.022.214.393.393 0 00.219.15 3.536 3.536 0 00.8.181 7.3 7.3 0 00.9.061 3.793 3.793 0 00.833-.088 2.218 2.218 0 00.709-.286 1.486 1.486 0 00.5-.522 1.6 1.6 0 00.188-.809zm2.354.253v-6.185a.185.185 0 00-.209-.209h-.781a.185.185 0 00-.209.209v6.479a1.24 1.24 0 00.247.842 1.126 1.126 0 00.875.281 2.775 2.775 0 00.352-.027 1.141 1.141 0 00.363-.1.211.211 0 00.143-.209l-.044-.561a.17.17 0 00-.06-.11.458.458 0 00-.158-.039.941.941 0 01-.4-.061q-.116-.06-.116-.313zm3.729-.176h-.044l-.55-1.639-.716-2.049q-.044-.121-.088-.143a.378.378 0 00-.154-.022h-.847q-.121 0-.138.066a.26.26 0 00.017.154l1.929 5.115-.693 1.855a.26.26 0 00-.016.154q.016.066.148.066h.748a.328.328 0 00.2-.044.372.372 0 00.1-.154l2.563-7a.3.3 0 00.022-.154q-.011-.066-.143-.066h-.814a.282.282 0 00-.176.044.3.3 0 00-.088.143l-.682 2.024-.168.487-.181.517zm10.442 1.031l-.066-.4q-.022-.143-.088-.165a.439.439 0 00-.2 0q-.341.044-.753.072-.412.028-.666.027a1.628 1.628 0 01-.556-.083.753.753 0 01-.368-.291 1.4 1.4 0 01-.2-.55 5.045 5.045 0 01-.06-.858 2.385 2.385 0 01.264-1.3 1.053 1.053 0 01.935-.385q.286 0 .644.033l.7.066a.716.716 0 00.231-.011q.077-.022.11-.143l.077-.44a.263.263 0 00-.165-.308 2.218 2.218 0 00-.39-.127q-.215-.049-.44-.082t-.451-.044q-.23-.005-.417-.005a2.672 2.672 0 00-1.226.242 1.8 1.8 0 00-.715.632 2.362 2.362 0 00-.33.891 6.178 6.178 0 00-.083 1.007 7.2 7.2 0 00.077 1.072 2.258 2.258 0 00.325.9 1.742 1.742 0 00.715.616 2.811 2.811 0 001.237.231 6.964 6.964 0 00.88-.061 3.131 3.131 0 00.792-.192.336.336 0 00.187-.143.3.3 0 000-.201zm2.244.3v-3.545a3.032 3.032 0 01.352-.132l.451-.138q.242-.071.495-.132.253-.061.484-.1.176-.033.2-.088a.411.411 0 00.011-.176l-.077-.737q-.022-.143-.088-.176a.274.274 0 00-.176-.011 2.258 2.258 0 00-.429.121q-.231.088-.457.192a3.586 3.586 0 00-.424.231 2.4 2.4 0 00-.319.236l-.019-.025v-.484a.194.194 0 00-.22-.22h-.781q-.209 0-.209.22v4.961a.185.185 0 00.205.209h.792a.185.185 0 00.213-.209zm3.729-2.156h2.915a.468.468 0 00.44-.187.88.88 0 00.1-.484 4.9 4.9 0 00-.1-.885 2.034 2.034 0 00-.347-.792 1.85 1.85 0 00-.709-.566 2.764 2.764 0 00-1.194-.22 2.387 2.387 0 00-1.271.292 1.972 1.972 0 00-.7.72 2.612 2.612 0 00-.3.924 6.806 6.806 0 00-.066.891 6.384 6.384 0 00.083 1.04 2.261 2.261 0 00.335.885 1.775 1.775 0 00.726.616 2.909 2.909 0 001.254.228q.2 0 .44-.022t.484-.055q.242-.033.462-.083a2.551 2.551 0 00.385-.116q.154-.066.182-.143a.389.389 0 00.006-.2l-.067-.361q-.022-.154-.082-.182a.43.43 0 00-.215-.005l-.726.077a6.676 6.676 0 01-.7.044 2.24 2.24 0 01-.583-.066.923.923 0 01-.407-.225.983.983 0 01-.248-.434 2.7 2.7 0 01-.097-.694zm1.1-2.145a1.217 1.217 0 01.556.11.813.813 0 01.33.3 1.224 1.224 0 01.16.424 2.671 2.671 0 01.044.49h-2.179a3.832 3.832 0 01.077-.556 1.089 1.089 0 01.182-.418.8.8 0 01.324-.258 1.253 1.253 0 01.506-.095zm6.688 2.057v1.045q-.154.088-.352.182-.198.094-.407.171a2.991 2.991 0 01-.418.121 1.879 1.879 0 01-.385.044.791.791 0 01-.534-.138.669.669 0 01-.148-.5.9.9 0 01.242-.731 1.032 1.032 0 01.66-.193zm.066 1.826l.022.011a.783.783 0 00.325.528 1.191 1.191 0 00.621.143 2.042 2.042 0 00.253-.02q.132-.016.264-.038.264-.044.264-.231v-.462a.143.143 0 00-.044-.121.346.346 0 00-.165-.044 1.136 1.136 0 01-.209-.033.216.216 0 01-.115-.071.324.324 0 01-.055-.143 1.569 1.569 0 01-.017-.258v-2.124a4.833 4.833 0 00-.066-.836 1.3 1.3 0 00-.286-.633 1.417 1.417 0 00-.643-.4 3.665 3.665 0 00-1.139-.144q-.2 0-.445.016t-.5.044q-.253.028-.5.072a2.447 2.447 0 00-.418.11.5.5 0 00-.231.148.245.245 0 00-.022.181l.1.407q.022.121.083.137a.674.674 0 00.225-.005q.165-.011.368-.033.203-.022.407-.033l.4-.022q.193-.011.325-.011a2.944 2.944 0 01.561.044.779.779 0 01.352.154.559.559 0 01.181.28 1.5 1.5 0 01.05.413v.286h-1.409a2.384 2.384 0 00-1.562.434 1.708 1.708 0 00-.506 1.4 2.633 2.633 0 00.072.638 1.2 1.2 0 00.242.489 1.132 1.132 0 00.462.319 2 2 0 00.731.116 3.033 3.033 0 001.083-.2 3.7 3.7 0 00.941-.511zm5.9.209l-.079-.553a.222.222 0 00-.066-.132.18.18 0 00-.132-.022q-.165.022-.39.033-.225.011-.347.011-.22 0-.363-.011a.432.432 0 01-.225-.071.32.32 0 01-.116-.182 1.363 1.363 0 01-.033-.341v-2.739h1.172q.132 0 .171-.049a.262.262 0 00.038-.16v-.55a.266.266 0 00-.038-.154q-.038-.055-.171-.055h-1.174v-1.441q0-.187-.22-.132l-.737.2a.374.374 0 00-.148.072.209.209 0 00-.061.171v1.13h-.56a.2.2 0 00-.165.055.261.261 0 00-.044.165v.539a.237.237 0 00.044.16.216.216 0 00.165.049h.55v2.761a6.526 6.526 0 00.033.671 1.477 1.477 0 00.165.561.916.916 0 00.4.38 1.685 1.685 0 00.752.137q.132 0 .313-.011t.387-.039q.2-.028.4-.071a1.715 1.715 0 00.336-.11.237.237 0 00.139-.275zm1.749-1.947h2.915a.468.468 0 00.44-.187.88.88 0 00.1-.484 4.9 4.9 0 00-.1-.885 2.034 2.034 0 00-.346-.792 1.85 1.85 0 00-.71-.566 2.764 2.764 0 00-1.193-.22 2.387 2.387 0 00-1.271.292 1.972 1.972 0 00-.7.72 2.611 2.611 0 00-.3.924 6.805 6.805 0 00-.066.891 6.384 6.384 0 00.082 1.04 2.261 2.261 0 00.336.885 1.775 1.775 0 00.726.616 2.909 2.909 0 001.249.228q.2 0 .44-.022t.484-.055q.242-.033.462-.083a2.551 2.551 0 00.385-.116q.154-.066.181-.143a.389.389 0 00.006-.2l-.066-.361q-.022-.154-.082-.182a.43.43 0 00-.215-.005l-.726.077a6.676 6.676 0 01-.7.044 2.24 2.24 0 01-.583-.066.923.923 0 01-.407-.225.983.983 0 01-.247-.434 2.7 2.7 0 01-.098-.694zm1.1-2.145a1.217 1.217 0 01.555.11.813.813 0 01.33.3 1.224 1.224 0 01.16.424 2.671 2.671 0 01.044.49h-2.182a3.832 3.832 0 01.077-.556 1.089 1.089 0 01.181-.418.8.8 0 01.325-.258 1.253 1.253 0 01.506-.095zm7.986 4.3v-7.328a.333.333 0 00-.033-.16q-.033-.06-.165-.06h-.781q-.132 0-.171.055a.289.289 0 00-.038.165v2.277q-.011 0-.011.005s0 .006-.011.006a3.9 3.9 0 00-1.368-.253 2.662 2.662 0 00-1.094.193 1.524 1.524 0 00-.666.566 2.424 2.424 0 00-.336.908 7.019 7.019 0 00-.093 1.2 6.975 6.975 0 00.083 1.133 2.509 2.509 0 00.286.853 1.426 1.426 0 00.55.544 1.81 1.81 0 00.885.193 2.056 2.056 0 00.49-.061 3.052 3.052 0 00.479-.159 3.9 3.9 0 00.429-.215q.2-.115.341-.214a.022.022 0 01.017.005.022.022 0 00.017.006v.348a.175.175 0 00.2.2h.792a.185.185 0 00.16-.055.266.266 0 00.034-.154zm-1.2-4.048V89.5q-.121.066-.3.148-.179.082-.391.16-.209.077-.418.132a1.487 1.487 0 01-.379.06 1.025 1.025 0 01-.374-.061.563.563 0 01-.264-.231 1.284 1.284 0 01-.16-.495 5.883 5.883 0 01-.049-.852 5.651 5.651 0 01.055-.864 1.624 1.624 0 01.176-.555.681.681 0 01.33-.3 1.3 1.3 0 01.506-.088 4.58 4.58 0 01.577.039 4.7 4.7 0 01.688.15zm3.63 3.7a.8.8 0 00-.126-.468q-.127-.181-.545-.181a.627.627 0 00-.539.187.781.781 0 00-.132.462 1.323 1.323 0 00.022.248.491.491 0 00.093.209.482.482 0 00.2.148.932.932 0 00.353.05.9.9 0 00.341-.055.482.482 0 00.2-.148.55.55 0 00.1-.209 1.066 1.066 0 00.03-.249zm0-3.7a.8.8 0 00-.126-.468q-.127-.181-.545-.181a.627.627 0 00-.539.187.781.781 0 00-.132.462 1.351 1.351 0 00.022.242.493.493 0 00.093.215.482.482 0 00.2.148.932.932 0 00.352.055.9.9 0 00.341-.055.482.482 0 00.2-.148.55.55 0 00.1-.209 1.066 1.066 0 00.031-.25z" fill="#868686"/><path data-name="Path 1942" d="M60.427 108.478h188.36" fill="none" stroke="#e8e8e8" stroke-width=".5"/><path data-name="Path 1943" d="M60.427 159.492h188.36" fill="none" stroke="#e8e8e8" stroke-width=".5"/><g data-name="Group 2021" transform="translate(228.131 123)"><circle data-name="Ellipse 186" cx="9" cy="9" r="9" transform="translate(-.131)" fill="#59408f"/><g data-name="Group 2023" fill="none" stroke="#fff" stroke-linecap="round"><path data-name="Path 1944" d="M8.509 4.753v9.021"/><path data-name="Path 1945" d="M13.04 9.263H3.978"/></g></g><path data-name="Path 1936" d="M198.742 127.726l-.624-.623a1.743 1.743 0 00-2.4 0l-7.3 7.256v3.069l2.969-.006 7.347-7.313a1.685 1.685 0 00.01-2.383zm-1.387 2.968l-4.981 4.958-.908-.87 4.984-4.961zm-6.3 3.7l-.951-.911 4.99-4.963.946.912zm.1 2.468h-2.169v-2.269l.718-.714 2.266 2.172zm7.182-7.149l-.587.585-2.257-2.176.624-.62a1.161 1.161 0 011.6 0l.624.623a1.123 1.123 0 01.001 1.588z"/><g data-name="Group 2019"><path data-name="Path 1937" d="M213.608 130.162h.361a.315.315 0 100-.629h-.361a.315.315 0 100 .629z"/><path data-name="Path 1938" d="M215.775 127.579h-1.377a1.537 1.537 0 00-1.516-1.465h-1.81a1.535 1.535 0 00-1.515 1.465H208.3a1.289 1.289 0 00-1.275 1.291v.488a.8.8 0 00.632.78l.612 6.649a1.277 1.277 0 001.27 1.175h4.991a1.275 1.275 0 001.275-1.175l.611-6.649a.8.8 0 00.631-.78v-.488a1.29 1.29 0 00-1.272-1.291zm-5.594 0a.906.906 0 01.892-.836h1.808a.9.9 0 01.891.836zm2.339 2.583a.315.315 0 100-.629h-4.7a.174.174 0 01-.171-.174v-.49a.661.661 0 01.652-.661h7.474a.662.662 0 01.654.662v.488a.173.173 0 01-.17.173h-.123a.321.321 0 00-.309.284l-.636 6.923a.661.661 0 01-.653.606h-5a.662.662 0 01-.653-.607l-.6-6.577z"/><path data-name="Path 1939" d="M210.091 136.273h.018a.312.312 0 00.311-.292.112.112 0 000-.032v-4.638a.313.313 0 00-.311-.315.313.313 0 00-.31.314v4.634a.305.305 0 00.079.224.311.311 0 00.213.105z"/><path data-name="Path 1940" d="M212.021 136.273h.018a.313.313 0 00.311-.292.135.135 0 000-.032v-4.638a.309.309 0 00-.09-.221.314.314 0 00-.222-.093.313.313 0 00-.31.314v4.635a.312.312 0 00.293.327z"/><path data-name="Path 1941" d="M213.967 130.997a.313.313 0 00-.31.314v4.634a.312.312 0 00.293.327h.018a.307.307 0 00.208-.08.3.3 0 00.1-.212.1.1 0 000-.032v-4.638a.313.313 0 00-.309-.313z"/></g><g data-name="Group 2164"><g data-name="Group 2014"><rect data-name="Rectangle 1" width="141" height="37" rx="18.5" transform="translate(11 23)" fill="#fac76b"/></g><path data-name="Path 2577" d="M53.146 35.62a3.582 3.582 0 00-1.834.413 2.9 2.9 0 00-1.078 1.085 4.511 4.511 0 00-.511 1.547 11.957 11.957 0 00-.133 1.8 10.633 10.633 0 00.14 1.75 4.13 4.13 0 00.532 1.485 2.879 2.879 0 001.085 1.027 3.686 3.686 0 001.8.385q.21 0 .532-.021.322-.021.679-.063.357-.042.707-.112a2.881 2.881 0 00.6-.182q.14-.056.161-.126a.351.351 0 00-.007-.182l-.07-.364a.547.547 0 00-.077-.133q-.049-.063-.2-.035-.5.07-1.092.133a11.571 11.571 0 01-1.232.063 2.3 2.3 0 01-1.246-.3 2.037 2.037 0 01-.735-.8 3.492 3.492 0 01-.343-1.162 10.718 10.718 0 01-.084-1.358 14.574 14.574 0 01.068-1.47 3.645 3.645 0 01.322-1.218 2 2 0 01.728-.833 2.348 2.348 0 011.288-.308 12.446 12.446 0 011.254.059q.623.063 1.085.133.14.028.189-.028a.436.436 0 00.077-.126l.084-.392a.257.257 0 000-.168.337.337 0 00-.182-.14 3.6 3.6 0 00-.63-.182q-.35-.07-.7-.112-.35-.042-.658-.056-.309-.009-.519-.009zm7.672 3.248l-.056-.588a.305.305 0 00-.07-.161q-.042-.035-.168-.007a4.953 4.953 0 00-.574.161q-.308.105-.6.238t-.539.266a2.666 2.666 0 00-.385.245l-.028-.028v-.574q0-.238-.252-.238h-.588q-.224 0-.224.238v6.342q0 .238.224.238h.6a.21.21 0 00.242-.238V39.82a2.594 2.594 0 01.392-.161q.266-.091.581-.182l.651-.182q.336-.091.616-.147.22-.028.178-.28zm6.3 2.268A8.355 8.355 0 0066.985 40a2.544 2.544 0 00-.406-.994 2.147 2.147 0 00-.847-.7 3.315 3.315 0 00-1.442-.266 2.775 2.775 0 00-1.526.364 2.5 2.5 0 00-.854.9 3.336 3.336 0 00-.378 1.162 8.507 8.507 0 00-.084 1.134 9.247 9.247 0 00.091 1.309 2.987 2.987 0 00.385 1.127 2.149 2.149 0 00.861.791 3.289 3.289 0 001.533.3q.252 0 .56-.028.308-.028.616-.077t.588-.119a3.181 3.181 0 00.476-.154.227.227 0 00.154-.28l-.056-.308q-.028-.14-.105-.168a.51.51 0 00-.217-.014q-.182.028-.427.056t-.511.049l-.532.042q-.266.021-.476.021a2.873 2.873 0 01-.833-.1 1.2 1.2 0 01-.567-.364 1.565 1.565 0 01-.322-.686 5.353 5.353 0 01-.112-1.057H66.5a.52.52 0 00.511-.231 1.123 1.123 0 00.107-.573zm-1.134-.084h-3.43a4.459 4.459 0 01.126-.852 1.861 1.861 0 01.294-.644 1.31 1.31 0 01.511-.413 1.832 1.832 0 01.777-.147 1.884 1.884 0 01.9.182 1.348 1.348 0 01.518.476 1.832 1.832 0 01.245.665 4.384 4.384 0 01.059.733zm6.8 3.192h.028a.957.957 0 00.3.63 1.162 1.162 0 00.721.182 2.979 2.979 0 00.49-.042.388.388 0 00.224-.091.233.233 0 00.056-.161v-.35q0-.168-.238-.182a2.2 2.2 0 01-.265-.035.261.261 0 01-.147-.077.351.351 0 01-.07-.168 1.866 1.866 0 01-.021-.322v-3.094a6.851 6.851 0 00-.062-1.022 1.609 1.609 0 00-.329-.784 1.685 1.685 0 00-.756-.5 3.992 3.992 0 00-1.337-.182q-.252 0-.567.014-.315.014-.637.049t-.616.091a3.956 3.956 0 00-.5.126.5.5 0 00-.2.14.189.189 0 00-.021.168l.084.364q.042.168.28.126.238-.042.49-.049l.532-.042q.266-.021.511-.028.245-.007.441-.007a2.073 2.073 0 011.281.294 1.32 1.32 0 01.344 1.06v.476h-1.93a2.827 2.827 0 00-2 .581 2.358 2.358 0 00-.6 1.771 2.113 2.113 0 00.43 1.442 1.863 1.863 0 001.456.49 3.642 3.642 0 001.477-.28 10.635 10.635 0 001.155-.588zm.016-2.534v1.638q-.238.14-.539.28-.301.14-.623.259a4.912 4.912 0 01-.638.189 2.692 2.692 0 01-.581.07 1.28 1.28 0 01-.847-.21 1.065 1.065 0 01-.231-.8A1.377 1.377 0 0169.722 42a1.622 1.622 0 011.022-.294zm6.61 2.856l-.056-.322a.232.232 0 00-.084-.144.411.411 0 00-.224-.021l-.427.035q-.273.021-.385.021a2.938 2.938 0 01-.511-.035.618.618 0 01-.3-.133.461.461 0 01-.147-.252 1.9 1.9 0 01-.035-.406v-4.245h1.554q.154 0 .2-.056a.308.308 0 00.042-.182v-.406a.313.313 0 00-.042-.175q-.042-.063-.2-.063H77.24V36.46q0-.28-.238-.21l-.56.154a.409.409 0 00-.175.084.232.232 0 00-.067.182v1.512h-.78q-.238 0-.238.252v.392a.21.21 0 00.238.238h.77v4.564a2.453 2.453 0 00.07.609 1.146 1.146 0 00.24.469 1.064 1.064 0 00.462.3 2.234 2.234 0 00.738.106q.154 0 .371-.021t.448-.056q.231-.035.434-.084a1.326 1.326 0 00.329-.119.261.261 0 00.128-.266zm6.272-3.43A8.355 8.355 0 0085.549 40a2.544 2.544 0 00-.406-.994 2.147 2.147 0 00-.847-.7 3.315 3.315 0 00-1.442-.264 2.775 2.775 0 00-1.526.364 2.5 2.5 0 00-.854.9 3.336 3.336 0 00-.374 1.165 8.507 8.507 0 00-.088 1.129 9.247 9.247 0 00.088 1.307 2.987 2.987 0 00.388 1.127 2.149 2.149 0 00.861.791 3.289 3.289 0 001.533.3q.252 0 .56-.028.308-.028.616-.076.308-.049.588-.119a3.181 3.181 0 00.476-.154.227.227 0 00.154-.28l-.056-.308q-.028-.14-.105-.168a.51.51 0 00-.215-.014q-.182.028-.427.056t-.513.049l-.532.042q-.266.021-.476.021a2.873 2.873 0 01-.833-.1 1.2 1.2 0 01-.567-.364 1.565 1.565 0 01-.322-.691 5.353 5.353 0 01-.112-1.057h3.948a.52.52 0 00.511-.234 1.123 1.123 0 00.105-.564zm-1.134-.084h-3.43a4.459 4.459 0 01.126-.852 1.861 1.861 0 01.294-.644 1.31 1.31 0 01.511-.413 1.832 1.832 0 01.777-.147 1.884 1.884 0 01.9.182 1.348 1.348 0 01.518.476 1.832 1.832 0 01.245.665 4.384 4.384 0 01.059.733zm13.524 4.942l.266-.574a.283.283 0 00.014-.154q-.014-.084-.126-.112l-1.806-.504a2.6 2.6 0 00.889-.819 3.869 3.869 0 00.5-1.092 6.31 6.31 0 00.214-1.239q.049-.644.049-1.274a11.767 11.767 0 00-.119-1.68 3.986 3.986 0 00-.5-1.477 2.909 2.909 0 00-1.106-1.057 3.886 3.886 0 00-1.911-.406 3.773 3.773 0 00-1.372.224 3.1 3.1 0 00-.973.588 2.83 2.83 0 00-.637.847 4.895 4.895 0 00-.364.994 6.481 6.481 0 00-.168 1.022q-.042.511-.042.945 0 .56.035 1.134a6.818 6.818 0 00.161 1.12 4.963 4.963 0 00.357 1.029 2.7 2.7 0 00.623.84 2.878 2.878 0 00.973.567 4.157 4.157 0 001.407.21h.161a.98.98 0 00.161-.014l2.968 1.05a.24.24 0 00.346-.168zm-1.092-5.628a8.636 8.636 0 01-.133 1.589 3.533 3.533 0 01-.427 1.19 2 2 0 01-.784.742 2.552 2.552 0 01-1.2.259 2.324 2.324 0 01-1.183-.273 2.014 2.014 0 01-.753-.773 3.571 3.571 0 01-.392-1.19A9.745 9.745 0 0192 40.366a9.5 9.5 0 01.119-1.582 3.685 3.685 0 01.4-1.2 1.963 1.963 0 01.749-.763 2.342 2.342 0 011.169-.266 2.68 2.68 0 011.232.252 1.946 1.946 0 01.784.735 3.347 3.347 0 01.413 1.2 9.952 9.952 0 01.114 1.624zm8.386 4.4V38.42a.21.21 0 00-.238-.238h-.574a.21.21 0 00-.238.238v4.942l-.462.224q-.294.14-.63.266t-.672.224a2.14 2.14 0 01-.588.1 1.849 1.849 0 01-.546-.07.681.681 0 01-.357-.252 1.183 1.183 0 01-.189-.49 4.615 4.615 0 01-.056-.8V38.42q0-.238-.224-.238h-.6a.21.21 0 00-.238.238v4.13a7.92 7.92 0 00.063 1.036 2 2 0 00.28.819 1.473 1.473 0 00.623.539 2.54 2.54 0 001.092.2 2.842 2.842 0 00.742-.1 4.938 4.938 0 00.684-.244 6.428 6.428 0 00.595-.294q.273-.154.441-.266l.028.028v.49q0 .238.252.238h.574a.21.21 0 00.238-.234zm2.94-8.4a.761.761 0 00-.112-.441q-.112-.161-.49-.161a.562.562 0 00-.483.168.734.734 0 00-.119.434.945.945 0 00.1.441q.1.189.5.189t.5-.182a.884.884 0 00.104-.452zm-.084 8.4V38.42q0-.238-.224-.238h-.574a.344.344 0 00-.189.042q-.063.042-.063.2v6.338q0 .238.252.238H108q.222 0 .222-.238zm1.498-.366v.4q0 .2.21.2h4.648a.21.21 0 00.238-.238v-.532q0-.224-.252-.224h-3.514l3.57-4.732a.594.594 0 00.14-.392v-.5q0-.14-.07-.168a.5.5 0 00-.182-.028h-4.354q-.238 0-.238.21v.5a.21.21 0 00.238.238h3.388l-3.7 4.858a.657.657 0 00-.122.408z" fill="#fff"/></g><g filter="url(#b)"><rect data-name="Rectangle 370" width="72.167" height="45.558" rx="7" transform="translate(211.08 13.5)" fill="#fff" y="33.442"/></g><path data-name="Path 2574" d="M233.28 78.624a2.179 2.179 0 00-1.344.376 1.328 1.328 0 00-.5 1.132 1.151 1.151 0 00.184.616 1.141 1.141 0 00.488.44 1.352 1.352 0 00-.636.528 1.54 1.54 0 00-.212.824 1.58 1.58 0 00.14.7 1.225 1.225 0 00.4.472 1.8 1.8 0 00.628.272 3.588 3.588 0 00.832.088 3.008 3.008 0 00.832-.108 2.03 2.03 0 00.644-.3 1.33 1.33 0 00.412-.484 1.429 1.429 0 00.144-.648 1.454 1.454 0 00-.236-.836 1.306 1.306 0 00-.652-.5v-.016a1.184 1.184 0 00.3-.188 1.084 1.084 0 00.224-.26 1.316 1.316 0 00.136-.3 1.019 1.019 0 00.048-.3 1.592 1.592 0 00-.132-.676 1.22 1.22 0 00-.38-.472 1.643 1.643 0 00-.58-.272 2.935 2.935 0 00-.74-.088zm.9 1.52a.574.574 0 01-.2.456 1.459 1.459 0 01-.708.256 3.281 3.281 0 01-.372-.1 1.173 1.173 0 01-.3-.14.622.622 0 01-.192-.2.536.536 0 01-.068-.276.707.707 0 01.212-.552 1.076 1.076 0 01.728-.188 1.138 1.138 0 01.648.172.638.638 0 01.256.572zm.172 2.356a.651.651 0 01-.092.344.8.8 0 01-.24.252 1.119 1.119 0 01-.348.152 1.647 1.647 0 01-.416.052 1.876 1.876 0 01-.412-.044 1 1 0 01-.344-.148.7.7 0 01-.232-.26.835.835 0 01-.084-.392.857.857 0 01.092-.416.74.74 0 01.244-.268 1.307 1.307 0 01.332-.156q.18-.056.364-.1.24.056.444.124a1.338 1.338 0 01.36.18.818.818 0 01.244.272.822.822 0 01.088.408zm4.584.72v-4.372q0-.16-.152-.16h-.6q-.152 0-.152.16v5.008q0 .144.16.144h3.024q.152 0 .152-.144v-.5q0-.136-.144-.136zm3.6-.936h2.12a.34.34 0 00.32-.136.64.64 0 00.072-.352 3.564 3.564 0 00-.076-.644 1.479 1.479 0 00-.252-.576 1.345 1.345 0 00-.52-.416 2.01 2.01 0 00-.864-.16 1.736 1.736 0 00-.924.212 1.434 1.434 0 00-.512.524 1.9 1.9 0 00-.22.672 4.95 4.95 0 00-.048.648 4.643 4.643 0 00.06.756 1.645 1.645 0 00.244.644 1.291 1.291 0 00.528.448 2.116 2.116 0 00.92.168q.144 0 .32-.016.176-.016.352-.04t.336-.06a1.855 1.855 0 00.28-.084q.112-.048.132-.1a.283.283 0 000-.144l-.044-.268q-.016-.112-.06-.132a.313.313 0 00-.156 0l-.528.056a4.855 4.855 0 01-.512.032 1.629 1.629 0 01-.424-.048.671.671 0 01-.3-.164.715.715 0 01-.18-.316 1.967 1.967 0 01-.064-.508zm.8-1.56a.885.885 0 01.4.08.591.591 0 01.24.216.89.89 0 01.116.308 1.943 1.943 0 01.032.356h-1.58a2.787 2.787 0 01.056-.4.792.792 0 01.132-.3.584.584 0 01.236-.188.911.911 0 01.368-.076zm5.176 2.1a1.186 1.186 0 00-.12-.576.946.946 0 00-.32-.344 1.521 1.521 0 00-.46-.192 5.4 5.4 0 00-.548-.1 2.14 2.14 0 01-.524-.128.3.3 0 01-.156-.3.428.428 0 01.124-.34.824.824 0 01.508-.108q.224 0 .528.028.304.028.56.06a.313.313 0 00.156 0q.044-.02.06-.108l.064-.288q.032-.16-.168-.24a1.862 1.862 0 00-.288-.08q-.16-.032-.324-.056t-.324-.032q-.16-.02-.28-.02a1.784 1.784 0 00-1.088.308 1.05 1.05 0 00-.416.9 1.041 1.041 0 00.12.532.931.931 0 00.324.328 1.638 1.638 0 00.468.188 5.51 5.51 0 00.56.1 2.1 2.1 0 01.316.06.584.584 0 01.2.092.289.289 0 01.1.144.752.752 0 01.028.224.383.383 0 01-.168.348 1.061 1.061 0 01-.552.108q-.1 0-.244-.008l-.3-.02q-.156-.004-.312-.024t-.284-.04a.276.276 0 00-.144 0q-.048.02-.064.116l-.056.264a.243.243 0 00.012.16.286.286 0 00.152.108 2.572 2.572 0 00.588.132 5.309 5.309 0 00.66.044 2.758 2.758 0 00.6-.064 1.613 1.613 0 00.516-.208 1.081 1.081 0 00.364-.38 1.163 1.163 0 00.132-.588zm3.48 0a1.186 1.186 0 00-.12-.576.946.946 0 00-.32-.344 1.521 1.521 0 00-.46-.192 5.4 5.4 0 00-.548-.1 2.14 2.14 0 01-.524-.128.3.3 0 01-.156-.3.428.428 0 01.124-.34.824.824 0 01.508-.108q.224 0 .528.028.304.028.56.06a.313.313 0 00.156 0q.044-.02.06-.108l.064-.288q.032-.16-.168-.24a1.862 1.862 0 00-.288-.08q-.16-.032-.324-.056t-.324-.032q-.16-.02-.28-.02a1.784 1.784 0 00-1.088.308 1.05 1.05 0 00-.416.9 1.041 1.041 0 00.12.532.931.931 0 00.324.328 1.638 1.638 0 00.468.188 5.51 5.51 0 00.56.1 2.1 2.1 0 01.316.06.584.584 0 01.2.092.289.289 0 01.1.144.752.752 0 01.028.224.383.383 0 01-.168.348 1.061 1.061 0 01-.552.108q-.1 0-.244-.008l-.3-.02q-.156-.004-.312-.024t-.284-.04a.276.276 0 00-.144 0q-.048.02-.064.116l-.056.264a.243.243 0 00.016.156.286.286 0 00.152.108 2.572 2.572 0 00.584.136 5.309 5.309 0 00.656.044 2.758 2.758 0 00.6-.064 1.613 1.613 0 00.516-.208 1.081 1.081 0 00.364-.38 1.163 1.163 0 00.136-.588zm3.952-.848a4.183 4.183 0 00-.06-.7 1.673 1.673 0 00-.244-.636 1.331 1.331 0 00-.532-.46 2.08 2.08 0 00-.932-.18 1.773 1.773 0 00-.916.2 1.441 1.441 0 00-.516.5 1.79 1.79 0 00-.228.644 4.209 4.209 0 00-.052.624 6.592 6.592 0 00.04.712 1.762 1.762 0 00.212.676 1.323 1.323 0 00.516.5 1.914 1.914 0 00.944.2 2.022 2.022 0 00.976-.2 1.339 1.339 0 00.528-.5 1.772 1.772 0 00.22-.676 6 6 0 00.044-.704zm-.9.056a4.292 4.292 0 01-.032.56 1 1 0 01-.128.4.584.584 0 01-.268.232 1.107 1.107 0 01-.444.076.932.932 0 01-.416-.08.573.573 0 01-.248-.236 1.15 1.15 0 01-.124-.392 3.739 3.739 0 01-.036-.556 3.675 3.675 0 01.036-.548 1.134 1.134 0 01.128-.4.591.591 0 01.252-.24.932.932 0 01.416-.08 1.03 1.03 0 01.44.08.612.612 0 01.264.236 1 1 0 01.128.392 4.2 4.2 0 01.036.556zm4.876 1.816v-2.32a5.039 5.039 0 00-.032-.58 1.245 1.245 0 00-.152-.484.865.865 0 00-.352-.332 1.371 1.371 0 00-.64-.124 1.68 1.68 0 00-.376.044 2.366 2.366 0 00-.368.116 3.476 3.476 0 00-.332.156 2.517 2.517 0 00-.268.164.016.016 0 01-.012 0 .016.016 0 00-.012 0v-.24q0-.16-.152-.16h-.568q-.152 0-.152.16v3.6a.134.134 0 00.152.152h.568a.134.134 0 00.152-.152v-2.672q.08-.04.216-.1.136-.06.292-.12a2.82 2.82 0 01.312-.1 1.128 1.128 0 01.276-.04.473.473 0 01.46.216 1.2 1.2 0 01.116.568l-.008 2.248a.134.134 0 00.152.152h.576a.147.147 0 00.12-.04.175.175 0 00.032-.112zm3.58-1.024a1.186 1.186 0 00-.12-.576.946.946 0 00-.32-.344 1.521 1.521 0 00-.46-.192 5.4 5.4 0 00-.548-.1 2.14 2.14 0 01-.524-.128.3.3 0 01-.156-.3.428.428 0 01.124-.34.824.824 0 01.504-.116q.224 0 .528.028.304.028.56.06a.313.313 0 00.156 0q.044-.02.06-.108l.064-.288q.032-.16-.168-.24a1.862 1.862 0 00-.288-.08q-.16-.032-.324-.056t-.324-.032q-.164-.012-.28-.012a1.784 1.784 0 00-1.088.308 1.05 1.05 0 00-.416.9 1.041 1.041 0 00.12.532.931.931 0 00.324.328 1.638 1.638 0 00.468.188 5.51 5.51 0 00.56.1 2.1 2.1 0 01.316.06.584.584 0 01.2.092.289.289 0 01.1.144.752.752 0 01.028.224.383.383 0 01-.168.348 1.061 1.061 0 01-.552.108q-.1 0-.244-.008l-.3-.02q-.156-.004-.312-.024t-.284-.04a.276.276 0 00-.144 0q-.048.02-.064.116l-.056.264a.243.243 0 00.016.156.286.286 0 00.152.108 2.572 2.572 0 00.584.132 5.309 5.309 0 00.656.044 2.758 2.758 0 00.6-.06 1.613 1.613 0 00.52-.208 1.081 1.081 0 00.364-.38 1.163 1.163 0 00.136-.588z"/><g filter="url(#c)"><path data-name="Rectangle 629" d="M218.08 13.5h58.167a7 7 0 017 7v51.39H211.08V20.5a7 7 0 017-7z" fill="#59408f"/></g><path data-name="Path 2573" d="M238.851 59.3a2.3 2.3 0 00-.036-.382 1.52 1.52 0 00-.135-.418 1.392 1.392 0 00-.27-.374 1.106 1.106 0 00-.441-.261l-.009-.015a1.161 1.161 0 00.355-.266 1.4 1.4 0 00.221-.329 1.384 1.384 0 00.112-.342 1.671 1.671 0 00.031-.3 1.515 1.515 0 00-.454-1.152 1.9 1.9 0 00-1.355-.432h-2.06q-.18 0-.18.171v5.629a.182.182 0 00.041.126.21.21 0 00.157.045h2.286a1.9 1.9 0 00.666-.117 1.655 1.655 0 00.553-.338 1.6 1.6 0 00.379-.535 1.738 1.738 0 00.139-.71zm-1.062-.064a1.351 1.351 0 01-.04.337.662.662 0 01-.148.279.75.75 0 01-.288.194 1.219 1.219 0 01-.45.072h-1.216v-1.782h1.215a.86.86 0 01.707.27.966.966 0 01.22.63zm-.171-2.536a.736.736 0 01-.229.553.792.792 0 01-.572.221h-1.17v-1.568h1.071a.909.909 0 01.689.225.8.8 0 01.211.569zm3.1-1.278a.633.633 0 00-.1-.373q-.1-.14-.432-.14a.5.5 0 00-.427.148.622.622 0 00-.1.365 1.032 1.032 0 00.018.193.4.4 0 00.072.167.381.381 0 00.151.118.727.727 0 00.283.045.768.768 0 00.274-.045.383.383 0 00.162-.112.369.369 0 00.081-.166 1.082 1.082 0 00.014-.202zm-.058 5.407v-4.068a.222.222 0 00-.031-.122.144.144 0 00-.129-.049h-.641q-.18 0-.18.171v4.068q0 .171.18.171h.641a.144.144 0 00.13-.049.222.222 0 00.03-.122zm4.74-2.106a4.706 4.706 0 00-.067-.792 1.882 1.882 0 00-.275-.716 1.5 1.5 0 00-.6-.517 2.34 2.34 0 00-1.049-.2 2 2 0 00-1.03.229 1.621 1.621 0 00-.579.573 2.014 2.014 0 00-.256.724 4.735 4.735 0 00-.059.7 7.415 7.415 0 00.045.8 1.982 1.982 0 00.239.761 1.488 1.488 0 00.581.567 2.153 2.153 0 001.062.22 2.274 2.274 0 001.1-.22 1.507 1.507 0 00.594-.567 1.993 1.993 0 00.248-.761 6.749 6.749 0 00.046-.801zm-1 .063a4.829 4.829 0 01-.036.63 1.13 1.13 0 01-.144.446.657.657 0 01-.3.261 1.245 1.245 0 01-.5.085 1.049 1.049 0 01-.468-.09.644.644 0 01-.279-.266 1.294 1.294 0 01-.139-.441 4.206 4.206 0 01-.041-.626 4.135 4.135 0 01.041-.617 1.276 1.276 0 01.144-.445.665.665 0 01.283-.27 1.049 1.049 0 01.468-.09 1.159 1.159 0 01.495.09.689.689 0 01.3.266 1.123 1.123 0 01.144.441 4.724 4.724 0 01.032.626zm2.781 1.1v-5.06a.151.151 0 00-.171-.171h-.639a.151.151 0 00-.171.171v5.3a1.015 1.015 0 00.2.689.921.921 0 00.715.23 2.27 2.27 0 00.285-.023.934.934 0 00.3-.086.173.173 0 00.117-.171l-.036-.459a.139.139 0 00-.049-.09.375.375 0 00-.132-.026.77.77 0 01-.328-.049q-.096-.05-.096-.257zm4.919-1.163a4.705 4.705 0 00-.067-.792 1.882 1.882 0 00-.274-.716 1.5 1.5 0 00-.6-.517 2.34 2.34 0 00-1.049-.2 2 2 0 00-1.031.229 1.621 1.621 0 00-.58.567 2.014 2.014 0 00-.257.724 4.735 4.735 0 00-.059.7 7.416 7.416 0 00.045.8 1.982 1.982 0 00.238.761 1.488 1.488 0 00.581.567 2.153 2.153 0 001.062.22 2.274 2.274 0 001.1-.22 1.507 1.507 0 00.591-.561 1.993 1.993 0 00.247-.761 6.749 6.749 0 00.053-.801zm-1.008.063a4.829 4.829 0 01-.036.63 1.13 1.13 0 01-.144.446.657.657 0 01-.3.261 1.245 1.245 0 01-.5.085 1.049 1.049 0 01-.468-.09.644.644 0 01-.279-.266 1.294 1.294 0 01-.139-.441 4.206 4.206 0 01-.04-.626 4.135 4.135 0 01.04-.617 1.276 1.276 0 01.144-.445.665.665 0 01.283-.27 1.049 1.049 0 01.468-.09 1.159 1.159 0 01.5.09.689.689 0 01.3.266 1.123 1.123 0 01.144.441 4.724 4.724 0 01.026.626zm3.59-2.286a2.468 2.468 0 00-.958.162 1.439 1.439 0 00-.608.463 1.832 1.832 0 00-.315.729 4.669 4.669 0 00-.09.958 4.994 4.994 0 00.076.914 1.8 1.8 0 00.279.7 1.338 1.338 0 00.553.455 2.157 2.157 0 00.9.162 3.066 3.066 0 00.492-.043 3.4 3.4 0 00.616-.171v.3a1.417 1.417 0 01-.041.36.484.484 0 01-.148.248.683.683 0 01-.293.14 2.047 2.047 0 01-.472.045q-.261 0-.6-.022-.339-.022-.642-.072a.462.462 0 00-.185 0q-.058.018-.076.126l-.072.333a.222.222 0 00.009.139q.027.067.171.122a2.5 2.5 0 00.689.162 6.992 6.992 0 00.76.045 3.1 3.1 0 001.021-.135 1.275 1.275 0 00.571-.378 1.2 1.2 0 00.252-.576 4.5 4.5 0 00.054-.72v-3.807a.7.7 0 00-.041-.239.293.293 0 00-.2-.167 4.629 4.629 0 00-.8-.171 6.75 6.75 0 00-.902-.062zm-.945 2.232a2.687 2.687 0 01.076-.711.955.955 0 01.212-.41.652.652 0 01.315-.184 1.592 1.592 0 01.387-.045q.216 0 .455.023.239.023.445.058v2.565a4.066 4.066 0 01-.553.117 3.508 3.508 0 01-.464.036 1.006 1.006 0 01-.4-.072.59.59 0 01-.27-.238 1.266 1.266 0 01-.153-.446 4.062 4.062 0 01-.05-.693zm5.363 1.008h-.036l-.449-1.34-.585-1.675q-.036-.1-.072-.117a.309.309 0 00-.126-.018h-.693q-.1 0-.112.054a.213.213 0 00.014.126l1.574 4.185-.567 1.521a.213.213 0 00-.014.126q.014.054.122.054h.612a.268.268 0 00.162-.036.3.3 0 00.081-.126l2.1-5.724a.247.247 0 00.018-.126q-.009-.054-.117-.054h-.666a.231.231 0 00-.144.036.245.245 0 00-.072.117l-.561 1.657-.135.4-.149.423z" fill="#fff"/><path data-name="Path 2350" d="M255.439 40.581a1.246 1.246 0 001.238-1.251 1.246 1.246 0 00-1.238-1.251 1.246 1.246 0 00-1.238 1.251 1.246 1.246 0 001.238 1.251zm0-3.322a2.062 2.062 0 012.049 2.07 2.072 2.072 0 01-1.644 2.031v5.867a.408.408 0 01-.406.41h-17.634a.4.4 0 01-.339-.185.413.413 0 01-.034-.386l1.237-2.915a3.065 3.065 0 012.634-1.755h10.465v-2.658h-8.682v.82h7.466a.407.407 0 01.406.409.409.409 0 01-.406.411h-7.871a.408.408 0 01-.406-.411v-1.639a.408.408 0 01.406-.41h9.087v-5.164l-1.578-.9a.413.413 0 01-.153-.559.4.4 0 01.553-.153l1.783 1.021a.412.412 0 01.206.356V42.4h1.216a.408.408 0 01.406.41.408.408 0 01-.406.41h-12.493a2.26 2.26 0 00-1.888 1.258l-.994 2.343h16.613v-5.458a2.072 2.072 0 01-1.644-2.031 2.062 2.062 0 012.051-2.073zm-11.716-10.6h4.641v8.2h-4.641zm1.092-3.8h2.458v2.987h-2.458zm3.273 14.244h-.824V35.68h.824zm-3.264 0H244V35.68h.824zm-2.157-1.423h.519v1.833a.408.408 0 00.407.408h1.637a.408.408 0 00.407-.408V35.68h.813v1.833a.408.408 0 00.407.408h1.637a.408.408 0 00.407-.408V35.68h.52a.408.408 0 00.407-.408.407.407 0 00-.407-.408h-.244v-5.708h1.112l3.55 2.031a2.736 2.736 0 011.215 2.109v2.76a.407.407 0 00.406.408.407.407 0 00.407-.408v-2.76a3.544 3.544 0 00-1.625-2.817l-3.645-2.085a.409.409 0 00-.2-.052h-1.22v-2.087a.406.406 0 00-.406-.408h-.685v-3.4a.408.408 0 00-.407-.408h-3.271a.408.408 0 00-.407.408v3.4h-.685a.406.406 0 00-.406.408v8.61h-.243a.407.407 0 00-.407.408.408.408 0 00.407.404z" fill="#fff" opacity=".504"/></g></svg>