<svg xmlns="http://www.w3.org/2000/svg" fill="none" height="34.021" width="105.096"><path fill="#5A4093" d="M18.103.085c1.274.139 2.554.242 3.82.43.713.105 1.343.465 1.845 1.005.463.498.583 1.267.296 1.76-.232.397-.575.528-1.019.49-.429-.036-.578-.316-.73-.668-.082-.193-.31-.416-.505-.45-.865-.156-1.741-.341-2.615-.346-3.83-.024-7.604.4-11.25 1.638-1.563.53-3.045 1.242-4.283 2.36-1.031.93-1.756 2.045-1.447 3.511.102.485.48.909.72 1.367.16.304.43.622.423.928-.018.803-.845 1.131-1.588.702C.678 12.181.222 11.172.06 9.984-.276 7.531.827 5.737 2.686 4.3c2.1-1.622 4.544-2.492 7.07-3.148C12.485.444 15.275.187 18.103.085"/><path fill="#5A4093" d="M4.94 22.448c.14-.506.297-1.234.547-1.929 1.484-4.12 3.147-8.165 5.345-11.966.906-1.568 1.834-3.132 3.122-4.43.252-.255.602-.428.933-.58.355-.164.761-.101.963.222.169.272.23.653.217.98-.008.216-.195.456-.36.63-1.69 1.768-2.889 3.862-3.994 6.016-1.86 3.625-3.41 7.377-4.559 11.289-.035.119-.067.239-.11.355-.24.658-.647.95-1.196.861-.55-.089-.9-.563-.908-1.448m28.44-9.225a2.857 2.857 0 01-.324.813c-1.185 1.932-2.46 3.8-4.05 5.427a3.486 3.486 0 01-.891.657c-.85.436-1.43.046-1.403-1.007.12-1.538.815-2.939 1.764-4.23.855-1.164 1.914-2.067 3.32-2.497.25-.076.51-.14.77-.153.687-.034.977.318.814.99zm-15.175 1.819c.659-1.045 1.482-1.938 2.542-2.587.272-.167.58-.294.89-.373.165-.042.45-.004.53.106.086.12.067.418-.028.55-.36.497-.711 1.027-1.173 1.418-.619.52-1.324.945-2.02 1.363-.242.144-.569.146-.857.212l-.097-.12c.07-.191.107-.402.213-.569zM53.64 8.24c.574-1.241 1.208-2.446 1.962-3.574a16.48 16.48 0 011.501-1.94 2.12 2.12 0 00.075-.09c.178-.226.372-.52.686-.326.03.02.051.07.062.138.031.192-.013.523-.106.694-.433.788-.87 1.579-1.348 2.34-.16.254-.324.505-.494.751-.138.2-.284.394-.436.583-.456.57-.962 1.105-1.442 1.656a1.229 1.229 0 01-.225.194c-.082.058-.168.114-.248.174l-.114-.089c.04-.17.054-.355.127-.511zm10.144 7.15a.665.665 0 01.072-.204c.181-.304.376-.595.587-.87.42-.551.9-1.042 1.452-1.46a7.2 7.2 0 01.881-.573c.05-.028.106-.046.159-.068a2.05 2.05 0 01.496-.149.775.775 0 01.38.04c.034.015.06.034.075.058.081.128.084.37.018.515-.12.262-.297.505-.484.729-.092.11-.187.219-.284.325a8.195 8.195 0 01-.928.88 6.089 6.089 0 01-1.465.878c-.072.03-.145.056-.22.078-.223.068-.456.112-.682.173-.056.008-.115-.006-.104-.131.02-.116.031-.147.047-.22zm18.181 3.019c.14-1.161.501-1.783.452-2.99-.01-.248 1.138-1.324 1.13-1.567-.06.179-.996.669-1.08.838-.764 1.547-2.723 3.448-4.072 4.56a5.782 5.782 0 01-1.25.78c-.197.091-.587.067-.71-.069-.148-.162-.174-.513-.126-.757a2.8 2.8 0 01.392-.935c.641-1.004 1.321-1.984 1.969-2.984.787-1.216.63-2.205-.514-3.078-.503-.383-1.058-.7-1.597-1.032-.372-.23-.546-.51-.42-.968a5.25 5.25 0 00.21-1.182c.04-.977-.6-1.417-1.523-1.083-1.02.367-1.656 1.566-1.368 2.632.15.553.194 1.069-.071 1.612-1.053 2.157-2.272 4.185-4.067 5.832-.94.865-1.96 1.563-3.166 1.974-.872.298-1.767.499-2.687.24-.647-.182-1.001-.712-.997-1.403.004-.56.249-.813.999-1.03.118-.035.237-.069.358-.096a9.223 9.223 0 003.659-1.736c1.076-.83 1.98-1.78 2.378-3.122.449-1.517-.522-2.792-2.1-2.784-.837.005-1.576.303-2.268.727-1.844 1.13-3.047 2.814-4.097 4.657a11.266 11.266 0 01-1.73 2.275c-.528.54-1.214.95-1.885 1.316-.48.26-.899-.069-.803-.609.084-.478.274-.947.479-1.393.426-.926.907-1.828 1.338-2.752.324-.696.495-1.43.427-2.209-.099-1.13-.924-1.86-2.051-1.825-.975.03-1.793.443-2.54 1.018-1.216.936-2.188 2.102-3.1 3.325-.11.147-.244.396-.42.375-.154-.1-.097-.268-.074-.352.392-1.432 1.028-2.65 2.29-3.588 2.28-1.693 4.228-3.731 5.62-6.246.471-.852.789-1.748.755-2.74C59.661.723 58.588-.013 57.353.428c-.784.28-1.39.81-1.91 1.434-1.667 2.007-2.896 4.272-3.866 6.683-.393.977-.748 1.968-1.623 2.657-.278.219-.362.546-.288.925.049.248.019.526-.04.777-.275 1.194-.964 2.161-1.73 3.087-1.07 1.296-2.172 2.552-3.646 3.418-1.001.589-2.041 1.049-3.233 1.005-1.071-.04-1.71-.655-1.703-1.682.003-.458.09-.927.213-1.37.389-1.4 1.144-2.6 2.095-3.683.694-.79 1.488-1.46 2.514-1.765.242-.071.622-.024.792.13.113.103.041.534-.078.743-.222.386-.538.717-.817 1.069-.381.48-.403.992-.055 1.344a.989.989 0 001.424-.042c.471-.523.957-1.08 1.247-1.71.79-1.717-.158-3.279-2.04-3.474-1.012-.104-1.867.335-2.682.856-1.856 1.19-3.011 2.942-3.961 4.878-.378.77-.84 1.517-1.372 2.19-.362.458-.873.835-1.385 1.132-.635.368-1.104.087-1.129-.652a7.643 7.643 0 01.145-1.704c.283-1.456.938-2.776 1.572-4.102.172-.36.33-.742.396-1.13.148-.876-.36-1.269-1.218-1.041a3.08 3.08 0 01-1.087.074c-.93-.097-1.852-.173-2.758.14-1.936.668-3.427 1.921-4.522 3.615-.88 1.361-1.822 2.65-3.003 3.77-.927.88-1.954 1.569-3.16 1.983-.887.305-1.796.512-2.73.243-.637-.184-.99-.735-.975-1.422.012-.538.258-.791.977-1 .119-.035.238-.069.359-.096a9.251 9.251 0 003.7-1.755c1.06-.823 1.952-1.764 2.351-3.087.385-1.276-.231-2.522-1.472-2.726-.613-.1-1.315-.016-1.907.188-1.496.515-2.615 1.58-3.566 2.81-1.185 1.53-2.166 3.172-2.426 5.14-.303 2.285 1.173 3.959 3.483 4.01 2.112.046 3.921-.755 5.6-1.943.322-.228.629-.48.985-.753.01.208.014.345.023.48.078 1.038.625 1.813 1.502 2.09a2.942 2.942 0 002.09-.103c1.164-.501 2.079-1.325 2.89-2.285.615-.73.664-.711 1.14.089.73 1.223 1.754 1.64 3.075 1.11.69-.275 1.3-.75 1.952-1.138a.87.87 0 01.065.136c.615 1.649 1.894 2.32 3.56 2.42 1.688.102 3.097-.628 4.442-1.519.552-.365 1.061-.795 1.644-1.236-.082.272-.154.487-.21.706-.06.24-.13.48-.154.725-.041.425-.053.859.447 1.058.416.165.75.026 1.091-.468.326-.471.632-.956.95-1.432 1.64-2.453 3.355-4.847 5.536-6.862.385-.355.82-.663 1.253-.95.991-.657 1.05.284.893.799-.008.027-.024.056-.038.084l-1.252 2.59c-.462.96-.779 1.96-.7 3.04.095 1.309 1.273 2.31 2.5 2.118.363-.057.739-.144 1.063-.308.658-.33 1.285-.72 1.841-1.039.328.526.59 1.162 1.034 1.619 1 1.028 2.322 1.095 3.644.913 2.47-.343 4.464-1.605 6.157-3.369 1.44-1.5 2.466-3.286 3.37-5.147.6-1.24.764-1.276 1.933-.52.634.41.693.764.27 1.38-.559.818-1.14 1.625-1.635 2.48a8.502 8.502 0 00-.823 1.908c-.519 1.824.637 3.2 2.519 3.043.828-.069 1.561-.431 2.183-.947.83-.688 1.593-1.454 2.373-2.175.482-.474.512-.481.513-.474"/><path fill="url(#paint0_linear)" d="M94.954 24.874c-1.23 2.354-2.612 4.602-4.624 6.39-.604.536-1.291.902-2.124.915-.813.012-1.32-.544-1.075-1.32.18-.572.503-1.12.853-1.615.848-1.197 2.07-1.988 3.242-2.823a110.27 110.27 0 013.066-2.089c.229-.151.656-.32.768-.334.113-.015.135.052.129.143-.077.245-.118.509-.235.733zm-10.88-11.915c1.118-3.315 2.514-6.49 4.685-9.272.343-.438.71-.859 1.095-1.26.096-.1.32-.156.454-.12.1.028.288.19.269.444-.23.704-.422 1.453-.716 2.16-1.14 2.74-2.784 5.17-4.665 7.45-.226.275-.422.577-.665.835-.11.116-.479.416-.821.836-.002-.156.318-.934.365-1.073zm19.102 1.602c-.038.068-.071.138-.109.204-.926 1.595-2.056 3.025-3.449 4.237-.19.165-.426.278-.748.483-.015-.316-.058-.513-.026-.697.066-.38.173-.753.262-1.128.378-1.579.766-3.155 1.126-4.737.124-.545-.132-1.05-.54-1.216-.439-.18-.957.022-1.267.517a6.556 6.556 0 00-.439.816c-.992 2.229-2.32 4.24-4.02 5.985-.489.502-1.105.899-1.712 1.263-.548.328-1.032.068-1.109-.567-.049-.407-.052-.846.045-1.241.542-2.223 1.344-4.339 2.682-6.225.21-.297.385-.638.492-.985.119-.384-.044-.736-.368-.978a.756.756 0 00-.947-.005c-.294.218-.605.461-.794.765-.636 1.024-1.282 2.05-1.811 3.13-.853 1.739-1.869 3.355-3.213 4.752-.57.593-1.188 1.138-2.023 1.348-.659.166-1.228-.009-1.562-.523-.641-.983-.98-2.771.259-4.22.725-.848 1.581-.777 2.326-1.608 2.346-2.617 4.215-5.541 5.526-8.807.41-1.02.743-2.07.704-3.197C92.42.702 91.434-.143 90.228.02c-.954.128-1.65.71-2.233 1.399-2.749 3.247-4.446 7.043-5.681 11.07-.23.749-.398 1.628-.685 2.774-.249 1.545-.138 2.602-.049 4.17.367 1.483 1.389 2.551 2.658 2.727 1.076.15 2.078-.116 2.952-.733.702-.496 1.337-1.088 1.996-1.633.03.135.059.317.111.491.295.973.805 1.761 1.881 1.966.808.154 1.567-.058 2.272-.467 1.079-.625 1.905-1.527 2.699-2.466.113-.133.267-.232.454-.39.165 1.246-.346 2.324-1.284 2.878-1.187.7-2.378 1.391-3.557 2.104-1.822 1.102-3.562 2.311-5.035 3.87-.693.734-1.241 1.542-1.496 2.53-.355 1.375.102 2.598 1.273 3.228.427.23.925.325 1.391.483h.838c2.282-.564 3.85-2.05 5.138-3.926 1.484-2.165 2.76-4.428 3.542-6.953.103-.33.402-.684.706-.856 2.811-1.591 4.957-3.826 6.535-6.626.135-.239.233-.439.378-.732s0-.466 0-.466c-.637-.93-1.298-.895-1.856.1"/><defs id="defs19"><linearGradient gradientUnits="userSpaceOnUse" y2="17.011" x2="105.097" y1="17.011" x1="81.477" id="paint0_linear"><stop id="stop10" stop-color="#54C5BB"/><stop id="stop12" stop-color="#54C5BB" offset=".14"/><stop id="stop14" stop-color="#54C5BB" offset=".311"/><stop id="stop16" stop-color="#54C5BB" offset="1"/></linearGradient></defs></svg>