<svg xmlns="http://www.w3.org/2000/svg" xmlns:xlink="http://www.w3.org/1999/xlink" height="603.076" width="510.039" xml:space="preserve" viewBox="0 0 510.038 603.076" y="0" x="0" id="Layer_1" version="1.1"><style id="style2" type="text/css">.st1{fill:#cae8f4}.st3{fill:#fff}.st5,.st6{opacity:.4;fill:#e0254b;enable-background:new}.st6{fill:#a8b922}.st7{fill:#b5d1ef}.st8{fill:#e6f4fd}.st12{fill:none;stroke:#0a090b;stroke-width:.58;stroke-linecap:round;stroke-miterlimit:10}.st13{fill:#fdd800}.st15{fill:#f9ad0c}.st17{fill:#050605}.st18{fill:#ee7485}.st19{fill:none;stroke:#050605;stroke-width:.58;stroke-miterlimit:10}.st22{fill:#d0d0ea}.st24{fill:#010202}.st26{fill:#ea5451}.st30{fill:#f3a1bd}.st31{opacity:.6}.st32{fill:#554588}.st36{fill:#98d5e9}.st51{fill:none;stroke:#e6f4fd;stroke-width:1.2;stroke-miterlimit:10}.st52,.st53{opacity:.4}.st53{fill:#fff;enable-background:new}</style><g transform="translate(0 -105.625)" id="g461"><defs id="defs5"><path id="SVGID_1_" d="M0 0h608.2v835.3H0z"/></defs><clipPath id="SVGID_2_"><use height="100%" width="100%" y="0" x="0" id="use7" xlink:href="#SVGID_1_" overflow="visible"/></clipPath><g id="g459" clip-path="url(#SVGID_2_)"><path id="path10" d="M373.3 396.5c0 153.7-124.6 278.3-278.3 278.3-153.7 0-278.3-124.6-278.3-278.3 0-153.7 129.7-239.1 278.3-278.3C334.6 55 373.3 242.8 373.3 396.5z" class="st1"/><path id="path12" d="M507.7 472.2C527.9 636.7 413.8 682 298 682c-115.8 0-209.8-93.9-209.8-209.8S182.1 262.5 298 262.5s195.6 94.7 209.7 209.7z" class="st1"/><path id="path14" d="M434.5 708.7h-687c-12.2 0-22-9.8-22-22V214.8c0-12.2 9.8-22 22-22h687c12.2 0 22 9.8 22 22v471.9c0 12.2-9.9 22.1-22 22z" opacity=".6" fill="#e2f2fb"/><path id="path16" d="M428.6 704.1h-687.1c-12.2 0-22-9.8-22-22V210.2c0-12.2 9.8-22 22-22h687.1c12.1 0 22 9.9 22 22v471.9c-.1 12.1-9.9 22-22 22z" class="st3"/><path id="path18" d="M-72.1 262.5H75.2v97.9H-72.1z" class="st5"/><path id="path20" d="M92.1 262.5h147.3v97.9H92.1z" class="st6"/><path id="path22" d="M256.4 262.5h147.3v97.9H256.4z" class="st7"/><path id="path24" d="M238.6 655.7h-468c-2.5 0-4.5-2-4.5-4.5V389c0-2.5 2-4.5 4.5-4.5h468c2.5 0 4.5 2 4.5 4.5v262.3c0 2.4-2 4.4-4.5 4.4z" fill="none" stroke="#fcf8fb" stroke-width="2.39" stroke-miterlimit="10"/><circle id="circle26" r="26.2" cy="416.4" cx="295" opacity=".2" fill="#fdd800"/><path id="path28" d="M390.3 415.7H335c-3 0-5.5-2.5-5.5-5.5s2.5-5.5 5.5-5.5h55.3c3 0 5.5 2.5 5.5 5.5s-2.5 5.5-5.5 5.5z" class="st8"/><path id="path30" d="M33.8 420.5h-55.3c-3 0-5.5-2.5-5.5-5.5s2.5-5.5 5.5-5.5h55.3c3 0 5.5 2.5 5.5 5.5s-2.5 5.5-5.5 5.5z" class="st8"/><path id="path32" d="M121.8 420.5H66.6c-3 0-5.5-2.5-5.5-5.5s2.5-5.5 5.5-5.5h55.3c3 0 5.5 2.5 5.5 5.5s-2.5 5.5-5.6 5.5z" class="st8"/><path id="path34" d="M208.7 420.5h-55.3c-3 0-5.5-2.5-5.5-5.5s2.5-5.5 5.5-5.5h55.3c3 0 5.5 2.5 5.5 5.5s-2.4 5.5-5.5 5.5z" class="st8"/><path id="path36" d="M364.1 430.8h-29.4c-2.9.1-5.3-2.1-5.4-4.9-.1-2.9 2.1-5.3 4.9-5.4h29.9c2.9.1 5.1 2.5 4.9 5.4 0 2.7-2.2 4.8-4.9 4.9z" class="st8"/><g id="g102"><defs id="defs39"><circle r="26.2" cy="416.4" cx="295" id="SVGID_3_"/></defs><clipPath id="SVGID_4_"><use height="100%" width="100%" y="0" x="0" id="use41" xlink:href="#SVGID_3_" overflow="visible"/></clipPath><g id="g100" clip-path="url(#SVGID_4_)"><path id="path44" d="M297.1 467c-2.2 8.8.6 13.8.6 13.8H295" class="st12"/><path id="path46" d="M291.7 467c-2.2 8.8.6 13.8.6 13.8h-2.6" class="st12"/><path id="path48" d="M294.4 398.8c-9.8 0-17.7 7.9-17.7 17.7v33.7c.2 9.8 8.3 17.5 18.1 17.3 9.4-.2 17-7.8 17.3-17.3v-33.7c0-9.8-8-17.7-17.7-17.7z" class="st13"/><path id="path50" d="M294.4 398.8c-9.8 0-17.7 7.9-17.7 17.7v33.7c.2 9.8 8.3 17.5 18.1 17.3 9.4-.2 17-7.8 17.3-17.3v-33.7c0-9.8-8-17.7-17.7-17.7z" class="st13"/><g id="g62"><defs id="defs53"><path d="M294.4 398.8c-9.8 0-17.7 7.9-17.7 17.7v33.7c.2 9.8 8.3 17.5 18.1 17.3 9.4-.2 17-7.8 17.3-17.3v-33.7c0-9.8-8-17.7-17.7-17.7z" id="SVGID_5_"/></defs><clipPath id="SVGID_6_"><use height="100%" width="100%" y="0" x="0" id="use55" xlink:href="#SVGID_5_" overflow="visible"/></clipPath><g id="g60" clip-path="url(#SVGID_6_)"><path id="path58" d="M272.5 444.7c14.3-9.5 28.6 9.5 42.9 0v-9.5c-14.3 9.5-28.6-9.5-42.9 0z" class="st15"/></g></g><g id="g74"><defs id="defs65"><path d="M294.4 398.8c-9.8 0-17.7 7.9-17.7 17.7v33.7c.2 9.8 8.3 17.5 18.1 17.3 9.4-.2 17-7.8 17.3-17.3v-33.7c0-9.8-8-17.7-17.7-17.7z" id="SVGID_7_"/></defs><clipPath id="SVGID_8_"><use height="100%" width="100%" y="0" x="0" id="use67" xlink:href="#SVGID_7_" overflow="visible"/></clipPath><g id="g72" clip-path="url(#SVGID_8_)"><path id="path70" d="M272.5 458.7c14.3-9.5 28.6 9.5 42.9 0v-9.5c-14.3 9.5-28.6-9.5-42.9 0z" class="st15"/></g></g><path id="path76" d="M294 401c.6 0 1-.4 1-1v-5.1c0-.6-.5-1.1-1-1.1-.6 0-1.1.5-1.1 1v5c0 .6.4 1 .9 1.1.1.1.1.1.2.1z" class="st13"/><path id="path78" d="M294.1 400.7c.4-.3.5-1 .2-1.4 0 0 0-.1-.1-.1l-3.2-3.8c-.4-.4-1-.5-1.5-.1-.4.4-.5 1-.1 1.5l3.1 3.8c.5.4 1.1.5 1.6.1 0 .1 0 0 0 0z" class="st13"/><path id="path80" d="M298.5 395.3c.4.4.5 1 .2 1.5l-3.1 3.8c-.4.4-1.1.4-1.5 0-.4-.4-.4-.9-.1-1.3l3.1-3.8c.3-.5 1-.6 1.4-.2z" class="st13"/><circle id="circle82" r="5.3" cy="419.9" cx="302.5" class="st3"/><circle id="circle84" r="3.8" cy="419.9" cx="302.6" class="st17"/><ellipse id="ellipse86" ry="1.3" rx="3.3" cy="428.2" cx="302.5" class="st18" transform="matrix(.999 -.04397 .04397 .999 -18.536 13.715)"/><path id="path88" d="M296.1 427.1c-1.2 2.1-2.9 1.4-3.9 0" class="st19"/><circle id="circle90" r="5.3" cy="419.4" cx="286.9" class="st3"/><circle id="circle92" r="3.8" cy="419.4" cx="286.8" class="st17"/><ellipse id="ellipse94" ry="1.3" rx="3.3" cy="427.4" cx="286.3" class="st18" transform="rotate(-2.52 286.291 427.367) scale(.99997)"/><path id="path96" d="M289.3 412c-1.1-.9-2.6-1.1-3.9-.4" class="st19"/><path id="path98" d="M304.3 412.9c-1.1-1-2.6-1.1-3.9-.4" class="st19"/></g></g><circle id="circle104" r="26.2" cy="489.5" cx="295" opacity=".2" fill="#d0d0ea"/><path id="path106" d="M390.3 488.8H335c-3 0-5.5-2.5-5.5-5.5s2.5-5.5 5.5-5.5h55.3c3 0 5.5 2.5 5.5 5.5s-2.5 5.5-5.5 5.5z" class="st8"/><path id="path108" d="M364.1 503.9h-29.4c-2.9.1-5.3-2.1-5.4-4.9-.1-2.8 2.1-5.3 4.9-5.4h29.9c2.9.1 5.1 2.5 4.9 5.4 0 2.7-2.2 4.8-4.9 4.9z" class="st8"/><g id="g166"><defs id="defs111"><circle r="26.2" cy="489.5" cx="295" id="SVGID_9_"/></defs><clipPath id="SVGID_10_"><use height="100%" width="100%" y="0" x="0" id="use113" xlink:href="#SVGID_9_" overflow="visible"/></clipPath><g id="g164" clip-path="url(#SVGID_10_)"><path id="path116" d="M272.1 545.6c-.9 0-1.8-.6-2-1.5-9.2-33.7 4.2-43.1 4.7-43.5 1-.6 2.3-.3 2.9.7.6.9.3 2.1-.5 2.8-.2.2-11.4 8.6-3 38.9.3 1.1-.3 2.3-1.4 2.6-.2-.1-.4 0-.7 0z" class="st22"/><path id="path118" d="M320.8 545.6c-.2 0-.4 0-.6-.1-1.1-.3-1.8-1.5-1.5-2.6 8.4-30.8-2.9-38.8-3-38.9-1-.6-1.2-1.9-.6-2.9s1.9-1.2 2.9-.6c.6.4 14 9.8 4.8 43.5-.2.9-1.1 1.6-2 1.6z" class="st22"/><path id="path120" d="M320.7 499.9h-.4l-.1-.6c0-.1-.1-.3-.1-.4h.2c.8-.2 1.3-.9 1.2-1.7-.1-.8-.9-1.3-1.7-1.2l-.3.1c-.1-.3-.2-.7-.3-1l.2-.1c.8-.2 1.3-1 1.1-1.8-.2-.8-1-1.2-1.7-1l-.5.1c-.1-.3-.3-.6-.4-.9l.4-.2c.8-.3 1.2-1.1.9-1.9-.3-.7-1.1-1.1-1.8-.9l-.8.3c-.2-.4-.4-.8-.7-1.1l.8-.8c.6-.6.6-1.5.1-2.1-.5-.6-1.4-.6-2 0l-.5.5c-.2-.3-.4-.6-.6-.8l.7-.6c.6-.5.7-1.5.2-2.1-.5-.6-1.4-.7-2-.2l-.8.7-.5-.5.7-1c.5-.7.4-1.6-.3-2.1-.6-.5-1.5-.4-2 .2l-.7.9-.8-.6.5-.8c.4-.7.3-1.6-.4-2.1-.6-.4-1.5-.3-2 .4l-.6.9-.8-.4.2-.8c.2-.8-.3-1.6-1-1.8-.8-.2-1.6.3-1.8 1l-.1.4-1.1-.3.1-.5c.2-.8-.3-1.6-1-1.8-.8-.2-1.6.3-1.8 1l-.2.6-1-.1v-.8c0-.8-.7-1.5-1.5-1.5s-1.5.7-1.5 1.5v.7h-1l-.1-.7c-.1-.8-.9-1.3-1.7-1.2-.8.1-1.3.9-1.2 1.7l.1.7c-.3.1-.6.1-.9.2-.2-.8-1-1.2-1.8-1-.8.2-1.2 1-1 1.8v.2c-.3.1-.7.3-1 .4l-.2-.3c-.4-.7-1.3-.9-2-.5-.7.5-.8 1.4-.4 2.1v.1c-.3.2-.6.4-.8.6l-.1-.2c-.5-.6-1.4-.8-2-.3-.6.5-.7 1.4-.2 2.1l.1.2c-.2.2-.5.4-.7.6-.6-.5-1.5-.5-2 .1s-.5 1.5.1 2l-.8 1-.2-.2c-.5-.6-1.4-.6-2 0-.5.6-.5 1.5.1 2.1l.5.5c-.2.3-.4.7-.6 1l-1-.4c-.7-.3-1.5.1-1.8.8v.1c-.3.8.1 1.6.9 1.9l.6.2c-.1.3-.3.6-.4.9l-.6-.2c-.7-.2-1.5.2-1.8.9v.1c-.2.8.3 1.6 1.1 1.8l.4.1c-.1.3-.2.7-.2 1l-.5-.1c-.8-.2-1.5.3-1.7 1.1v.1c-.1.8.4 1.6 1.2 1.7l.6.1c0 .5-.1 1-.1 1.5v.2c-.7.1-1.2.6-1.2 1.3-.1.8.5 1.5 1.3 1.6.2 3.2 1.3 6.2 3 8.9l-.5.4c-.6.5-.6 1.4-.1 2 .6.6 1.5.6 2.1 0l.3-.2.7.7-.4.4c-.5.6-.4 1.5.2 2 .6.5 1.6.4 2.1-.2l.4-.4c.4.3.7.5 1.1.8l-.4.7c-.4.7-.2 1.5.5 1.9 0 0 .1 0 .1.1.7.4 1.6.1 2-.7l.3-.5c.5.2.9.4 1.4.6l-.3.7c-.3.8.1 1.6.8 1.9.8.3 1.6-.1 1.9-.8l.3-.7c3.2 1.1 6.6 1.6 10 1.8 3.3.1 6.5-.5 9.6-1.5l.3.8c.4.7 1.2 1 2 .7.7-.3 1-1.2.7-1.9l-.3-.7 1.2-.7.2.5c.4.7 1.3 1 2 .7.7-.3 1-1.2.6-1.9l-.4-.7c.3-.2.7-.5 1-.8l.5.5c.5.6 1.5.7 2.1.2.6-.5.7-1.4.2-2l-.6-.7c.2-.2.4-.4.6-.7l.5.5c.6.6 1.5.6 2.1 0 .5-.6.5-1.5-.1-2l-.7-.7c1.6-2.6 2.6-5.5 2.8-8.5l.6-.1c.8-.1 1.4-.8 1.3-1.6-.1-.8-.8-1.3-1.5-1.3h-.1z" fill-rule="evenodd" clip-rule="evenodd" fill="#d0d0ea"/><path id="path122" d="M301.3 495.3c0 2.3-2.8 4.2-6.3 4.2s-6.3-1.9-6.3-4.2c0-2.3 2.9-.7 6.4-.7 3.5 0 6.2-1.6 6.2.7z" class="st24"/><g id="g134"><defs id="defs125"><path d="M301.3 495.3c0 2.3-2.8 4.2-6.3 4.2s-6.3-1.9-6.3-4.2c0-2.3 2.9-.7 6.4-.7 3.5 0 6.2-1.6 6.2.7z" id="SVGID_11_"/></defs><clipPath id="SVGID_12_"><use height="100%" width="100%" y="0" x="0" id="use127" xlink:href="#SVGID_11_" overflow="visible"/></clipPath><g id="g132" clip-path="url(#SVGID_12_)"><ellipse id="ellipse130" ry="3.8" rx="5.3" cy="500.1" cx="294.9" class="st26"/></g></g><g id="g146"><defs id="defs137"><path d="M301.3 495.3c0 2.3-2.8 4.2-6.3 4.2s-6.3-1.9-6.3-4.2c0-2.3 2.9-.7 6.4-.7 3.5 0 6.2-1.6 6.2.7z" id="SVGID_13_"/></defs><clipPath id="SVGID_14_"><use height="100%" width="100%" y="0" x="0" id="use139" xlink:href="#SVGID_13_" overflow="visible"/></clipPath><g id="g144" clip-path="url(#SVGID_14_)"><ellipse id="ellipse142" ry="3.6" rx="5.3" cy="492.2" cx="294.9" class="st3"/></g></g><ellipse id="ellipse148" ry=".8" rx="1.4" cy="496.2" cx="282.5" class="st26"/><ellipse id="ellipse150" ry=".8" rx="1.4" cy="496.2" cx="306.5" class="st26"/><circle id="circle152" r="1.6" cy="490.3" cx="286.7" class="st24"/><circle id="circle154" r="1.6" cy="490.3" cx="303.2" class="st24"/><path id="path156" d="M289.9 561.2c-.9 0-1.6-.7-1.6-1.6V515c-.1-.9.6-1.7 1.5-1.8.9-.1 1.7.6 1.8 1.5v44.9c-.1.9-.8 1.6-1.7 1.6z" class="st22"/><path id="path158" d="M289.9 561.2c-.9 0-1.6-.7-1.6-1.6V557h3.3v2.6c-.1.9-.8 1.6-1.7 1.6z" class="st24"/><path id="path160" d="M302.8 561.2c-.9 0-1.6-.7-1.6-1.6V515c-.1-.9.6-1.7 1.5-1.8.9-.1 1.7.6 1.8 1.5v44.9c0 .9-.7 1.6-1.7 1.6.1 0 0 0 0 0z" class="st22"/><path id="path162" d="M302.8 561.2c-.9 0-1.6-.7-1.6-1.6V557h3.3v2.6c0 .9-.7 1.6-1.7 1.6.1 0 0 0 0 0z" class="st24"/></g></g><circle id="circle168" r="26.2" cy="561" cx="295" opacity=".2" fill="#f3a1bd"/><path id="path170" d="M390.3 560.3H335c-3 0-5.5-2.5-5.5-5.5s2.5-5.5 5.5-5.5h55.3c3 0 5.5 2.5 5.5 5.5s-2.5 5.5-5.5 5.5z" class="st8"/><path id="path172" d="M364.1 575.3h-29.4c-2.9 0-5.2-2.3-5.2-5.2 0-2.9 2.3-5.2 5.2-5.2h29.4c2.9 0 5.2 2.3 5.2 5.2 0 2.9-2.3 5.2-5.2 5.2z" class="st8"/><g id="g248"><defs id="defs175"><circle r="26.2" cy="561" cx="295" id="SVGID_15_"/></defs><clipPath id="SVGID_16_"><use height="100%" width="100%" y="0" x="0" id="use177" xlink:href="#SVGID_15_" overflow="visible"/></clipPath><g id="g246" clip-path="url(#SVGID_16_)"><ellipse id="ellipse180" ry="5.5" rx="24" cy="636.4" cx="296.6" class="st8"/><path id="path182" d="M316.5 570.6c0 12.1-9.5 21.9-21.2 21.9s-21.2-9.8-21.2-21.9c0-12.1 13.7-32 21.2-32 6.8.1 21.2 20 21.2 32z" class="st30"/><g id="g190" class="st31"><path id="path184" d="M285.3 571.1c-.3.1-.4.4-.3.6.1.3.4.4.6.3.3-.1.4-.4.3-.6-.1-.2-.4-.4-.6-.3z" class="st32"/><path id="path186" d="M283.3 569.8c-.2.1-.4.3-.3.6.1.2.3.3.5.3.2-.1.4-.3.3-.6-.1-.2-.3-.3-.5-.3z" class="st32"/><path id="path188" d="M283.5 572.9c-.2.1-.4.3-.3.6.1.2.3.4.5.3.2-.1.4-.3.3-.5 0-.3-.3-.5-.5-.4z" class="st32"/></g><g id="g198" class="st31"><path id="path192" d="M304 571.1c.3.1.4.4.3.6-.1.3-.4.4-.6.3-.3-.1-.4-.4-.3-.6 0-.3.3-.4.6-.3z" class="st32"/><path id="path194" d="M306 569.8c.2.1.4.3.3.6-.1.2-.3.4-.5.3-.2-.1-.4-.3-.3-.6.1-.2.3-.3.5-.3z" class="st32"/><path id="path196" d="M305.8 572.9c.2.1.4.3.3.5-.1.2-.3.4-.5.3-.2-.1-.4-.3-.3-.5 0-.2.2-.4.5-.3z" class="st32"/></g><path id="path200" d="M289.9 634.2c-.6 0-1.2-.4-1.5-.9-7.9-15.7-7.9-34.3 0-50 .4-.9 1.4-1.3 2.2-.9.9.4 1.3 1.4.9 2.2 0 .1-.1.2-.1.2-7.4 14.7-7.4 32.1 0 46.9.4.8.1 1.9-.8 2.3-.2.1-.4.2-.7.2z" class="st30"/><path id="path202" d="M302.7 623.9c-.8 0-1.4-.6-1.4-1.4 0-.2.1-.4.1-.6 6-11.9 6-25.9 0-37.8-.3-.7-.1-1.5.6-1.9.7-.4 1.5-.1 1.9.6 6.4 12.7 6.4 27.6 0 40.3-.2.5-.6.8-1.2.8z" class="st30"/><path id="path204" d="M306.8 628.4l-6.7-3.5c-.3-1.3.7-2.4 1.6-3.2l2.3 1.2c-.1.2-.1.4.1.5.4.6 3.2 2.8 3.7 4 .2.4.1.8-.3 1-.1.2-.4.2-.7 0" class="st32"/><path id="path206" d="M280.8 636.3l10.4-.2c1.2-1.4.6-3.4 0-4.9l-3.6.1c0 .3-.1.5-.4.6-.8.5-5.6 1.5-7 2.7-.5.3-.6.9-.3 1.4.2.2.6.4.9.3" class="st32"/><path id="path208" d="M275.6 613.3c-.8 0-1.4-.5-1.6-1.2-7.5-27.3 3.4-34.9 3.8-35.2.8-.5 1.8-.3 2.3.5.5.8.3 1.7-.4 2.3-.2.1-9.2 7-2.5 31.5.2.9-.3 1.8-1.2 2.1h-.4z" class="st30"/><path id="path210" d="M315 613.3c-.1 0-.3 0-.4-.1-.9-.2-1.4-1.2-1.2-2.1 6.8-25-2.4-31.5-2.5-31.5-.8-.5-1.1-1.5-.6-2.3.5-.8 1.5-1.1 2.3-.6.1 0 .1.1.1.1.5.3 11.3 7.9 3.8 35.2-.1.8-.8 1.3-1.5 1.3z" class="st30"/><path id="path212" d="M300.4 566.5c0 1.7-2.1 3.2-4.8 3.2-2.7 0-4.8-1.4-4.8-3.2 0-1.8 2.2-.5 4.8-.5 2.6 0 4.8-1.3 4.8.5z" class="st24"/><g id="g224"><defs id="defs215"><path d="M300.4 566.5c0 1.7-2.1 3.2-4.8 3.2-2.7 0-4.8-1.4-4.8-3.2 0-1.8 2.2-.5 4.8-.5 2.6 0 4.8-1.3 4.8.5z" id="SVGID_17_"/></defs><clipPath id="SVGID_18_"><use height="100%" width="100%" y="0" x="0" id="use217" xlink:href="#SVGID_17_" overflow="visible"/></clipPath><g id="g222" clip-path="url(#SVGID_18_)"><ellipse id="ellipse220" ry="2.8" rx="4" cy="570.1" cx="295.6" class="st26"/></g></g><g id="g236"><defs id="defs227"><path d="M300.4 566.5c0 1.7-2.1 3.2-4.8 3.2-2.7 0-4.8-1.4-4.8-3.2 0-1.8 2.2-.5 4.8-.5 2.6 0 4.8-1.3 4.8.5z" id="SVGID_19_"/></defs><clipPath id="SVGID_20_"><use height="100%" width="100%" y="0" x="0" id="use229" xlink:href="#SVGID_19_" overflow="visible"/></clipPath><g id="g234" clip-path="url(#SVGID_20_)"><ellipse id="ellipse232" ry="2.7" rx="4" cy="564.2" cx="295.6" class="st3"/></g></g><path id="path238" d="M287.1 561.7c-1.4 0-2.6 1.1-2.6 2.5 0 .1.1.2.2.2s.2-.1.2-.2c0-.6.2-1.1.6-1.5.4-.4.9-.6 1.5-.6 1.2 0 2.1.9 2.1 2.1 0 .1.1.2.2.2s.2-.1.2-.2c.2-1.4-.9-2.5-2.4-2.5z" class="st24"/><path id="path240" d="M303.6 561.6c-1.4 0-2.6 1.1-2.6 2.5 0 .1.1.2.2.2s.2-.1.2-.2c0-.6.2-1.1.6-1.5.4-.4.9-.6 1.5-.6 1.2 0 2.1.9 2.1 2.1 0 .1.1.2.2.2s.2-.1.2-.2c.2-1.3-1-2.5-2.4-2.5z" class="st24"/><ellipse id="ellipse242" ry=".6" rx="1" cy="567.2" cx="286.2" class="st26"/><ellipse id="ellipse244" ry=".6" rx="1" cy="567.2" cx="304.3" class="st26"/></g></g><circle id="circle250" r="26.2" cy="633.9" cx="295" class="st8"/><path id="path252" d="M390.3 633.2H335c-3 0-5.5-2.5-5.5-5.5s2.5-5.5 5.5-5.5h55.3c3 0 5.5 2.5 5.5 5.5s-2.5 5.5-5.5 5.5z" class="st8"/><path id="path254" d="M364.1 648.3h-29.4c-2.9.1-5.3-2.1-5.4-4.9-.1-2.8 2.1-5.3 4.9-5.4h29.9c2.9.1 5.1 2.5 4.9 5.4 0 2.6-2.2 4.8-4.9 4.9z" class="st8"/><g id="g266"><defs id="defs257"><circle r="26.2" cy="633.9" cx="295" id="SVGID_21_"/></defs><clipPath id="SVGID_22_"><use height="100%" width="100%" y="0" x="0" id="use259" xlink:href="#SVGID_21_" overflow="visible"/></clipPath><g id="g264" clip-path="url(#SVGID_22_)"><path id="path262" d="M295.1 616.4c8 0 14.4 6.4 14.4 14.4v27.4c-.2 8-6.8 14.2-14.8 14-7.7-.2-13.8-6.4-14-14v-27.4c0-7.9 6.5-14.4 14.4-14.4z" class="st36"/></g></g><g id="g288"><defs id="defs269"><circle r="26.2" cy="633.9" cx="295" id="SVGID_23_"/></defs><clipPath id="SVGID_24_"><use height="100%" width="100%" y="0" x="0" id="use271" xlink:href="#SVGID_23_" overflow="visible"/></clipPath><g id="g286" clip-path="url(#SVGID_24_)"><g id="g284"><defs id="defs275"><path d="M295.1 616.4c8 0 14.4 6.4 14.4 14.4v27.4c-.2 8-6.8 14.2-14.8 14-7.7-.2-13.8-6.4-14-14v-27.4c0-7.9 6.5-14.4 14.4-14.4z" id="SVGID_25_"/></defs><clipPath id="SVGID_26_"><use height="100%" width="100%" y="0" x="0" id="use277" xlink:href="#SVGID_25_" overflow="visible"/></clipPath><g id="g282" clip-path="url(#SVGID_26_)"><path id="path280" d="M296 683.3c-5.5 0-9.9-4.4-9.9-9.9v-11.7c.2-5.5 4.7-9.8 10.2-9.6 5.2.2 9.4 4.4 9.6 9.6v11.7c0 5.5-4.4 9.9-9.9 9.9z" fill="#76beea"/></g></g></g></g><g id="g300"><defs id="defs291"><circle r="26.2" cy="633.9" cx="295" id="SVGID_27_"/></defs><clipPath id="SVGID_28_"><use height="100%" width="100%" y="0" x="0" id="use293" xlink:href="#SVGID_27_" overflow="visible"/></clipPath><g id="g298" clip-path="url(#SVGID_28_)"><circle id="circle296" r="7.8" cy="634" cx="295.9" class="st3"/></g></g><g id="g312"><defs id="defs303"><circle r="26.2" cy="633.9" cx="295" id="SVGID_29_"/></defs><clipPath id="SVGID_30_"><use height="100%" width="100%" y="0" x="0" id="use305" xlink:href="#SVGID_29_" overflow="visible"/></clipPath><g id="g310" clip-path="url(#SVGID_30_)"><circle id="circle308" r="5.6" cy="634.1" cx="296" class="st17"/></g></g><g id="g324"><defs id="defs315"><circle r="26.2" cy="633.9" cx="295" id="SVGID_31_"/></defs><clipPath id="SVGID_32_"><use height="100%" width="100%" y="0" x="0" id="use317" xlink:href="#SVGID_31_" overflow="visible"/></clipPath><g id="g322" clip-path="url(#SVGID_32_)"><path id="path320" d="M293.8 624.7c.9-.8 2.2-.9 3.2-.3" fill="none" stroke="#050605" stroke-width=".39" stroke-miterlimit="10"/></g></g><g id="g360"><defs id="defs327"><circle r="26.2" cy="633.9" cx="295" id="SVGID_33_"/></defs><clipPath id="SVGID_34_"><use height="100%" width="100%" y="0" x="0" id="use329" xlink:href="#SVGID_33_" overflow="visible"/></clipPath><g id="g358" clip-path="url(#SVGID_34_)"><path id="path332" d="M300.8 645.5c0 1.6-1.9 2.9-4.3 2.9s-4.3-1.3-4.3-2.9c0-1.6 2-.5 4.4-.5 2.4 0 4.2-1.1 4.2.5z" fill="#0a090b"/><g id="g344"><defs id="defs335"><path d="M300.8 645.5c0 1.6-1.9 2.9-4.3 2.9s-4.3-1.3-4.3-2.9c0-1.6 2-.5 4.4-.5 2.4 0 4.2-1.1 4.2.5z" id="SVGID_35_"/></defs><clipPath id="SVGID_36_"><use height="100%" width="100%" y="0" x="0" id="use337" xlink:href="#SVGID_35_" overflow="visible"/></clipPath><g id="g342" clip-path="url(#SVGID_36_)"><ellipse id="ellipse340" ry="2.6" rx="3.6" cy="648.8" cx="296.4" class="st26"/></g></g><g id="g356"><defs id="defs347"><path d="M300.8 645.5c0 1.6-1.9 2.9-4.3 2.9s-4.3-1.3-4.3-2.9c0-1.6 2-.5 4.4-.5 2.4 0 4.2-1.1 4.2.5z" id="SVGID_37_"/></defs><clipPath id="SVGID_38_"><use height="100%" width="100%" y="0" x="0" id="use349" xlink:href="#SVGID_37_" overflow="visible"/></clipPath><g id="g354" clip-path="url(#SVGID_38_)"><ellipse id="ellipse352" ry="2.5" rx="3.6" cy="643.3" cx="296.3" class="st3"/></g></g></g></g><g id="g372"><defs id="defs363"><circle r="26.2" cy="633.9" cx="295" id="SVGID_39_"/></defs><clipPath id="SVGID_40_"><use height="100%" width="100%" y="0" x="0" id="use365" xlink:href="#SVGID_39_" overflow="visible"/></clipPath><g id="g370" clip-path="url(#SVGID_40_)"><path id="path368" d="M304 620.9c-.3-.3-.4-.9-.1-1.2l2.7-3c.3-.3.9-.3 1.2 0 .3.3.3.8.1 1.1l-2.7 3c-.3.4-.8.4-1.2.1z" class="st36"/></g></g><g id="g384"><defs id="defs375"><circle r="26.2" cy="633.9" cx="295" id="SVGID_41_"/></defs><clipPath id="SVGID_42_"><use height="100%" width="100%" y="0" x="0" id="use377" xlink:href="#SVGID_41_" overflow="visible"/></clipPath><g id="g382" clip-path="url(#SVGID_42_)"><path id="path380" d="M282.5 616.3c-.4.3-.4.8-.1 1.2l2.6 3.1c.3.4.8.4 1.2.1.4-.3.4-.8.1-1.2l-2.5-3.1c-.4-.4-.9-.4-1.3-.1z" class="st36"/></g></g><g id="g396"><defs id="defs387"><circle r="26.2" cy="635.1" cx="299.1" id="SVGID_43_"/></defs><clipPath id="SVGID_44_"><use height="100%" width="100%" y="0" x="0" id="use389" xlink:href="#SVGID_43_" overflow="visible"/></clipPath><g id="g394" clip-path="url(#SVGID_44_)"><ellipse id="ellipse392" ry="1" rx=".7" cy="630.8" cx="298.2" class="st3" transform="rotate(-57.023 298.187 630.763)"/></g></g><path id="path398" d="M271.1 452.3h133.3" class="st51"/><path id="path400" d="M271.1 527.9h133.3" class="st51"/><path id="path402" d="M271.1 598.8h133.3" class="st51"/><path id="path404" d="M127.3 487.4H62.8c-3.3 0-5.9-2.7-6-5.9v-30.2c0-3.3 2.7-5.9 6-5.9h64.5c3.3 0 6 2.6 6 5.9v30.2c-.1 3.2-2.7 5.9-6 5.9z" class="st6"/><path id="path406" d="M127.3 538H62.8c-3.3 0-5.9-2.7-6-5.9v-30.2c0-3.3 2.7-6 6-6h64.5c3.3 0 6 2.7 6 6v30.2c-.1 3.3-2.7 5.9-6 5.9z" class="st7"/><path id="path408" d="M38 538h-64.5c-3.3 0-5.9-2.7-5.9-5.9v-30.2c0-3.3 2.6-6 5.9-6H38c3.3 0 6 2.7 6 6v30.2c-.1 3.3-2.8 5.9-6 5.9z" class="st7"/><path id="path410" d="M127.3 591.8H62.8c-3.3 0-6-2.7-6-6v-30.1c0-3.3 2.7-6 6-6h64.5c3.3 0 6 2.7 6 6v30.2c-.1 3.3-2.7 5.9-6 5.9z" class="st5"/><path id="path412" d="M214.5 487.4H150c-3.3 0-5.9-2.7-5.9-5.9v-30.2c0-3.3 2.7-5.9 5.9-5.9h64.5c3.3 0 6 2.6 6 5.9v30.2c0 3.2-2.7 5.9-6 5.9z" fill="#b9e0e6"/><g id="g427" class="st52"><path d="M-9.2 319.2c.6 0 1.1-.5 1.1-1.1 0-.6-.5-1.1-1.1-1.1-.6 0-1.1.5-1.1 1.1 0 .6.5 1.1 1.1 1.1zm0-3.7c1.4 0 2.6 1.1 2.6 2.6s-1.1 2.6-2.6 2.6-2.6-1.1-2.6-2.6c0-1.4 1.2-2.6 2.6-2.6zm-3.7 17l-1.3 1.3 1.3 1.3-1 1-1.3-1.3-1.3 1.3-1-1 1.3-1.3-1.3-1.3 1-1 1.3 1.3 1.3-1.3zm36-36.5h1.5v1.5h-1.5v1.5h-1.5v-1.5h-1.5V296h1.5v-1.5h1.5zm-2.4 17.6c1-1.1 2.6-1.2 3.7-.2l.2.2-1 1.1c-.5-.5-1.3-.6-1.8-.1 0 0-.1 0-.1.1-1 1.1-2.6 1.2-3.7.2l-.2-.2c-.5-.5-1.3-.6-1.8-.1l-.1.1-1-1.1c1-1.1 2.6-1.2 3.7-.2l.2.2c.5.5 1.3.5 1.9 0zM10 293.9l.4 1.3-1.6.5v3.7c0 .3-.1.5-.4.6l-1.4.7-.6-1.2 1-.5v-3.7c0-.3.2-.6.5-.7zm-5.6 33.7c.2.1.3.4.3.6v4.4c0 .3-.2.5-.4.6l-1.4.8-.6-1.3 1-.5v-2.9l-2.9 1v3.9c0 .3-.2.5-.4.7l-1.4.7-.6-1.3 1-.5v-3.9c0-.3.2-.6.5-.7l4.3-1.5c.2-.2.4-.2.6-.1zm-6-17.3l1-1 1.4 1.4-1 1zm2.1 2.1l1-1 1.4 1.4-1 1zm2.2 2.1l1-1 2.1 2.1-1 1zm8.4 11.4l4-4-17.6-18.3-4.7 4.7zm-20.7-18.3c.4 0 .8 0 1.3-.1l5-5c.1-.4.1-.8.1-1.3 0-1.5-.5-2.9-1.4-4l-.9.9-1-1 .9-.9c-2.8-2.2-6.8-1.6-9 1.2-1.8 2.3-1.8 5.5 0 7.8l6.7-6.7 1 1-6.7 6.7c1.1 1 2.6 1.4 4 1.4zm32 24.5l2.8 2.9-1 1-2.8-2.9c-.5-.5-1.3-.5-1.8 0l-1.4 1.4a2.81 2.81 0 01-3.9.1 2.81 2.81 0 01-.1-3.9l1.4-1.4c.5-.5.5-1.3 0-1.9l-2-2-2 2c-.3.3-.7.3-1 0L-8.6 309c-.4 0-.7.1-1.1.1-.4 0-.7 0-1.1-.1-4.3-.6-7.3-4.5-6.7-8.8.6-4.3 4.5-7.3 8.8-6.7 4.3.6 7.3 4.5 6.7 8.8l18.5 19.2c.3.3.3.7 0 1l-2 2 2 2c1.1 1.1 1.1 2.8 0 3.9l-1.5 1.4c-.5.5-.4 1.4.1 1.9.5.4 1.3.4 1.8 0l1.4-1.4c1.1-1.1 2.8-1.1 3.9 0z" class="st53" id="B"/><g id="g425"><defs id="defs416"><path d="M-9.2 319.2c.6 0 1.1-.5 1.1-1.1 0-.6-.5-1.1-1.1-1.1-.6 0-1.1.5-1.1 1.1 0 .6.5 1.1 1.1 1.1zm0-3.7c1.4 0 2.6 1.1 2.6 2.6s-1.1 2.6-2.6 2.6-2.6-1.1-2.6-2.6c0-1.4 1.2-2.6 2.6-2.6zm-3.7 17l-1.3 1.3 1.3 1.3-1 1-1.3-1.3-1.3 1.3-1-1 1.3-1.3-1.3-1.3 1-1 1.3 1.3 1.3-1.3zm36-36.5h1.5v1.5h-1.5v1.5h-1.5v-1.5h-1.5V296h1.5v-1.5h1.5zm-2.4 17.6c1-1.1 2.6-1.2 3.7-.2l.2.2-1 1.1c-.5-.5-1.3-.6-1.8-.1 0 0-.1 0-.1.1-1 1.1-2.6 1.2-3.7.2l-.2-.2c-.5-.5-1.3-.6-1.8-.1l-.1.1-1-1.1c1-1.1 2.6-1.2 3.7-.2l.2.2c.5.5 1.3.5 1.9 0zM10 293.9l.4 1.3-1.6.5v3.7c0 .3-.1.5-.4.6l-1.4.7-.6-1.2 1-.5v-3.7c0-.3.2-.6.5-.7zm-5.6 33.7c.2.1.3.4.3.6v4.4c0 .3-.2.5-.4.6l-1.4.8-.6-1.3 1-.5v-2.9l-2.9 1v3.9c0 .3-.2.5-.4.7l-1.4.7-.6-1.3 1-.5v-3.9c0-.3.2-.6.5-.7l4.3-1.5c.2-.2.4-.2.6-.1zm-6-17.3l1-1 1.4 1.4-1 1zm2.1 2.1l1-1 1.4 1.4-1 1zm2.2 2.1l1-1 2.1 2.1-1 1zm8.4 11.4l4-4-17.6-18.3-4.7 4.7zm-20.7-18.3c.4 0 .8 0 1.3-.1l5-5c.1-.4.1-.8.1-1.3 0-1.5-.5-2.9-1.4-4l-.9.9-1-1 .9-.9c-2.8-2.2-6.8-1.6-9 1.2-1.8 2.3-1.8 5.5 0 7.8l6.7-6.7 1 1-6.7 6.7c1.1 1 2.6 1.4 4 1.4zm32 24.5l2.8 2.9-1 1-2.8-2.9c-.5-.5-1.3-.5-1.8 0l-1.4 1.4a2.81 2.81 0 01-3.9.1 2.81 2.81 0 01-.1-3.9l1.4-1.4c.5-.5.5-1.3 0-1.9l-2-2-2 2c-.3.3-.7.3-1 0L-8.6 309c-.4 0-.7.1-1.1.1-.4 0-.7 0-1.1-.1-4.3-.6-7.3-4.5-6.7-8.8.6-4.3 4.5-7.3 8.8-6.7 4.3.6 7.3 4.5 6.7 8.8l18.5 19.2c.3.3.3.7 0 1l-2 2 2 2c1.1 1.1 1.1 2.8 0 3.9l-1.5 1.4c-.5.5-.4 1.4.1 1.9.5.4 1.3.4 1.8 0l1.4-1.4c1.1-1.1 2.8-1.1 3.9 0z" id="SVGID_45_"/></defs><clipPath id="SVGID_46_"><use height="100%" width="100%" y="0" x="0" id="use418" xlink:href="#SVGID_45_" overflow="visible"/></clipPath><g id="g423" clip-path="url(#SVGID_46_)"><path id="path421" d="M-20.3 290.5H28v48.3h-48.4z" class="st3"/></g></g></g><g id="g442" class="st52"><path d="M178.6 325.2c-.2.2-.4.5-.7.7-3.4 3.4-8 5.4-12.9 5.4 1.3-.9 2.5-1.9 2.9-3.1.2-.6 1.2-1.4 2.1-2.2 1.6-1.3 3.5-2.8 3.2-4.7-.1-.9-1.5-1.8-2.1-2.1-1.1-.7-2.4-1.1-3.7-1.1-.6 0-1.5-.9-2.4-1.7-1.8-1.8-4.4-4.1-7.5-2.5-1 .1-1.9-.1-2.8-.6-.9-.3-1.8-.9-2.4-1.6.2-1.1-.1-2.2-.8-3.1-.4-.6-.5-.8-.3-1.3s.5-1 .8-1.1c0 0 .2-.1.5.1s.4.5.6 1.1c.2.6.3 1.4 1.2 1.3 1.1 0 1.4-1.3 1.7-2.5.1-.3.1-.6.2-.8.1-.2.3-.5.9-.6.5-.1.9-.4 1.2-.8v-.1c.5-1 1.2-1.9 2.2-2.4.4-.2.8-.6 1-1 .1-.3.1-.6 0-.9v-.1c.3-.1.6-.1.8-.1.8-.1 1.7-.2 2.2-.8.8-1.2 1.2-2.6 1-4 1.6.1 3.1.3 4.6.8 2.5 3.1 2.7 3.9 2.7 4-.1.8.1 1.6.5 2.3-.9 1.4-1.4 3.1-1.5 4.8.2 1.5.7 2.9 1.5 4.1 1.2 2.1 2.1 2.5 2.5 2.6.7 0 1.5-.3 2.1-.7.6-.4 1.5-.9 1.8-.6 1 1 .8 4.2.5 6-.4 2.3-1 4.8-1.6 7.3zm-14.8 5.5l-.7.5h-.8c-.8-.1-1.6-.3-2.4-.5 0-.4 0-.9.1-1.4.4-3 .4-4.4-3.5-6.4-1.3-.7-1.9-2.1-1.6-3.5.1-.9.3-1.8.7-2.6v-.1c.1-.5-.3-.7-.5-.9l-.8-.4c-1.8-.8-6-2.8-6.6-5.5v-.2c-.4-1.8-.2-3.8.7-5.4 1.7-3.3 4.3-6 7.6-7.8.3.6.8 1 1.4 1.3.5.3 1.1 0 1.7-.6.4-.5.8-1.1 1.2-1.7.2-.3.3-.5.5-.8 1.2-.3 2.4-.4 3.6-.4.2 1.2-.1 2.4-.8 3.3-.1.2-1 .3-1.3.3-.6 0-1.1.1-1.6.5-.3.3-.4.7-.2 1.1.1.3.1.4-.5.7-1.1.7-2.1 1.7-2.6 2.9v.1c0 .1-.3.2-.5.2-.8.1-1.4.7-1.7 1.4-.1.3-.2.6-.2.9-.1.5-.3 1.4-.5 1.5 0-.1-.1-.3-.1-.4-.1-.8-.5-1.4-1.2-1.8-.4-.3-.9-.3-1.4-.2-.7.4-1.3 1-1.5 1.7-.4.8-.2 1.8.4 2.4.5.6.8 1.5.6 2.3-.1.5.2 1.1 1.1 1.7.9.6 1.9 1.2 2.9 1.5.9.4 1.9.5 2.9.2 1-.6 2.3-.6 3.3 0 1.1.6 2.1 1.4 3 2.3 1.1 1.1 2.1 2 3.2 2 2.2 0 4.5 1.8 4.6 2.2.2 1.3-1.4 2.5-2.8 3.7-1.2.9-2.2 1.8-2.5 2.8-.3 1-1.8 2-3 2.8zm-4.6-35.4c-.2.4-.5.8-.7 1.1-.2.3-.5.5-.5.5-.3-.2-.6-.5-.8-.8.6-.3 1.3-.6 2-.8zm23.9 10.4c-.9-2.2-2.1-4.2-3.7-6-.2-.2-.6-.2-.8 0-.2.2-.2.6 0 .8 3 3.4 4.6 7.7 4.6 12.2v1.1c-.2 3.1-1.2 6.2-2.9 8.8.4-1.6.8-3.3 1-5 .5-3.7.2-6-.9-7-.9-.8-2.2-.1-3.2.5-.4.3-.8.5-1.3.6-.7-.6-1.3-1.3-1.7-2.1-.7-1.1-1.1-2.3-1.3-3.6.1-1.6.6-3.1 1.5-4.4.1-.2.1-.4 0-.6-.4-.5-.6-1.1-.5-1.8.1-.3.2-.8-1.8-3.5.8.3 1.5.7 2.2 1.1.8.5 1.6 1.1 2.4 1.7.2.2.6.2.8-.1.2-.2.2-.6-.1-.8-2-1.7-4.3-3-6.8-3.7-1.9-.6-3.8-.9-5.8-.9h-1.2c-10.8.7-19 10-18.3 20.8.3 4.2 1.9 8.2 4.6 11.4.1.1.3.2.4.2.1 0 .3-.1.4-.1.2-.2.3-.6.1-.8-2.8-3.3-4.4-7.5-4.4-11.9 0-.9.1-1.8.2-2.8v.2c.8 3.2 5.1 5.2 7.2 6.2l.5.2c-.3.8-.5 1.6-.6 2.5-.2 2.2.5 3.8 2.2 4.7 3.3 1.7 3.2 2.6 2.9 5.2-.1.4-.1.8-.1 1.2-2.3-.8-4.4-2-6.2-3.7-.2-.2-.6-.2-.8 0-.2.2-.2.6 0 .8 2.1 1.9 4.6 3.3 7.4 4.1.3.1.5.1.8.2h.1l.3.1h.1l.3.1h.2l.3.1h.4l.5.1h1.1c.5 0 1.1.1 1.6.1 10.3 0 18.8-8 19.5-18.2v-1.5c0-2.4-.5-4.8-1.3-7.1z" class="st53" id="C"/><g id="g440"><defs id="defs431"><path d="M178.6 325.2c-.2.2-.4.5-.7.7-3.4 3.4-8 5.4-12.9 5.4 1.3-.9 2.5-1.9 2.9-3.1.2-.6 1.2-1.4 2.1-2.2 1.6-1.3 3.5-2.8 3.2-4.7-.1-.9-1.5-1.8-2.1-2.1-1.1-.7-2.4-1.1-3.7-1.1-.6 0-1.5-.9-2.4-1.7-1.8-1.8-4.4-4.1-7.5-2.5-1 .1-1.9-.1-2.8-.6-.9-.3-1.8-.9-2.4-1.6.2-1.1-.1-2.2-.8-3.1-.4-.6-.5-.8-.3-1.3s.5-1 .8-1.1c0 0 .2-.1.5.1s.4.5.6 1.1c.2.6.3 1.4 1.2 1.3 1.1 0 1.4-1.3 1.7-2.5.1-.3.1-.6.2-.8.1-.2.3-.5.9-.6.5-.1.9-.4 1.2-.8v-.1c.5-1 1.2-1.9 2.2-2.4.4-.2.8-.6 1-1 .1-.3.1-.6 0-.9v-.1c.3-.1.6-.1.8-.1.8-.1 1.7-.2 2.2-.8.8-1.2 1.2-2.6 1-4 1.6.1 3.1.3 4.6.8 2.5 3.1 2.7 3.9 2.7 4-.1.8.1 1.6.5 2.3-.9 1.4-1.4 3.1-1.5 4.8.2 1.5.7 2.9 1.5 4.1 1.2 2.1 2.1 2.5 2.5 2.6.7 0 1.5-.3 2.1-.7.6-.4 1.5-.9 1.8-.6 1 1 .8 4.2.5 6-.4 2.3-1 4.8-1.6 7.3zm-14.8 5.5l-.7.5h-.8c-.8-.1-1.6-.3-2.4-.5 0-.4 0-.9.1-1.4.4-3 .4-4.4-3.5-6.4-1.3-.7-1.9-2.1-1.6-3.5.1-.9.3-1.8.7-2.6v-.1c.1-.5-.3-.7-.5-.9l-.8-.4c-1.8-.8-6-2.8-6.6-5.5v-.2c-.4-1.8-.2-3.8.7-5.4 1.7-3.3 4.3-6 7.6-7.8.3.6.8 1 1.4 1.3.5.3 1.1 0 1.7-.6.4-.5.8-1.1 1.2-1.7.2-.3.3-.5.5-.8 1.2-.3 2.4-.4 3.6-.4.2 1.2-.1 2.4-.8 3.3-.1.2-1 .3-1.3.3-.6 0-1.1.1-1.6.5-.3.3-.4.7-.2 1.1.1.3.1.4-.5.7-1.1.7-2.1 1.7-2.6 2.9v.1c0 .1-.3.2-.5.2-.8.1-1.4.7-1.7 1.4-.1.3-.2.6-.2.9-.1.5-.3 1.4-.5 1.5 0-.1-.1-.3-.1-.4-.1-.8-.5-1.4-1.2-1.8-.4-.3-.9-.3-1.4-.2-.7.4-1.3 1-1.5 1.7-.4.8-.2 1.8.4 2.4.5.6.8 1.5.6 2.3-.1.5.2 1.1 1.1 1.7.9.6 1.9 1.2 2.9 1.5.9.4 1.9.5 2.9.2 1-.6 2.3-.6 3.3 0 1.1.6 2.1 1.4 3 2.3 1.1 1.1 2.1 2 3.2 2 2.2 0 4.5 1.8 4.6 2.2.2 1.3-1.4 2.5-2.8 3.7-1.2.9-2.2 1.8-2.5 2.8-.3 1-1.8 2-3 2.8zm-4.6-35.4c-.2.4-.5.8-.7 1.1-.2.3-.5.5-.5.5-.3-.2-.6-.5-.8-.8.6-.3 1.3-.6 2-.8zm23.9 10.4c-.9-2.2-2.1-4.2-3.7-6-.2-.2-.6-.2-.8 0-.2.2-.2.6 0 .8 3 3.4 4.6 7.7 4.6 12.2v1.1c-.2 3.1-1.2 6.2-2.9 8.8.4-1.6.8-3.3 1-5 .5-3.7.2-6-.9-7-.9-.8-2.2-.1-3.2.5-.4.3-.8.5-1.3.6-.7-.6-1.3-1.3-1.7-2.1-.7-1.1-1.1-2.3-1.3-3.6.1-1.6.6-3.1 1.5-4.4.1-.2.1-.4 0-.6-.4-.5-.6-1.1-.5-1.8.1-.3.2-.8-1.8-3.5.8.3 1.5.7 2.2 1.1.8.5 1.6 1.1 2.4 1.7.2.2.6.2.8-.1.2-.2.2-.6-.1-.8-2-1.7-4.3-3-6.8-3.7-1.9-.6-3.8-.9-5.8-.9h-1.2c-10.8.7-19 10-18.3 20.8.3 4.2 1.9 8.2 4.6 11.4.1.1.3.2.4.2.1 0 .3-.1.4-.1.2-.2.3-.6.1-.8-2.8-3.3-4.4-7.5-4.4-11.9 0-.9.1-1.8.2-2.8v.2c.8 3.2 5.1 5.2 7.2 6.2l.5.2c-.3.8-.5 1.6-.6 2.5-.2 2.2.5 3.8 2.2 4.7 3.3 1.7 3.2 2.6 2.9 5.2-.1.4-.1.8-.1 1.2-2.3-.8-4.4-2-6.2-3.7-.2-.2-.6-.2-.8 0-.2.2-.2.6 0 .8 2.1 1.9 4.6 3.3 7.4 4.1.3.1.5.1.8.2h.1l.3.1h.1l.3.1h.2l.3.1h.4l.5.1h1.1c.5 0 1.1.1 1.6.1 10.3 0 18.8-8 19.5-18.2v-1.5c0-2.4-.5-4.8-1.3-7.1z" id="SVGID_47_"/></defs><clipPath id="SVGID_48_"><use height="100%" width="100%" y="0" x="0" id="use433" xlink:href="#SVGID_47_" overflow="visible"/></clipPath><g id="g438" clip-path="url(#SVGID_48_)"><path id="path436" d="M142.8 290.8h44.1v44.1h-44.1z" class="st3"/></g></g></g><g id="g457" class="st52"><path d="M333.8 297.7c0 .8-.6 1.4-1.4 1.4-.8 0-1.4-.6-1.4-1.4 0-.8.6-1.4 1.4-1.4.8 0 1.4.6 1.4 1.4zm2.5 5.8c-.8 0-1.4-.6-1.4-1.4 0-.8.6-1.4 1.4-1.4.8 0 1.4.6 1.4 1.4 0 .8-.7 1.4-1.4 1.4zm1.4-9.7c0 .8-.6 1.4-1.4 1.4-.8 0-1.4-.6-1.4-1.4 0-.8.6-1.4 1.4-1.4.7 0 1.4.6 1.4 1.4zm-.9 3.6c.5 0 .8.2.8.5s-.4.6-.8.6-.8-.2-.8-.6c0-.4.4-.5.8-.5zm15.8 12.4c.4.2.6.7.6 1.1v14c0 .5-.3.9-.7 1.1-.2.1-.4.2-.6.2-.2 0-.5-.1-.7-.2l-4.3-2.6c-.3-.2-.4-.6-.2-1 .2-.3.6-.4.9-.3l4.3 2.6V311l-4.3 2.6c-.3.2-.7.1-.9-.2-.2-.3-.1-.7.2-1l4.4-2.6c.3-.2.9-.2 1.3 0zm-10.5-12.1c0 .8-.6 1.4-1.4 1.4-.8 0-1.4-.6-1.4-1.4 0-.8.6-1.4 1.4-1.4.8 0 1.4.6 1.4 1.4zm-5.4-8c4.6 0 8.3 3.7 8.2 8.3 0 1.9-.7 3.8-1.9 5.3-.1.2-.3.3-.5.3s-.3-.1-.4-.2c-.3-.2-.3-.7-.1-1 1-1.2 1.6-2.8 1.6-4.4 0-3.8-3.1-6.9-6.9-6.8-3.8 0-6.9 3.1-6.8 6.9 0 1.6.6 3.1 1.6 4.3.2.3.2.7-.1 1-.3.3-.7.2-.9 0l-.1-.1c-.5-.6-.9-1.3-1.2-2-.3.7-.7 1.4-1.2 2-.1.2-.3.3-.5.3s-.3-.1-.4-.2c-.3-.3-.3-.7-.1-1 1-1.2 1.6-2.8 1.6-4.4 0-3.8-3.1-6.9-6.9-6.9-3.8 0-6.9 3.1-6.9 6.9 0 1.6.6 3.2 1.6 4.4.3.3.2.7-.1 1-.3.3-.7.2-1-.1-1.2-1.5-1.9-3.4-1.9-5.3 0-4.5 3.6-8.3 8.1-8.3 3.3 0 6.3 1.9 7.7 5 1.1-3.1 4.1-5 7.5-5zm-10.1 8c0 .8-.6 1.4-1.4 1.4-.8 0-1.4-.6-1.4-1.4 0-.8.6-1.4 1.4-1.4.8 0 1.4.6 1.4 1.4zm-1.2 18.3c-.8.1-1.3.7-1.3 1.5.1.7.6 1.2 1.3 1.3h6.7c.8 0 1.4-.6 1.4-1.4 0-.8-.6-1.4-1.4-1.4-.8 0-1.4.6-1.4 1.4 0 .4-.2.7-.6.8-.4 0-.7-.2-.8-.6v-.2c0-1.5 1.3-2.7 2.8-2.6 1.5.1 2.7 1.3 2.6 2.8 0 1.5-1.2 2.6-2.7 2.6h-6.8c-1.5 0-2.8-1.2-2.8-2.7 0-1.5 1.2-2.8 2.7-2.8 1.5 0 2.8 1.2 2.8 2.7v.1c0 .4-.2.7-.6.8-.4 0-.7-.2-.8-.6v-.2c.2-.9-.4-1.5-1.1-1.5zm16-10.9c1.9 0 3.4 1.5 3.5 3.4v17.8c0 1.9-1.6 3.4-3.5 3.4h-11.1c-.4 0-.7-.3-.7-.7 0-.4.3-.7.7-.7h11.1c1.1 0 2.1-.9 2.1-2.1v-17.8c0-1.1-.9-2.1-2.1-2.1h-25c-1.1 0-2.1.9-2.1 2.1v6.9c0 .4-.3.7-.7.7h-.6v2.7h.7c.4 0 .7.3.7.7v6.9c0 1.1.9 2.1 2.1 2.1h11.1c.4 0 .7.3.7.7v1.4c0 .4-.4.7-.8.6-.3 0-.6-.3-.6-.6v-.7h-10.4c-1.9 0-3.4-1.5-3.5-3.4v-6.2h-.7c-.4 0-.7-.3-.7-.7v-4.1c0-.4.3-.7.7-.7h.7v-6.2c0-1.9 1.6-3.4 3.5-3.4zm-23.1-7.4c0 .8-.6 1.4-1.4 1.4-.8 0-1.4-.6-1.4-1.4 0-.8.6-1.4 1.4-1.4.8 0 1.3.6 1.4 1.4zm3 5.8c-.8 0-1.4-.6-1.4-1.4 0-.8.6-1.4 1.4-1.4.8 0 1.4.6 1.4 1.4 0 .8-.6 1.4-1.4 1.4zm0-6.1c.5 0 .8.2.8.5s-.4.6-.8.6-.8-.2-.8-.6c0-.4.3-.5.8-.5zm1.4-3.6c0 .8-.6 1.4-1.4 1.4-.8 0-1.4-.6-1.4-1.4 0-.8.6-1.4 1.4-1.4.7 0 1.4.6 1.4 1.4z" class="st53" id="D"/><g id="g455"><defs id="defs446"><path d="M333.8 297.7c0 .8-.6 1.4-1.4 1.4-.8 0-1.4-.6-1.4-1.4 0-.8.6-1.4 1.4-1.4.8 0 1.4.6 1.4 1.4zm2.5 5.8c-.8 0-1.4-.6-1.4-1.4 0-.8.6-1.4 1.4-1.4.8 0 1.4.6 1.4 1.4 0 .8-.7 1.4-1.4 1.4zm1.4-9.7c0 .8-.6 1.4-1.4 1.4-.8 0-1.4-.6-1.4-1.4 0-.8.6-1.4 1.4-1.4.7 0 1.4.6 1.4 1.4zm-.9 3.6c.5 0 .8.2.8.5s-.4.6-.8.6-.8-.2-.8-.6c0-.4.4-.5.8-.5zm15.8 12.4c.4.2.6.7.6 1.1v14c0 .5-.3.9-.7 1.1-.2.1-.4.2-.6.2-.2 0-.5-.1-.7-.2l-4.3-2.6c-.3-.2-.4-.6-.2-1 .2-.3.6-.4.9-.3l4.3 2.6V311l-4.3 2.6c-.3.2-.7.1-.9-.2-.2-.3-.1-.7.2-1l4.4-2.6c.3-.2.9-.2 1.3 0zm-10.5-12.1c0 .8-.6 1.4-1.4 1.4-.8 0-1.4-.6-1.4-1.4 0-.8.6-1.4 1.4-1.4.8 0 1.4.6 1.4 1.4zm-5.4-8c4.6 0 8.3 3.7 8.2 8.3 0 1.9-.7 3.8-1.9 5.3-.1.2-.3.3-.5.3s-.3-.1-.4-.2c-.3-.2-.3-.7-.1-1 1-1.2 1.6-2.8 1.6-4.4 0-3.8-3.1-6.9-6.9-6.8-3.8 0-6.9 3.1-6.8 6.9 0 1.6.6 3.1 1.6 4.3.2.3.2.7-.1 1-.3.3-.7.2-.9 0l-.1-.1c-.5-.6-.9-1.3-1.2-2-.3.7-.7 1.4-1.2 2-.1.2-.3.3-.5.3s-.3-.1-.4-.2c-.3-.3-.3-.7-.1-1 1-1.2 1.6-2.8 1.6-4.4 0-3.8-3.1-6.9-6.9-6.9-3.8 0-6.9 3.1-6.9 6.9 0 1.6.6 3.2 1.6 4.4.3.3.2.7-.1 1-.3.3-.7.2-1-.1-1.2-1.5-1.9-3.4-1.9-5.3 0-4.5 3.6-8.3 8.1-8.3 3.3 0 6.3 1.9 7.7 5 1.1-3.1 4.1-5 7.5-5zm-10.1 8c0 .8-.6 1.4-1.4 1.4-.8 0-1.4-.6-1.4-1.4 0-.8.6-1.4 1.4-1.4.8 0 1.4.6 1.4 1.4zm-1.2 18.3c-.8.1-1.3.7-1.3 1.5.1.7.6 1.2 1.3 1.3h6.7c.8 0 1.4-.6 1.4-1.4 0-.8-.6-1.4-1.4-1.4-.8 0-1.4.6-1.4 1.4 0 .4-.2.7-.6.8-.4 0-.7-.2-.8-.6v-.2c0-1.5 1.3-2.7 2.8-2.6 1.5.1 2.7 1.3 2.6 2.8 0 1.5-1.2 2.6-2.7 2.6h-6.8c-1.5 0-2.8-1.2-2.8-2.7 0-1.5 1.2-2.8 2.7-2.8 1.5 0 2.8 1.2 2.8 2.7v.1c0 .4-.2.7-.6.8-.4 0-.7-.2-.8-.6v-.2c.2-.9-.4-1.5-1.1-1.5zm16-10.9c1.9 0 3.4 1.5 3.5 3.4v17.8c0 1.9-1.6 3.4-3.5 3.4h-11.1c-.4 0-.7-.3-.7-.7 0-.4.3-.7.7-.7h11.1c1.1 0 2.1-.9 2.1-2.1v-17.8c0-1.1-.9-2.1-2.1-2.1h-25c-1.1 0-2.1.9-2.1 2.1v6.9c0 .4-.3.7-.7.7h-.6v2.7h.7c.4 0 .7.3.7.7v6.9c0 1.1.9 2.1 2.1 2.1h11.1c.4 0 .7.3.7.7v1.4c0 .4-.4.7-.8.6-.3 0-.6-.3-.6-.6v-.7h-10.4c-1.9 0-3.4-1.5-3.5-3.4v-6.2h-.7c-.4 0-.7-.3-.7-.7v-4.1c0-.4.3-.7.7-.7h.7v-6.2c0-1.9 1.6-3.4 3.5-3.4zm-23.1-7.4c0 .8-.6 1.4-1.4 1.4-.8 0-1.4-.6-1.4-1.4 0-.8.6-1.4 1.4-1.4.8 0 1.3.6 1.4 1.4zm3 5.8c-.8 0-1.4-.6-1.4-1.4 0-.8.6-1.4 1.4-1.4.8 0 1.4.6 1.4 1.4 0 .8-.6 1.4-1.4 1.4zm0-6.1c.5 0 .8.2.8.5s-.4.6-.8.6-.8-.2-.8-.6c0-.4.3-.5.8-.5zm1.4-3.6c0 .8-.6 1.4-1.4 1.4-.8 0-1.4-.6-1.4-1.4 0-.8.6-1.4 1.4-1.4.7 0 1.4.6 1.4 1.4z" id="SVGID_49_"/></defs><clipPath id="SVGID_50_"><use height="100%" width="100%" y="0" x="0" id="use448" xlink:href="#SVGID_49_" overflow="visible"/></clipPath><g id="g453" clip-path="url(#SVGID_50_)"><path id="path451" d="M308.8 286.8H356v47.1h-47.1v-47.1z" class="st3"/></g></g></g></g></g></svg>