<svg id="Layer_1" data-name="Layer 1" xmlns="http://www.w3.org/2000/svg" viewBox="0 0 486.73 408.14"><defs><clipPath id="clip-path" transform="translate(-31.45 -42.37)"><path class="cls-1" d="M202.7 50.79h308.08v170.98H202.7z"/></clipPath><clipPath id="clip-path-2" transform="translate(-31.45 -42.37)"><path class="cls-1" d="M369.47 150a50.94 50.94 0 00-50.94 51v97a50.94 50.94 0 0050.94 50.94A50.94 50.94 0 00420.41 298v-97a50.94 50.94 0 00-50.94-51z"/></clipPath><clipPath id="clip-path-5" transform="translate(-31.45 -42.37)"><path class="cls-1" d="M168.36 149.45A51.53 51.53 0 01219.89 201v98.14a51.52 51.52 0 01-51.53 51.52 51.51 51.51 0 01-51.52-51.52V201a51.51 51.51 0 0151.52-51.55z"/></clipPath><linearGradient id="linear-gradient" x1="50.55" y1="25.83" x2="491.97" y2="25.83" gradientTransform="matrix(1 0 0 -1 -31.45 433.63)" gradientUnits="userSpaceOnUse"><stop offset="0" stop-color="#e5e7f4"/><stop offset="1" stop-color="#eff1f8"/></linearGradient><style>.cls-1,.cls-15,.cls-18,.cls-19{fill:none}.cls-3{fill:#cde}.cls-4{fill:#fff}.cls-28{fill:#e0ebf7}.cls-15,.cls-18,.cls-19{stroke-miterlimit:10}.cls-9{fill:#9ad5ed}.cls-10{clip-path:url(#clip-path-2)}.cls-11{fill:#81c2ec}.cls-15,.cls-19{stroke:#0a0a0c;stroke-linecap:round}.cls-15,.cls-18{stroke-width:.86px}.cls-16{fill:#050707}.cls-17{fill:#ed7484}.cls-18{stroke:#050707}.cls-19{stroke-width:1.22px}.cls-20{fill:#eca8c9}.cls-21{clip-path:url(#clip-path-5)}.cls-22{fill:#ee91bb}</style></defs><g opacity=".7"><path class="cls-3" d="M163.84 0h322.89v187.81H163.84z"/><path class="cls-4" d="M171.25 8.41h308.08v170.98H171.25z"/><g clip-path="url(#clip-path)"><path style="isolation:isolate" opacity=".75" fill="#e0ebf7" d="M422.07 111.33V18.5h-56.41v96.7h-24.24V56.95h-60.19v74.2h-37.39v-89.2l-51.51-24.7v82.66h-29.45v82.65h323.17V61.68h-25.5v49.65h-38.48z"/><path class="cls-4" d="M231.75 59.5h6.4v6.4h-6.4zm0 12.32h6.4v6.4h-6.4zm0 24.65h6.4v6.4h-6.4zm0 24.65h6.4v6.4h-6.4zm0 12.33h6.4v6.4h-6.4zm-11.09-86.27h6.4v6.4h-6.4zm0 12.32h6.4v6.4h-6.4zm0 24.65h6.4v6.4h-6.4zm0 12.32h6.4v6.4h-6.4zm0 12.33h6.4v6.4h-6.4zm0 12.32h6.4v6.4h-6.4zm0 12.33h6.4v6.4h-6.4zM209.58 59.5h6.4v6.4h-6.4zm0 24.65h6.4v6.4h-6.4zm0 12.32h6.4v6.4h-6.4zm0 36.98h6.4v6.4h-6.4zm183.9-105.06h6.68v8.6h-6.68zm0 16.55h6.68v8.6h-6.68zm0 16.56h6.68v8.6h-6.68zm0 16.55h6.68v8.6h-6.68zm0 16.56h6.68v8.6h-6.68zm-11.57-66.22h6.68v8.6h-6.68zm0 16.55h6.68v8.6h-6.68zm0 49.67h6.68v8.6h-6.68zm-11.57-66.22h6.68v8.6h-6.68zm0 33.11h6.68v8.6h-6.68zm0 16.55h6.68v8.6h-6.68zm0 16.56h6.68v8.6h-6.68zM286.68 65.8h3.86v86.76h-3.86zm9.08 0h3.86v86.76h-3.86zm9.09 0h3.86v86.76h-3.86zm9.09 0h3.86v86.76h-3.86zm9.09 0h3.86v86.76h-3.86zm9.09 0h3.86v86.76h-3.86z"/></g><path class="cls-3" d="M381.38 0H389v187.81h-7.62zm-119.8 0h7.62v187.81h-7.62z"/></g><path class="cls-3" d="M0 65h106.64v90.11H0z"/><path fill="#fdfdfd" d="M6.93 70.86H99.7v77.85H6.93z"/><path stroke-miterlimit="10" stroke="#cde" stroke-width="1.71" fill="none" d="M27.19 66.07l25.6-22.4L77.31 65"/><path class="cls-3" d="M417.49 364.32h-90.38a8 8 0 01-8-8v-2.09a8 8 0 018-8h90.38a8 8 0 018 8v2.09a8 8 0 01-8 8z" transform="translate(-31.45 -42.37)"/><path class="cls-9" d="M369.47 150a50.94 50.94 0 00-50.94 51v97a50.94 50.94 0 0050.94 50.94A50.94 50.94 0 00420.41 298v-97a50.94 50.94 0 00-50.94-51z" transform="translate(-31.45 -42.37)"/><path class="cls-9" d="M369.47 150a50.94 50.94 0 00-50.94 51v97a50.94 50.94 0 0050.94 50.94A50.94 50.94 0 00420.41 298v-97a50.94 50.94 0 00-50.94-51z" transform="translate(-31.45 -42.37)"/><g class="cls-10"><path class="cls-11" d="M306.29 282.3c41.24-27.29 82.47 27.29 123.71 0V255c-41.24 27.29-82.47-27.29-123.71 0z" transform="translate(-31.45 -42.37)"/></g><g class="cls-10"><path class="cls-11" d="M306.29 322.63c41.24-27.29 82.47 27.28 123.71 0v-27.29c-41.24 27.29-82.47-27.29-123.71 0z" transform="translate(-31.45 -42.37)"/></g><g class="cls-10"><path class="cls-4" d="M333.09 245.82c14-2.06 27.89 7 30.14 8.52a12.14 12.14 0 004.31 0s15.23-11 30.45-8.74c-.25 3.74-3.24 37.2-3.24 37.2-8 1.14-13.72-.25-26.93 7.22a4 4 0 01-4.49.25c-13.24-7.49-18.94-6.1-27-7.24 0-.03-2.99-33.47-3.24-37.21z" transform="translate(-31.45 -42.37)"/><path d="M331.87 249.73c.26 3.93 3.4 39 3.4 39 8.41 1.2 14.38-.26 28.24 7.58l.26-37.39s-15.95-11.54-31.9-9.19z" transform="translate(-31.45 -42.37)" fill="#efc30f"/><path d="M368 258.62a13 13 0 01-4.71 0l.26 37.66a4.16 4.16 0 004.71-.26c.57.44 1.74-39.22-.26-37.4z" transform="translate(-31.45 -42.37)" fill="#f8b10a"/><path d="M399.86 249.47c-.26 3.93-3.4 39-3.4 39-8.4 1.2-14.38-.26-28.24 7.58l-.26-37.4s15.95-11.53 31.9-9.18z" transform="translate(-31.45 -42.37)" fill="#fbd604"/></g><path class="cls-15" d="M318.89 261.15s-25.1 33.5 18.17 8" transform="translate(-31.45 -42.37)"/><path class="cls-15" d="M307.93 218.72l-2.36 8.07 7.93.23m-.95-5.67l-6.98 5.44"/><path class="cls-15" d="M412.65 266.86c3.16 2.29 11.45 32.13-28.89 5.1" transform="translate(-31.45 -42.37)"/><path class="cls-15" d="M350.62 221.37l1.72 8.23-7.92-.39m1.38-5.57l6.54 5.96"/><path class="cls-9" d="M368.26 156.38a3 3 0 003-3v-14.29a3 3 0 00-3-3 3 3 0 00-3 3v14.26a3 3 0 003 3.03z" transform="translate(-31.45 -42.37)"/><path class="cls-9" d="M368.64 155.59a3.06 3.06 0 00.42-4.27l-9-11a3 3 0 00-4.27-.42 3 3 0 00-.42 4.27l9 11a3 3 0 004.27.42z" transform="translate(-31.45 -42.37)"/><path class="cls-9" d="M381.37 139.88a3 3 0 01.42 4.27l-9 11a3 3 0 01-4.27.42 3 3 0 01-.42-4.27l9-11a3 3 0 014.27-.42z" transform="translate(-31.45 -42.37)"/><circle class="cls-4" cx="358.04" cy="168.56" r="15.16"/><circle class="cls-16" cx="355.55" cy="166.15" r="10.94"/><ellipse class="cls-17" cx="389.38" cy="235.11" rx="9.4" ry="3.64" transform="rotate(-2.52 -590.156 928.611)"/><path class="cls-18" d="M371.08 231.69c-3.58 6-8.28 4.09-11.26.13" transform="translate(-31.45 -42.37)"/><circle class="cls-4" cx="312.86" cy="167.02" r="15.16"/><circle class="cls-16" cx="310.12" cy="164.8" r="10.95"/><ellipse class="cls-17" cx="342.71" cy="232.7" rx="9.4" ry="3.64" transform="rotate(-2.52 -636.728 926.222)"/><path class="cls-18" d="M351.2 188.23c-4.79-4.8-11.21-1.17-11.21-1.17m54.72 3.75c-4.79-4.8-11.21-1.17-11.21-1.17" transform="translate(-31.45 -42.37)"/><path class="cls-19" d="M374.84 339c-29.84 5-9.36 38.32-9.36 38.32l-9.89.53" transform="translate(-31.45 -42.37)"/><path class="cls-3" d="M68.11 290.17l-9.81-.5-16.62 118h6.99l19.44-117.5zm335.73 0l9.82-.5 16.62 118h-6.99l-19.45-117.5zm-282.65 18.14l-13.57.85-36.8 98.51h4.42l45.95-99.36zm30.37 0l13.57.85 36.8 98.51h-4.42l-45.95-99.36z"/><path class="cls-3" d="M212.1 364.32h-90.37a8 8 0 01-8-8v-2.09a8 8 0 018-8h90.37a8 8 0 018 8v2.09a8 8 0 01-8 8z" transform="translate(-31.45 -42.37)"/><path class="cls-20" d="M168.36 149.45A51.53 51.53 0 01219.89 201v98.14a51.52 51.52 0 01-51.53 51.52 51.51 51.51 0 01-51.52-51.52V201a51.51 51.51 0 0151.52-51.55z" transform="translate(-31.45 -42.37)"/><path class="cls-20" d="M168.36 149.45A51.53 51.53 0 01219.89 201v98.14a51.52 51.52 0 01-51.53 51.52 51.51 51.51 0 01-51.52-51.52V201a51.51 51.51 0 0151.52-51.55z" transform="translate(-31.45 -42.37)"/><g class="cls-21"><path class="cls-22" d="M232.27 283.27c-41.71-27.61-83.42 27.6-125.13 0v-27.61c41.71 27.61 83.42-27.6 125.13 0z" transform="translate(-31.45 -42.37)"/></g><g class="cls-21"><path class="cls-22" d="M232.27 324.06c-41.71-27.61-83.42 27.6-125.13 0v-27.61c41.71 27.61 83.42-27.6 125.13 0z" transform="translate(-31.45 -42.37)"/></g><path class="cls-20" d="M169.59 155.89a3.08 3.08 0 01-3.07-3.07v-14.41a3.08 3.08 0 013.07-3.07 3.07 3.07 0 013.06 3.07v14.41a3.07 3.07 0 01-3.06 3.07z" transform="translate(-31.45 -42.37)"/><path class="cls-20" d="M169.21 155.1a3.08 3.08 0 01-.43-4.32l9.14-11.15a3.08 3.08 0 014.32-.42 3.07 3.07 0 01.42 4.31l-9.14 11.15a3.08 3.08 0 01-4.31.43z" transform="translate(-31.45 -42.37)"/><path class="cls-20" d="M156.32 139.21a3.07 3.07 0 00-.42 4.31l9.1 11.15a3.07 3.07 0 004.31.42 3.06 3.06 0 00.43-4.31l-9.14-11.15a3.08 3.08 0 00-4.28-.42z" transform="translate(-31.45 -42.37)"/><circle class="cls-4" cx="116.65" cy="168.7" r="15.34"/><circle class="cls-16" cx="119.17" cy="172.37" r="11.07"/><ellipse class="cls-17" cx="148.19" cy="235.54" rx="3.68" ry="9.51" transform="rotate(-87.48 110.341 230.793)"/><path class="cls-16" d="M172.12 236.64h-.27c-2.2-.11-4.12-1.53-5.72-4.2l1.2-.72c1.35 2.25 2.89 3.44 4.59 3.53 1.87.1 3.92-1.16 5.65-3.46l1.12.84c-1.93 2.56-4.31 4.01-6.57 4.01z" transform="translate(-31.45 -42.37)"/><circle class="cls-4" cx="162.36" cy="167.14" r="15.34"/><circle class="cls-16" cx="165.13" cy="171" r="11.07"/><ellipse class="cls-17" cx="195.41" cy="233.11" rx="3.68" ry="9.51" transform="rotate(-87.48 157.56 228.353)"/><path class="cls-16" d="M187.34 188.6l-1-1c5.16-5.17 12.1-1.34 12.17-1.3l-.68 1.22c-.24-.12-6.09-3.32-10.49 1.08zm-44.01 2.61l-1-1c5.15-5.17 12.1-1.34 12.17-1.3l-.69 1.21c-.23-.12-6.08-3.32-10.48 1.09z" transform="translate(-31.45 -42.37)"/><path fill="#fac66c" d="M48.48 278.48h382.94v11.98H48.48z"/><path class="cls-19" d="M163.38 339c29.83 5 9.35 38.32 9.35 38.32l9.89.53" transform="translate(-31.45 -42.37)"/><path fill="#575aa3" d="M191.43 278.72h-41l2.32-3.96h38.68v3.96z"/><path class="cls-4" d="M177.25 278.72h94.05l2.32-65.32h-92.89l-3.48 65.32z"/><path fill="#8480bb" d="M178.76 278.72h94.05l2.32-65.32h-92.89l-3.48 65.32z"/><ellipse class="cls-4" cx="259.33" cy="289.43" rx="7.57" ry="6.56" transform="rotate(-47.04 194.935 304.387)"/><path class="cls-19" d="M131.71 274.2s4.55 35.88 37.69 17.62" transform="translate(-31.45 -42.37)"/><path class="cls-19" d="M140.74 240.28l-4.18 9.95 10.08 1.43m-.39-7.36l-9.69 5.93"/><path class="cls-19" d="M193.89 336.61c28.31 10.68 1.77 39.41 1.77 39.41l9.6 2.43" transform="translate(-31.45 -42.37)"/><path class="cls-3" d="M323.68 308.31l-13.57.85-36.8 98.51h4.42l45.95-99.36zm30.37 0l13.57.85 36.79 98.51h-4.42l-45.94-99.36z"/><path stroke-width=".69" stroke="url(#linear-gradient)" stroke-miterlimit="10" fill="none" d="M19.1 407.8h441.42"/><path class="cls-19" d="M343.48 336c-28.31 10.68-1.78 39.4-1.78 39.4l-9.6 2.44" transform="translate(-31.45 -42.37)"/><g opacity=".75"><path class="cls-28" d="M88.5 161.6a6.76 6.76 0 01-6.67 0l-15.09-9.25s-1.36-.84-1.36 1.05v9.24c0 4.87 8.86 10.12 19.78 10.12s19.78-5.25 19.78-10.12v-9.76c0-1.51-1-.77-1-.77z" transform="translate(-31.45 -42.37)"/><path class="cls-28" d="M110.25 145a1.4 1.4 0 000-2.59l-23-11.49a4.45 4.45 0 00-4.22 0l-23 11.49a1.4 1.4 0 000 2.59l23 14.09a4.45 4.45 0 004.22 0m22.05 6.79v-15.57s0-.73-.42-.49a12.42 12.42 0 00-1.52.94c-.35.3-.27 1-.27 1v14.13a.43.43 0 01-.25.35 2.65 2.65 0 00-1.33 2.31 2.69 2.69 0 104-2.32.41.41 0 01-.25-.34z" transform="translate(-31.45 -42.37)"/></g></svg>