<svg xmlns="http://www.w3.org/2000/svg" height="307.45" width="566.47" version="1.1" data-name="Layer 1" id="Layer_1"><defs id="defs13"><clipPath transform="translate(-14.56 -39.71)" id="clip-path"><path id="path2" d="M531.92 157.51a49.28 49.28 0 00-49.28 49.27v93.86a49.29 49.29 0 0049.28 49.28 49.28 49.28 0 0049.27-49.28v-93.86a49.27 49.27 0 00-49.27-49.27z" class="cls-1"/></clipPath><clipPath transform="translate(-14.56 -39.71)" id="clip-path-3"><path id="path5" d="M74 150.65a50 50 0 0150 50v95.25a50 50 0 01-50 50 50 50 0 01-50-50v-95.25a50 50 0 0150-50z" class="cls-1"/></clipPath><clipPath transform="translate(-14.56 -39.71)" id="clip-path-5"><path id="path8" d="M322.36 278.72c.07 4.9-5.86 9-13.25 9.07-7.39.07-13.45-3.78-13.52-8.68-.07-4.9 6.16-1.59 13.55-1.7 7.39-.11 13.15-3.59 13.22 1.31z" class="cls-1"/></clipPath><style id="style11">.cls-1{fill:none}.cls-2{fill:#fff}.cls-3{fill:#9ad5ed}.cls-6{fill:#b6c9e1}.cls-7{fill:#0a0a0c}.cls-8{fill:#fbd604}.cls-9{clip-path:url(#clip-path)}.cls-10{fill:#f8ab14}.cls-11{fill:#050707}.cls-12{fill:#ed7484}.cls-13{fill:#fac66c}.cls-14{clip-path:url(#clip-path-3)}.cls-15{fill:#81c2ec}.cls-17{fill:#020203}.cls-18{fill:#efc30f}.cls-19{clip-path:url(#clip-path-5)}.cls-20{fill:#e85552}</style></defs><path id="path17" d="M343.55 101.83h100.17v79.02H343.55z" class="cls-3"/><path id="path19" d="M257.2 198.33H460v23.19H257.2z" fill="#f5b9bd"/><path id="path21" d="M99.79 0h362.38v85.3H99.79z" fill="#f3f8fe"/><path id="path23" d="M331.5 181.7H229.62v-80.73H331.5zm-100.17-1.71h98.46v-77.31h-98.46z" class="cls-6"/><path id="path25" d="M388.01 140.69v-14.45l9.93 7.23 9.92 7.22-9.92 7.23-9.93 7.23z" class="cls-2"/><path id="path27" d="M518.46 305.38h-8.76a.81.81 0 110-1.62h6.06c-1.77-3.94-6.51-17.21-1.18-37.94a.81.81 0 011.57.4c-6.14 23.86 1.54 37.81 1.62 37.95zm-16.28 0h-7.36a.81.81 0 110-1.62h6.06c-1.78-3.94-6.52-17.21-1.19-37.94a.82.82 0 011-.58.81.81 0 01.58 1c-6.12 23.8 1.55 37.81 1.62 37.95l.69 1.21z" class="cls-7"/><path id="path29" d="M507.92 75.76a49.28 49.28 0 00-49.28 49.27v93.86a49.29 49.29 0 0049.28 49.28 49.28 49.28 0 0049.27-49.28v-93.86a49.27 49.27 0 00-49.27-49.27z" class="cls-8"/><path id="path31" d="M507.92 75.76a49.28 49.28 0 00-49.28 49.27v93.86a49.29 49.29 0 0049.28 49.28 49.28 49.28 0 0049.27-49.28v-93.86a49.27 49.27 0 00-49.27-49.27z" class="cls-8"/><g transform="translate(-9.44 -42.04)" id="g35" clip-path="url(#clip-path)" class="cls-9"><path id="path33" transform="translate(-14.56 -39.71)" d="M470.8 285.48c39.89-26.4 79.78 26.39 119.67 0v-26.4c-39.89 26.4-79.78-26.4-119.67 0z" class="cls-10"/></g><g transform="translate(-9.44 -42.04)" id="g39" clip-path="url(#clip-path)" class="cls-9"><path id="path37" transform="translate(-14.56 -39.71)" d="M470.8 324.49c39.89-26.4 79.78 26.39 119.67 0v-26.4c-39.89 26.4-79.78-26.4-119.67 0z" class="cls-10"/></g><path id="path41" d="M506.75 81.92a2.94 2.94 0 002.93-2.93V65.25a2.94 2.94 0 00-2.93-2.93 2.94 2.94 0 00-2.94 2.93v13.79a2.94 2.94 0 002.94 2.88z" class="cls-8"/><path id="path43" d="M507.11 81.16a3 3 0 00.41-4.13l-8.74-10.66a3 3 0 00-4.13-.41 2.94 2.94 0 00-.41 4.13L503 80.75a3 3 0 004.11.41z" class="cls-8"/><path id="path45" d="M519.43 65.96a2.94 2.94 0 01.41 4.13l-8.74 10.66a3 3 0 01-4.13.41 3 3 0 01-.41-4.13l8.74-10.66a2.94 2.94 0 014.13-.41z" class="cls-8"/><circle id="circle47" r="14.66" cy="134.69" cx="527.29" class="cls-2"/><circle id="circle49" r="10.59" cy="134.91" cx="523.61" class="cls-11"/><ellipse id="ellipse51" transform="rotate(-2.52)" ry="3.52" rx="9.09" cy="181.061" cx="519.703" class="cls-12"/><path id="path53" d="M504.32 159.25c-2.2 0-4.52-1.41-6.39-3.9l1.29-1c1.63 2.16 3.56 3.32 5.29 3.25 1.57-.09 3-1.2 4.27-3.31l1.39.83c-1.93 3.24-4.1 4-5.58 4.1z" class="cls-11"/><circle id="circle55" r="14.67" cy="133.2" cx="483.58" class="cls-2"/><circle id="circle57" r="10.59" cy="133.6" cx="479.66" class="cls-11"/><ellipse id="ellipse59" transform="rotate(-2.52)" ry="3.52" rx="9.09" cy="176.755" cx="474.7" class="cls-12"/><path id="path61" d="M489.67 113.3c-4.14-4.15-9.81-1-9.87-1l-.79-1.41c.06 0 6.8-3.75 11.81 1.27zm42.09 2.5c-4.13-4.14-9.64-1.13-9.87-1l-.8-1.42c.07 0 6.81-3.75 11.81 1.27z" class="cls-11"/><path id="path63" d="M463.646 230.03l7.752-65.694 79.508 9.382-7.752 65.694z" class="cls-6"/><path id="path65" d="M455.1 201.25a3.79 3.79 0 01-3.09-1.16c-.6-.66-3.08-4.6 6.32-17.16a.81.81 0 011.14-.16.8.8 0 01.16 1.13c-3.77 5-8.25 13.06-6.42 15.11.88 1 4.87 2.1 22.94-8.55a.83.83 0 011.11.29.81.81 0 01-.29 1.11c-12.5 7.39-18.66 9.39-21.87 9.39z" class="cls-7"/><path id="path67" d="M484.2 192.25l-8.71-.25 2.58-8.82a.81.81 0 011.55.46l-2 6.8 6.62.19a.81.81 0 01.79.83.82.82 0 01-.83.79z" class="cls-7"/><path id="path69" d="M476.53 192.02a.81.81 0 01-.5-1.45l6.76-5.26a.812.812 0 011 1.28l-6.79 5.26a.81.81 0 01-.47.17zM554 205.58c-4.68 0-12.31-2.7-24.69-11a.81.81 0 01-.22-1.12.82.82 0 011.13-.23c20.45 13.71 26.58 11.36 28.4 8.73 2.63-3.76-.23-11.5-1.38-12.34a.8.8 0 01-.19-1.13.83.83 0 011.14-.18c2 1.48 4.79 10.24 1.76 14.58-1.06 1.52-2.87 2.69-5.95 2.69z" class="cls-7"/><path id="path71" d="M530.8 194.79l-8.71-.43a.8.8 0 01-.77-.85.81.81 0 01.84-.77l6.62.32-1.46-6.93a.812.812 0 011.59-.33z" class="cls-7"/><path id="path73" d="M529.79 194.73a.82.82 0 01-.55-.21l-6.33-5.76a.814.814 0 011.1-1.2l6.33 5.76a.82.82 0 010 1.15.79.79 0 01-.55.26z" class="cls-7"/><path id="path75" d="M222 181.59H120.09v-79.62H222zm-100.17-1.71h98.47v-76.21h-98.5v76.21z" class="cls-13"/><path id="path77" d="M94.76 186.49a45.81 45.81 0 01-24.91-6.7.814.814 0 01.83-1.4c10.38 6.16 24.34 10.5 55.93.71a.81.81 0 01.48 1.54c-13.61 4.22-24.03 5.85-32.33 5.85z" class="cls-7"/><path id="path79" d="M134.53 181.74h-.11l-8.76-1.2 3.56-8.6a.81.81 0 011.49.62l-2.71 6.69 6.68.92a.8.8 0 01.69.91.82.82 0 01-.84.66z" class="cls-7"/><path id="path81" d="M126.81 180.68a.83.83 0 01-.69-.38.82.82 0 01.27-1.12l7.38-4.57a.82.82 0 011.12.27.81.81 0 01-.26 1.11l-7.39 4.57a.82.82 0 01-.43.12zM48.17 301.91H39.3l.69-1.21c.08-.14 7.86-14.36 1.64-38.52a.82.82 0 01.59-1 .8.8 0 011 .59c5.42 21.06.59 34.54-1.21 38.51h6.17a.81.81 0 010 1.62zm15.1 0h-8.86l.68-1.21c.08-.14 7.87-14.36 1.65-38.52a.81.81 0 111.57-.4c5.42 21.06.59 34.54-1.21 38.51h6.17a.81.81 0 110 1.62z" class="cls-7"/><path id="path83" d="M50 68.9a50 50 0 0150 50v95.25a50 50 0 01-50 50 50 50 0 01-50-50V118.9a50 50 0 0150-50z" class="cls-3"/><path id="path85" d="M50 68.9a50 50 0 0150 50v95.25a50 50 0 01-50 50 50 50 0 01-50-50V118.9a50 50 0 0150-50z" class="cls-3"/><g transform="translate(-9.44 -42.04)" id="g89" clip-path="url(#clip-path-3)" class="cls-14"><path id="path87" transform="translate(-14.56 -39.71)" d="M136 280.51c-40.48-26.79-81 26.79-121.44 0v-26.79c40.48 26.79 81-26.78 121.44 0z" class="cls-15"/></g><g transform="translate(-9.44 -42.04)" id="g93" clip-path="url(#clip-path-3)" class="cls-14"><path id="path91" transform="translate(-14.56 -39.71)" d="M136 320.1c-40.48-26.79-81 26.79-121.44 0v-26.79c40.48 26.79 81-26.79 121.44 0z" class="cls-15"/></g><path id="path95" d="M51.17 75.15a3 3 0 01-3-3v-14a3 3 0 013-3 3 3 0 013 3v14a3 3 0 01-3 3z" class="cls-3"/><path id="path97" d="M50.79 74.37a3 3 0 01-.41-4.18l8.87-10.82a3 3 0 014.19-.41 3 3 0 01.42 4.18L55 73.96a3 3 0 01-4.21.41z" class="cls-3"/><path id="path99" d="M38.29 58.96a3 3 0 00-.41 4.18l8.87 10.82a3 3 0 004.19.41 3 3 0 00.41-4.18l-8.87-10.82a3 3 0 00-4.19-.41z" class="cls-3"/><circle id="circle101" r="14.88" cy="122.08" cx="81.93" class="cls-2"/><circle id="circle103" r="10.74" cy="123.88" cx="86.04" class="cls-11"/><ellipse id="ellipse105" transform="rotate(-73.19)" ry="6.46" rx="3.12" cy="109.816" cx="-114.859" class="cls-12"/><path id="path107" d="M89.89 152.25a17.21 17.21 0 01-7-1.71l.66-1.48c7.38 3.31 11.63 1.05 15.73-3.36l1.19 1.1c-3.4 3.66-6.77 5.45-10.58 5.45zM74 105.98l-1.39-.84c3.7-6.16 11.23-4.15 11.31-4.12l-.43 1.56c-.31-.07-6.49-1.7-9.49 3.4z" class="cls-11"/><path id="path109" d="M104.336 153.89l93.611-10.334 8.54 77.35-93.611 10.335z" class="cls-13"/><path id="path111" d="M94.76 198.09a45.81 45.81 0 01-24.91-6.7.814.814 0 01.83-1.4c10.38 6.16 24.34 10.5 55.93.71a.81.81 0 011 .53.82.82 0 01-.53 1c-13.6 4.23-24.02 5.86-32.32 5.86z" class="cls-7"/><path id="path113" d="M134.53 193.34h-.11l-8.76-1.2 3.56-8.6a.81.81 0 011.49.62l-2.71 6.65 6.68.91a.812.812 0 01-.11 1.62z" class="cls-7"/><path id="path115" d="M126.81 192.25a.83.83 0 01-.69-.38.82.82 0 01.27-1.12l7.38-4.57a.82.82 0 011.12.27.81.81 0 01-.26 1.11l-7.39 4.57a.82.82 0 01-.43.12z" class="cls-7"/><path id="path123" d="M217.343 172.348l.805-.793 23.509 23.88-.806.793z" class="cls-17"/><path id="path125" d="M210.73 167.25a5.38 5.38 0 017.44-1.49l.68.45c2.46 1.64 4.28 5.76 2.65 8.22a6.53 6.53 0 01-8.44.93l-.84-.66a5.39 5.39 0 01-1.49-7.45z" class="cls-17"/><path id="path127" d="M293.65 266.89h11.73c37.4 0 60.77-40.49 42.07-72.88l-5.86-10.16-32.37-56.06a18 18 0 00-31.14 0l-32.37 56.06-5.86 10.16c-18.7 32.39 4.68 72.88 42.08 72.88z" class="cls-8"/><path id="path129" d="M348.07 194.01l-5.86-10.16-32.37-56.06a17.79 17.79 0 00-17.2-8.87 17.73 17.73 0 0113.81 8.87l32.37 56.06 5.86 10.16c18.7 32.39-4.68 72.88-42.08 72.88h3.4c37.39 0 60.77-40.49 42.07-72.88z" class="cls-18"/><path id="path131" d="M292.36 259.48l14.38 46.28a102.29 102.29 0 0013.63 1.65c5.84.15 8.09-.15 9.14-.45 1.05-.3 1.46-2.43-.15-4-2.1-2.09-3.3-3.59-10.64-3.14-7.34.45-9.43 2-9.43 2l-13.48-42.09zm-10.63 6.14s3.15 25.31 3.75 31.75c.6 6.44.74 8.69.74 8.69s-7.78.75-11.08.75-8.09-.15-9.88-.15a6.23 6.23 0 01-3.15-.9l.3-1.8s5.39-3.89 9.14-4c3.75-.11 10.18 2.1 10.18 2.1s-2.39-19.77-2.54-24.12c-.15-4.35-.15-12.13-.15-12.13z" class="cls-8"/><path id="path133" d="M309.52 246.51l-.19-1.12c18.13-2.93 28.82-8.95 31.77-17.88 4.55-13.77-11.1-30.06-11.25-30.26l.81-.79a58 58 0 017.54 10.16c4.58 7.88 5.95 15.21 4 21.2-3.12 9.43-14.11 15.67-32.68 18.69z" class="cls-17"/><path id="path135" d="M308 257.58a5.38 5.38 0 01-3.87-6.53l.2-.79c.73-2.86 4-5.94 6.88-5.21a6.51 6.51 0 013.66 7.65l-.34 1a5.38 5.38 0 01-6.53 3.88zm-9.64-60.61c.07 4.9-5.86 9-13.25 9.07-7.39.07-13.45-3.78-13.52-8.68-.07-4.9 6.16-1.59 13.55-1.7 7.39-.11 13.15-3.59 13.22 1.31z" class="cls-17"/><g transform="translate(-9.44 -42.04)" id="g139" clip-path="url(#clip-path-5)" class="cls-19"><ellipse id="ellipse137" transform="rotate(-.83 -2439.21 1274.639)" ry="7.98" rx="11.25" cy="289.16" cx="308.96" class="cls-20"/></g><g transform="translate(-9.44 -42.04)" id="g143" clip-path="url(#clip-path-5)" class="cls-19"><ellipse id="ellipse141" transform="rotate(-.83 -2439.09 1258.072)" ry="7.72" rx="11.24" cy="272.4" cx="308.61" class="cls-2"/></g><path id="path145" d="M260.77 183.92a7.26 7.26 0 00-7.14 7.38.67.67 0 00.69.66.66.66 0 00.68-.71 5.91 5.91 0 015.81-6 5.89 5.89 0 016 5.8.69.69 0 00.69.67.69.69 0 00.67-.69 7.27 7.27 0 00-7.36-7.14zm46.4-.67a7.26 7.26 0 00-7.14 7.37.69.69 0 00.69.67.68.68 0 00.66-.69 5.91 5.91 0 015.81-6 5.91 5.91 0 016 5.81.68.68 0 00.69.66.67.67 0 00.67-.69 7.27 7.27 0 00-7.38-7.13z" class="cls-17"/><ellipse id="ellipse147" transform="rotate(-.83)" ry="1.77" rx="2.9" cy="203.212" cx="255.557" class="cls-20"/><ellipse id="ellipse149" transform="rotate(-.83)" ry="1.77" rx="2.9" cy="203.222" cx="306.477" class="cls-20"/><path id="path151" d="M293.48 124.49a3.09 3.09 0 01-3.08-3.08V106.9a3.09 3.09 0 013.08-3.08 3.1 3.1 0 013.09 3.08v14.51a3.1 3.1 0 01-3.09 3.08z" class="cls-8"/><path id="path153" d="M293.1 123.69a3.08 3.08 0 01-.43-4.34l9.19-11.21a3.09 3.09 0 014.35-.43 3.1 3.1 0 01.43 4.34l-9.2 11.2a3.09 3.09 0 01-4.34.44z" class="cls-8"/><path id="path155" d="M280.14 107.71a3.09 3.09 0 00-.43 4.34l9.2 11.21a3.09 3.09 0 004.34.43 3.1 3.1 0 00.43-4.34l-9.2-11.22a3.09 3.09 0 00-4.34-.42z" class="cls-8"/><ellipse id="ellipse157" transform="rotate(-19.88)" ry="6.18" rx="2.59" cy="291.849" cx="152.035" class="cls-18"/><ellipse id="ellipse159" transform="rotate(-19.88)" ry="3.35" rx="1.81" cy="301.933" cx="156.584" class="cls-18"/><ellipse id="ellipse161" transform="rotate(-19.88)" ry="2.52" rx="1.29" cy="305.157" cx="150.012" class="cls-18"/></svg>