<svg xmlns="http://www.w3.org/2000/svg" width="835.616" height="636.056"><defs><clipPath id="a"><path data-name="Path 2126" d="M1528.879 592.438q8.775 5.066 17.783 9.733a432.293 432.293 0 00186.07 47.686c76.4 2.079 152.847-16.308 217.377-57.189 45.883-29.065 84.345-70.71 112.091-118.7l.227-.394c58.614-101.67 69.13-231.674.164-330.754-94.94-136.406-298.6-175.77-427.018-63.149-70.283 61.634-135.64 123.077-236.456 97.05-20.567-5.31-40.335-13.674-61.217-17.582-114.376-21.4-42.288 140.245-21.877 187.452 43.653 100.955 117.145 190.591 212.838 245.839z" transform="translate(-251.819 2586.041)" fill="#9ed6f0"/></clipPath></defs><path data-name="Path 1934" d="M254.06 578.479q8.775 5.066 17.783 9.733a432.293 432.293 0 00186.07 47.686c76.4 2.079 152.847-16.308 217.377-57.189 45.883-29.065 84.345-70.71 112.091-118.7l.227-.394c58.614-101.67 69.13-231.674.164-330.754-94.94-136.406-298.6-175.77-427.018-63.149-70.283 61.634-135.64 123.077-236.456 97.05-20.567-5.31-40.335-13.674-61.217-17.582-114.376-21.4-42.288 140.245-21.877 187.452 43.653 100.955 117.145 190.591 212.838 245.839z" fill="#9ed6f0"/><g data-name="Mask Group 10" transform="translate(-1023 -2600)" clip-path="url(#a)"><path data-name="Path 2125" d="M1842.625 3181.889c-6.694-9.647-13.649-9.275-19.514 1.017-.4.7-.733 1.43-1.142 2.117a172.2 172.2 0 01-36.248 43.908c-2 1.708-4.475 2.878-7.855 5-.167-3.278-.622-5.32-.279-7.214.687-3.937 1.811-7.809 2.758-11.7 3.965-16.36 8.059-32.692 11.829-49.089 1.309-5.645-1.383-10.882-5.664-12.609-4.624-1.857-10.065.232-13.333 5.357a68.382 68.382 0 00-4.605 8.458 210.837 210.837 0 01-42.246 62.032c-5.144 5.2-11.625 9.313-17.994 13.082-5.766 3.408-10.854.715-11.652-5.868a36.29 36.29 0 01.464-12.869c5.692-23.036 14.122-44.967 28.189-64.511a36.458 36.458 0 005.172-10.2c1.244-3.992-.455-7.632-3.872-10.139a8.048 8.048 0 00-9.953-.056c-3.092 2.256-6.36 4.782-8.347 7.929-6.685 10.613-13.463 21.244-19.034 32.441-8.96 18.022-19.638 34.772-33.76 49.247-6 6.147-12.488 11.792-21.272 13.974-6.917 1.727-12.9-.093-16.406-5.413a38.107 38.107 0 01-5.738-24.661c.78-.91 13.732-16.109 28.337-30.826 3.138-3.157 6.472-6.936 9.8-10.928a305.9 305.9 0 0052.84-85.263c4.311-10.567 7.811-21.458 7.401-33.129-.445-12.702-10.79-21.458-23.472-19.77-10.018 1.33-17.334 7.365-23.463 14.5-28.894 33.653-46.739 73-59.72 114.738-2.414 7.753-4.178 16.861-7.186 28.746-.511 3.11-.771 5.924-1.021 8.728-9.74 12.154-22.924 24.428-32.971 32.59a60.832 60.832 0 01-13.147 8.087c-2.061.938-6.165.687-7.456-.715-1.551-1.69-1.829-5.32-1.318-7.846a28.545 28.545 0 014.113-9.693c6.741-10.408 13.89-20.557 20.7-30.928 8.273-12.609 6.62-22.85-5.4-31.893-5.283-3.974-11.114-7.251-16.787-10.705-3.909-2.386-5.738-5.283-4.4-10.028a53.188 53.188 0 002.191-12.247c.418-10.13-6.3-14.689-16-11.235-10.715 3.816-17.4 16.239-14.373 27.279 1.578 5.738 2.033 11.077-.752 16.713-11.068 22.349-23.881 43.37-42.747 60.444-9.888 8.96-20.6 16.193-33.268 20.455-9.164 3.092-18.579 5.172-28.245 2.488-6.8-1.885-10.529-7.372-10.483-14.531.046-5.822 2.618-8.44 10.5-10.687 1.244-.353 2.5-.706 3.76-.993a97.448 97.448 0 0038.449-17.985c11.328-8.616 20.826-18.458 25-32.367 4.717-15.719-5.487-28.932-22.07-28.848-8.8.056-16.564 3.138-23.843 7.539-19.381 11.708-32.016 29.155-43.055 48.263a117.036 117.036 0 01-18.18 23.574c-5.552 5.6-12.767 9.851-19.823 13.639-5.032 2.7-9.433-.715-8.431-6.3a59.539 59.539 0 015.032-14.438c4.485-9.6 9.536-18.95 14.067-28.532a43.748 43.748 0 004.485-22.887c-1.031-11.708-9.7-19.266-21.559-18.913-10.241.306-18.839 4.587-26.694 10.548-12.785 9.7-23 21.792-32.581 34.456-1.161 1.532-2.553 4.113-4.41 3.89-1.625-1.031-1.021-2.776-.78-3.649 4.122-14.837 10.808-27.465 24.066-37.177 23.955-17.558 44.437-38.681 59.07-64.743 4.949-8.83 8.291-18.115 7.939-28.4-.474-13.63-11.745-21.262-24.726-16.694-8.245 2.9-14.614 8.4-20.065 14.865-17.53 20.8-30.445 44.27-40.64 69.265-4.141 10.12-7.864 20.39-17.066 27.53-2.915 2.275-3.8 5.664-3.018 9.6a19.649 19.649 0 01-.409 8.041c-2.906 12.386-10.148 22.4-18.2 32-11.244 13.426-22.831 26.443-38.319 35.422-10.52 6.1-21.448 10.863-33.973 10.408-11.263-.418-17.975-6.778-17.9-17.428a54.111 54.111 0 012.238-14.206c4.085-14.494 12.015-26.945 22.014-38.17 7.3-8.189 15.636-15.134 26.425-18.282 2.544-.743 6.537-.251 8.319 1.337 1.2 1.068.436 5.543-.826 7.706-2.321 3.992-5.645 7.428-8.579 11.077-4 4.977-4.234 10.288-.576 13.937a10.5 10.5 0 0014.974-.445c4.958-5.413 10.065-11.188 13.1-17.706 8.3-17.8-1.653-33.992-21.439-36.016-10.631-1.077-19.619 3.463-28.189 8.876-19.508 12.321-31.643 30.482-41.624 50.547a126.611 126.611 0 01-14.419 22.692c-3.807 4.763-9.183 8.663-14.559 11.736-6.676 3.816-11.6.91-11.866-6.75a78.487 78.487 0 011.523-17.669c2.971-15.079 9.861-28.764 16.527-42.506a45.273 45.273 0 004.16-11.718c1.56-9.071-3.788-13.147-12.795-10.789a32.849 32.849 0 01-11.43.78c-9.777-1.012-19.461-1.8-28.987 1.439-20.352 6.926-36.016 19.916-47.529 37.474-9.248 14.1-19.145 27.455-31.559 39.071-9.74 9.118-20.538 16.258-33.212 20.547-9.322 3.157-18.876 5.311-28.7 2.516-6.685-1.894-10.4-7.6-10.241-14.726.121-5.58 2.711-8.208 10.269-10.371 1.244-.362 2.5-.715 3.77-.993a97.8 97.8 0 0038.885-18.189c11.151-8.533 20.52-18.282 24.716-32 4.039-13.222-2.433-26.137-15.478-28.245a43.291 43.291 0 00-20.037 1.941c-15.732 5.341-27.486 16.38-37.477 29.119-12.46 15.868-22.776 32.887-25.505 53.286-3.185 23.676 12.321 41.021 36.61 41.55 22.2.483 41.206-7.827 58.847-20.13 3.389-2.368 6.611-4.977 10.362-7.809.1 2.154.139 3.565.241 4.986.808 10.743 6.564 18.774 15.784 21.643a31.3 31.3 0 0021.968-1.068c12.237-5.19 21.847-13.723 30.371-23.676 6.472-7.558 6.982-7.372 11.987.919 7.66 12.683 18.43 16.991 32.311 11.513 7.251-2.86 13.667-7.771 20.529-11.8a12.193 12.193 0 01.678 1.411c6.453 17.084 19.9 24.048 37.418 25.088 17.734 1.058 32.543-6.518 46.675-15.747 5.8-3.788 11.16-8.245 17.279-12.813-.854 2.813-1.616 5.051-2.2 7.316a49.405 49.405 0 00-1.625 7.521c-.427 4.4-.566 8.895 4.7 10.956 4.373 1.708 7.883.269 11.467-4.847 3.426-4.884 6.648-9.907 9.99-14.837 17.233-25.422 35.255-50.24 58.179-71.122a105.306 105.306 0 0113.175-9.851c10.418-6.806 11.03 2.953 9.387 8.282a7.267 7.267 0 01-.409.873q-6.574 13.412-13.157 26.852c-4.856 9.953-8.18 20.3-7.363 31.5 1 13.565 13.38 23.927 26.276 21.949a38.29 38.29 0 0011.179-3.194c6.917-3.417 13.5-7.465 19.35-10.77 3.445 5.45 6.193 12.042 10.863 16.778 10.52 10.659 24.4 11.355 38.3 9.461 25.951-3.547 46.916-16.629 64.706-34.911 15.144-15.552 25.923-34.057 35.422-53.351 6.314-12.841 8.031-13.222 20.315-5.385 6.657 4.252 7.289 7.92 2.851 14.308-5.887 8.468-11.987 16.833-17.186 25.7a87.32 87.32 0 00-8.653 19.777c-5.459 18.9 6.694 33.156 26.462 31.531 8.709-.706 16.416-4.466 22.952-9.814 8.719-7.121 16.75-15.069 24.939-22.544.4-.39.6-.576.947-.91.139 2.173.26 4.243.4 6.611 3.853 15.376 14.6 26.443 27.938 28.272a42.979 42.979 0 0031.021-7.6c7.382-5.144 14.048-11.272 20.984-16.917.316 1.393.613 3.278 1.17 5.088 3.092 10.074 8.449 18.254 19.767 20.371 8.486 1.6 16.462-.6 23.871-4.837 11.346-6.49 20.027-15.831 28.365-25.561a43.182 43.182 0 014.773-4.048c1.736 12.925-3.63 24.085-13.491 29.832-12.47 7.251-24.995 14.419-37.381 21.8-19.155 11.42-37.436 23.964-52.924 40.12-7.279 7.6-13.045 15.979-15.719 26.211-3.742 14.252 1.068 26.926 13.379 33.453 4.485 2.386 9.721 3.38 14.624 5.014h8.8c23.983-5.849 40.473-21.234 53.991-40.7 15.6-22.432 29.015-45.886 37.232-72.06a17.111 17.111 0 017.428-8.867c29.544-16.49 52.088-39.646 68.68-68.671 1.421-2.479 2.451-4.55 3.974-7.6s.001-4.809.001-4.809zm-433.529 9.617a7.238 7.238 0 01.761-2.126 95.8 95.8 0 016.165-9.016 79.622 79.622 0 0115.264-15.134 76.1 76.1 0 019.266-5.933c.52-.279 1.114-.474 1.662-.706a22.325 22.325 0 015.209-1.541 8.424 8.424 0 014 .409 1.8 1.8 0 01.789.6 6.4 6.4 0 01.186 5.339 34.344 34.344 0 01-5.079 7.558 114.634 114.634 0 01-2.98 3.37 84.606 84.606 0 01-9.768 9.118 63.932 63.932 0 01-15.394 9.1c-.752.306-1.523.576-2.3.808-2.34.706-4.8 1.161-7.177 1.792-.594.084-1.2-.065-1.086-1.356.204-1.193.325-1.518.482-2.282zm-106.608-74.109a270.737 270.737 0 0120.623-37.038 183.922 183.922 0 0110.167-13.63q2.7-3.3 5.617-6.481c.251-.288.52-.6.789-.938 1.857-2.33 3.9-5.385 7.2-3.37a2.086 2.086 0 01.659 1.43 13.663 13.663 0 01-1.114 7.2c-4.559 8.171-9.146 16.36-14.169 24.252a213.284 213.284 0 01-5.19 7.781 106.082 106.082 0 01-4.587 6.044c-4.791 5.905-10.111 11.448-15.153 17.168a13.39 13.39 0 01-2.368 2.006c-.864.6-1.764 1.179-2.6 1.8q-.613-.46-1.2-.919a27.028 27.028 0 011.326-5.305zm-372.425 70.5c6.926-10.835 15.58-20.092 26.731-26.815a34.653 34.653 0 019.331-3.863c1.746-.436 4.735-.046 5.58 1.1.91 1.235.706 4.327-.3 5.682-3.779 5.162-7.474 10.659-12.33 14.7-6.5 5.4-13.909 9.8-21.225 14.132-2.544 1.495-5.979 1.513-9.006 2.2-.334-.418-.678-.836-1.021-1.253.726-1.965 1.126-4.147 2.24-5.883zm159.5-18.848a29.209 29.209 0 01-3.417 8.421c-12.442 20.027-25.84 39.377-42.553 56.238a36.348 36.348 0 01-9.378 6.815c-8.932 4.512-15.014.474-14.735-10.436 1.263-15.942 8.57-30.454 18.542-43.843 8.988-12.052 20.111-21.42 34.9-25.877a34.5 34.5 0 018.069-1.588c7.22-.353 10.285 3.296 8.567 10.269zm582.026-98.838a172.589 172.589 0 0111.513-13.064 5.762 5.762 0 014.773-1.226 4.529 4.529 0 012.822 4.587c-2.414 7.3-4.429 15.06-7.521 22.386-11.68 27.687-28.449 52.3-47.6 75.421-1.9 2.136-3.751 4.141-5.432 5.831-5.645 5.692-9.666 8.83-10.659 9.768 1.031-2.943 2.563-6.667 2.878-7.6 11.733-34.359 26.413-67.283 49.226-96.103zm65.105 219.578c-12.925 24.4-27.446 47.706-48.6 66.229-6.341 5.562-13.565 9.35-22.321 9.489-8.542.13-13.862-5.636-11.3-13.677a62.151 62.151 0 018.978-16.75c8.9-12.4 21.745-20.6 34.066-29.247 10.585-7.428 21.383-14.577 32.219-21.652a30.94 30.94 0 018.078-3.463c1.179-.158 1.411.529 1.346 1.476-.795 2.544-1.24 5.273-2.466 7.595z" fill="#ace0f8"/></g></svg>